<?xml version="1.0" encoding="utf-8"?><svg xmlns:xlink="http://www.w3.org/1999/xlink" id="escena_regalo" image-rendering="auto" baseProfile="basic" version="1.1" x="0px" y="0px" width="546" height="307" xmlns="http://www.w3.org/2000/svg"><g id="Scene_1" overflow="visible"><path fill="#FFF" d="M546.951,14.879Q546.951,-0.012 528.075,-0.012L18.855,-0.012Q-0.021,-0.012 -0.021,14.879L-0.021,292.766Q-0.021,307.656 18.855,307.656L528.075,307.656Q546.951,307.656 546.951,292.766L546.951,14.879"/><g style="display:none;"><path fill="#FEDA00" d="M339.2,234.55Q339.55,233.85 339.75,233.2 340,232.4 340.2,231.65 340.25,230.85 340.25,230.05L340.25,170.6 206.3,170.6 206.3,230.05Q206.3,230.85 206.4,231.65 206.55,232.4 206.8,233.2 206.95,233.85 207.35,234.55 207.7,235.25 208.1,235.95 208.6,236.55 209.15,237.2 209.65,237.75 210.3,238.3 210.85,238.8 211.6,239.25 212.25,239.7 213.1,240.1 213.8,240.45 214.65,240.8 215.45,241.05 216.35,241.3 217.15,241.4 218.15,241.55 219.05,241.65 220,241.7L326.55,241.7Q327.45,241.65 328.45,241.55 329.35,241.4 330.2,241.3 331.05,241.05 331.95,240.8 332.65,240.45 333.5,240.1 334.2,239.7 334.95,239.25 335.6,238.8 336.25,238.3 336.85,237.75 337.4,237.2 338,236.55 338.4,235.95 338.8,235.25 339.2,234.55"/><path fill="#FEDA00" d="M339.277,163.637Q351.115,163.637 351.115,153.599L351.115,141.138Q351.115,131.1 339.277,131.1L206.537,131.1Q194.7,131.1 194.7,141.138L194.7,153.599Q194.7,163.637 206.537,163.637L339.277,163.637"/><animate attributeName="display" repeatCount="indefinite" dur="4.333s" keyTimes="0;0.615;0.625;1" values="none;inline;none;none"/></g><g style="display:none;"><path fill="#FEDA00" d="M330.873,141.559L215.55,141.559 215.515,141.6 215.515,212.578Q215.516,213.545 215.62,214.48 215.727,215.411 215.937,216.298 216.138,217.17 216.429,217.993 216.72,218.829 217.097,219.605 217.498,220.383 217.976,221.094 218.432,221.793 218.96,222.416 219.491,223.038 220.086,223.574 220.69,224.116 221.351,224.566 222.011,225.031 222.722,225.393 223.422,225.736 224.164,225.972 224.919,226.218 225.711,226.344 226.506,226.467 227.328,226.468L319.129,226.468Q319.934,226.467 320.711,226.344 321.504,226.218 322.258,225.972 323.018,225.736 323.735,225.393 324.429,225.031 325.071,224.566 325.733,224.116 326.337,223.574 326.932,223.038 327.462,222.416 328.008,221.793 328.482,221.094 328.943,220.383 329.326,219.605 329.702,218.829 329.994,217.993 330.302,217.17 330.521,216.298 330.73,215.412 330.837,214.48 330.941,213.545 330.943,212.578L330.943,141.6 330.873,141.559"/><path fill="#FEDA00" d="M330.084,133.258Q340.28,133.258 340.28,121.27L340.28,106.388Q340.28,94.4 330.084,94.4L215.746,94.4Q205.55,94.4 205.55,106.388L205.55,121.27Q205.55,133.258 215.746,133.258L330.084,133.258"/><animate attributeName="display" repeatCount="indefinite" dur="4.333s" keyTimes="0;0.163;0.183;0.346;0.365;0.529;0.558;1" values="none;inline;none;inline;none;inline;none;none"/></g><g style="display:none;"><path fill="#FEDA00" d="M330.873,142.009L215.55,142.009 215.515,142.05 215.515,213.028Q215.516,213.995 215.62,214.93 215.727,215.861 215.937,216.748 216.138,217.62 216.429,218.443 216.72,219.279 217.097,220.055 217.498,220.833 217.976,221.544 218.432,222.243 218.96,222.866 219.491,223.488 220.086,224.024 220.69,224.566 221.351,225.016 222.011,225.481 222.722,225.843 223.422,226.186 224.164,226.422 224.919,226.668 225.711,226.794 226.506,226.917 227.328,226.918L319.129,226.918Q319.934,226.917 320.711,226.794 321.504,226.668 322.258,226.422 323.018,226.186 323.735,225.843 324.429,225.481 325.071,225.016 325.733,224.566 326.337,224.024 326.932,223.488 327.462,222.866 328.008,222.243 328.482,221.544 328.943,220.833 329.326,220.055 329.702,219.279 329.994,218.443 330.302,217.62 330.521,216.748 330.73,215.862 330.837,214.93 330.941,213.995 330.943,213.028L330.943,142.05 330.873,142.009"/><path fill="#FEDA00" d="M330.084,133.708Q340.28,133.708 340.28,121.72L340.28,106.838Q340.28,94.85 330.084,94.85L215.746,94.85Q205.55,94.85 205.55,106.838L205.55,121.72Q205.55,133.708 215.746,133.708L330.084,133.708"/><animate attributeName="display" repeatCount="indefinite" dur="4.333s" keyTimes="0;0.154;0.163;0.337;0.346;0.519;0.529;1" values="none;inline;none;inline;none;inline;none;none"/></g><g style="display:none;"><path fill="#FEDA00" d="M330.873,142.509L215.55,142.509 215.515,142.55 215.515,213.528Q215.516,214.495 215.62,215.43 215.727,216.361 215.937,217.248 216.138,218.12 216.429,218.943 216.72,219.779 217.097,220.555 217.498,221.333 217.976,222.044 218.432,222.743 218.96,223.366 219.491,223.988 220.086,224.524 220.69,225.066 221.351,225.516 222.011,225.981 222.722,226.343 223.422,226.686 224.164,226.922 224.919,227.168 225.711,227.294 226.506,227.417 227.328,227.418L319.129,227.418Q319.934,227.417 320.711,227.294 321.504,227.168 322.258,226.922 323.018,226.686 323.735,226.343 324.429,225.981 325.071,225.516 325.733,225.066 326.337,224.524 326.932,223.988 327.462,223.366 328.008,222.743 328.482,222.044 328.943,221.333 329.326,220.555 329.702,219.779 329.994,218.943 330.302,218.12 330.521,217.248 330.73,216.362 330.837,215.43 330.941,214.495 330.943,213.528L330.943,142.55 330.873,142.509"/><path fill="#FEDA00" d="M330.084,134.208Q340.28,134.208 340.28,122.22L340.28,107.338Q340.28,95.35 330.084,95.35L215.746,95.35Q205.55,95.35 205.55,107.338L205.55,122.22Q205.55,134.208 215.746,134.208L330.084,134.208"/><animate attributeName="display" repeatCount="indefinite" dur="4.333s" keyTimes="0;0.144;0.154;0.327;0.337;0.51;0.519;1" values="none;inline;none;inline;none;inline;none;none"/></g><g style="display:none;"><path fill="#FEDA00" d="M330.873,142.959L215.55,142.959 215.515,143 215.515,213.978Q215.516,214.945 215.62,215.88 215.727,216.811 215.937,217.698 216.138,218.57 216.429,219.393 216.72,220.229 217.097,221.005 217.498,221.783 217.976,222.494 218.432,223.193 218.96,223.816 219.491,224.438 220.086,224.974 220.69,225.516 221.351,225.966 222.011,226.431 222.722,226.793 223.422,227.136 224.164,227.372 224.919,227.618 225.711,227.744 226.506,227.867 227.328,227.868L319.129,227.868Q319.934,227.867 320.711,227.744 321.504,227.618 322.258,227.372 323.018,227.136 323.735,226.793 324.429,226.431 325.071,225.966 325.733,225.516 326.337,224.974 326.932,224.438 327.462,223.816 328.008,223.193 328.482,222.494 328.943,221.783 329.326,221.005 329.702,220.229 329.994,219.393 330.302,218.57 330.521,217.698 330.73,216.812 330.837,215.88 330.941,214.945 330.943,213.978L330.943,143 330.873,142.959"/><path fill="#FEDA00" d="M330.084,134.658Q340.28,134.658 340.28,122.67L340.28,107.788Q340.28,95.8 330.084,95.8L215.746,95.8Q205.55,95.8 205.55,107.788L205.55,122.67Q205.55,134.658 215.746,134.658L330.084,134.658"/><animate attributeName="display" repeatCount="indefinite" dur="4.333s" keyTimes="0;0.135;0.144;0.317;0.327;0.5;0.51;1" values="none;inline;none;inline;none;inline;none;none"/></g><g style="display:none;"><path fill="#FEDA00" d="M330.873,143.409L215.55,143.409 215.515,143.45 215.515,214.428Q215.516,215.395 215.62,216.33 215.727,217.261 215.937,218.148 216.138,219.02 216.429,219.843 216.72,220.679 217.097,221.455 217.498,222.233 217.976,222.944 218.432,223.643 218.96,224.266 219.491,224.888 220.086,225.424 220.69,225.966 221.351,226.416 222.011,226.881 222.722,227.243 223.422,227.586 224.164,227.822 224.919,228.068 225.711,228.194 226.506,228.317 227.328,228.318L319.129,228.318Q319.934,228.317 320.711,228.194 321.504,228.068 322.258,227.822 323.018,227.586 323.735,227.243 324.429,226.881 325.071,226.416 325.733,225.966 326.337,225.424 326.932,224.888 327.462,224.266 328.008,223.643 328.482,222.944 328.943,222.233 329.326,221.455 329.702,220.679 329.994,219.843 330.302,219.02 330.521,218.148 330.73,217.262 330.837,216.33 330.941,215.395 330.943,214.428L330.943,143.45 330.873,143.409"/><path fill="#FEDA00" d="M330.084,135.108Q340.28,135.108 340.28,123.12L340.28,108.238Q340.28,96.25 330.084,96.25L215.746,96.25Q205.55,96.25 205.55,108.238L205.55,123.12Q205.55,135.108 215.746,135.108L330.084,135.108"/><animate attributeName="display" repeatCount="indefinite" dur="4.333s" keyTimes="0;0.125;0.135;0.308;0.317;0.49;0.5;1" values="none;inline;none;inline;none;inline;none;none"/></g><g style="display:none;"><path fill="#FEDA00" d="M330.873,145.259L215.55,145.259 215.515,145.3 215.515,216.278Q215.516,217.245 215.62,218.18 215.727,219.111 215.937,219.998 216.138,220.87 216.429,221.693 216.72,222.529 217.097,223.305 217.498,224.083 217.976,224.794 218.432,225.493 218.96,226.116 219.491,226.738 220.086,227.274 220.69,227.816 221.351,228.266 222.011,228.731 222.722,229.093 223.422,229.436 224.164,229.672 224.919,229.918 225.711,230.044 226.506,230.167 227.328,230.168L319.129,230.168Q319.934,230.167 320.711,230.044 321.504,229.918 322.258,229.672 323.018,229.436 323.735,229.093 324.429,228.731 325.071,228.266 325.733,227.816 326.337,227.274 326.932,226.738 327.462,226.116 328.008,225.493 328.482,224.794 328.943,224.083 329.326,223.305 329.702,222.529 329.994,221.693 330.302,220.87 330.521,219.998 330.73,219.112 330.837,218.18 330.941,217.245 330.943,216.278L330.943,145.3 330.873,145.259"/><path fill="#FEDA00" d="M330.084,136.958Q340.28,136.958 340.28,124.97L340.28,110.088Q340.28,98.1 330.084,98.1L215.746,98.1Q205.55,98.1 205.55,110.088L205.55,124.97Q205.55,136.958 215.746,136.958L330.084,136.958"/><animate attributeName="display" repeatCount="indefinite" dur="4.333s" keyTimes="0;0.115;0.125;0.298;0.308;0.481;0.49;1" values="none;inline;none;inline;none;inline;none;none"/></g><g style="display:none;"><path fill="#FEDA00" d="M330.873,147.059L215.55,147.059 215.515,147.1 215.515,218.078Q215.516,219.045 215.62,219.98 215.727,220.911 215.937,221.798 216.138,222.67 216.429,223.493 216.72,224.329 217.097,225.105 217.498,225.883 217.976,226.594 218.432,227.293 218.96,227.916 219.491,228.538 220.086,229.074 220.69,229.616 221.351,230.066 222.011,230.531 222.722,230.893 223.422,231.236 224.164,231.472 224.919,231.718 225.711,231.844 226.506,231.967 227.328,231.968L319.129,231.968Q319.934,231.967 320.711,231.844 321.504,231.718 322.258,231.472 323.018,231.236 323.735,230.893 324.429,230.531 325.071,230.066 325.733,229.616 326.337,229.074 326.932,228.538 327.462,227.916 328.008,227.293 328.482,226.594 328.943,225.883 329.326,225.105 329.702,224.329 329.994,223.493 330.302,222.67 330.521,221.798 330.73,220.912 330.837,219.98 330.941,219.045 330.943,218.078L330.943,147.1 330.873,147.059"/><path fill="#FEDA00" d="M330.084,138.758Q340.28,138.758 340.28,126.77L340.28,111.888Q340.28,99.9 330.084,99.9L215.746,99.9Q205.55,99.9 205.55,111.888L205.55,126.77Q205.55,138.758 215.746,138.758L330.084,138.758"/><animate attributeName="display" repeatCount="indefinite" dur="4.333s" keyTimes="0;0.106;0.115;0.288;0.298;0.471;0.481;1" values="none;inline;none;inline;none;inline;none;none"/></g><g style="display:none;"><path fill="#FEDA00" d="M331.854,152.659L214.6,152.659 214.564,152.7 214.564,222.711Q214.566,223.665 214.671,224.587 214.78,225.506 214.993,226.381 215.198,227.241 215.494,228.053 215.79,228.877 216.173,229.643 216.58,230.41 217.067,231.111 217.531,231.801 218.068,232.416 218.607,233.028 219.212,233.557 219.826,234.092 220.498,234.536 221.17,234.994 221.893,235.352 222.604,235.69 223.358,235.922 224.126,236.165 224.931,236.289 225.74,236.411 226.576,236.412L319.914,236.412Q320.732,236.411 321.523,236.289 322.329,236.165 323.096,235.922 323.868,235.69 324.597,235.352 325.303,234.994 325.956,234.536 326.628,234.092 327.243,233.557 327.848,233.028 328.387,232.416 328.942,231.801 329.424,231.111 329.892,230.41 330.281,229.643 330.664,228.877 330.961,228.053 331.274,227.241 331.497,226.381 331.71,225.507 331.819,224.587 331.924,223.665 331.926,222.711L331.926,152.7 331.854,152.659"/><path fill="#FEDA00" d="M331.07,144.479Q341.437,144.479 341.437,132.654L341.437,117.975Q341.437,106.15 331.07,106.15L214.817,106.15Q204.45,106.15 204.45,117.975L204.45,132.654Q204.45,144.479 214.817,144.479L331.07,144.479"/><animate attributeName="display" repeatCount="indefinite" dur="4.333s" keyTimes="0;0.096;0.106;0.279;0.288;0.462;0.471;1" values="none;inline;none;inline;none;inline;none;none"/></g><g style="display:none;"><path fill="#FEDA00" d="M332.785,158.31L213.6,158.31 213.564,158.35 213.564,227.393Q213.565,228.333 213.673,229.243 213.783,230.149 214,231.012 214.208,231.86 214.508,232.661 214.809,233.474 215.199,234.229 215.613,234.986 216.107,235.677 216.579,236.357 217.125,236.963 217.673,237.568 218.287,238.089 218.912,238.617 219.596,239.054 220.278,239.507 221.013,239.859 221.736,240.192 222.503,240.422 223.282,240.661 224.101,240.784 224.923,240.904 225.773,240.904L320.649,240.904Q321.48,240.904 322.284,240.784 323.103,240.661 323.882,240.422 324.667,240.192 325.409,239.859 326.125,239.507 326.789,239.054 327.473,238.617 328.098,238.089 328.712,237.568 329.26,236.963 329.825,236.357 330.314,235.677 330.79,234.986 331.186,234.229 331.575,233.474 331.877,232.661 332.195,231.86 332.422,231.012 332.638,230.15 332.749,229.243 332.856,228.333 332.858,227.393L332.858,158.35 332.785,158.31"/><path fill="#FEDA00" d="M332.005,150.199Q342.543,150.199 342.543,138.537L342.543,124.061Q342.543,112.4 332.005,112.4L213.838,112.4Q203.3,112.4 203.3,124.061L203.3,138.537Q203.3,150.199 213.838,150.199L332.005,150.199"/><animate attributeName="display" repeatCount="indefinite" dur="4.333s" keyTimes="0;0.087;0.096;0.269;0.279;0.452;0.462;1" values="none;inline;none;inline;none;inline;none;none"/></g><g style="display:none;"><path fill="#FEDA00" d="M337.919,166.864L208.65,166.864 208.611,166.9 208.611,229.244Q208.612,230.093 208.729,230.914 208.849,231.733 209.084,232.512 209.309,233.278 209.635,234.001 209.962,234.735 210.384,235.417 210.833,236.1 211.369,236.724 211.881,237.338 212.473,237.886 213.067,238.431 213.734,238.902 214.412,239.378 215.153,239.774 215.893,240.182 216.69,240.5 217.474,240.801 218.306,241.008 219.152,241.224 220.04,241.335 220.931,241.443 221.853,241.444L324.755,241.444Q325.657,241.443 326.529,241.335 327.417,241.224 328.263,241.008 329.114,240.801 329.918,240.5 330.696,240.182 331.416,239.774 332.157,239.378 332.835,238.902 333.501,238.431 334.096,237.886 334.708,237.338 335.239,236.724 335.755,236.1 336.185,235.417 336.607,234.735 336.933,234.001 337.279,233.278 337.525,232.512 337.759,231.733 337.879,230.914 337.996,230.093 337.997,229.244L337.997,166.9 337.919,166.864"/><path fill="#FEDA00" d="M337.044,159.581Q348.474,159.581 348.474,149.051L348.474,135.98Q348.474,125.45 337.044,125.45L208.879,125.45Q197.45,125.45 197.45,135.98L197.45,149.051Q197.45,159.581 208.879,159.581L337.044,159.581"/><animate attributeName="display" repeatCount="indefinite" dur="4.333s" keyTimes="0;0.067;0.077;0.25;0.26;0.433;0.442;0.625;0.635;1" values="none;inline;none;inline;none;inline;none;inline;none;none"/></g><g style="display:none;"><path fill="#FEDA00" d="M340.183,170.565L206.3,170.565 206.259,170.6 206.259,230.033Q206.261,230.842 206.382,231.625 206.506,232.405 206.749,233.148 206.983,233.878 207.32,234.567 207.658,235.267 208.096,235.917 208.561,236.568 209.116,237.163 209.646,237.749 210.259,238.271 210.875,238.791 211.566,239.24 212.267,239.694 213.035,240.071 213.801,240.46 214.627,240.763 215.439,241.05 216.3,241.248 217.176,241.454 218.096,241.559 219.02,241.662 219.974,241.663L326.55,241.663Q327.484,241.662 328.387,241.559 329.307,241.454 330.183,241.248 331.064,241.05 331.897,240.763 332.702,240.46 333.448,240.071 334.216,239.694 334.918,239.24 335.608,238.791 336.224,238.271 336.858,237.749 337.407,237.163 337.943,236.568 338.387,235.917 338.824,235.267 339.163,234.567 339.52,233.878 339.775,233.148 340.018,232.406 340.142,231.625 340.263,230.842 340.265,230.033L340.265,170.6 340.183,170.565"/><path fill="#FEDA00" d="M339.277,163.637Q351.115,163.637 351.115,153.599L351.115,141.138Q351.115,131.1 339.277,131.1L206.537,131.1Q194.7,131.1 194.7,141.138L194.7,153.599Q194.7,163.637 206.537,163.637L339.277,163.637"/><animate attributeName="display" repeatCount="indefinite" dur="4.333s" keyTimes="0;0.058;0.067;0.24;0.25;0.423;0.433;1" values="none;inline;none;inline;none;inline;none;none"/></g><g style="display:none;"><path fill="#FEDA00" d="M339.765,169.965L206.65,169.965 206.609,170 206.609,229.918Q206.611,230.734 206.731,231.523 206.855,232.31 207.096,233.059 207.329,233.795 207.665,234.489 208.001,235.195 208.436,235.85 208.898,236.507 209.45,237.107 209.977,237.697 210.587,238.223 211.199,238.748 211.885,239.2 212.583,239.658 213.346,240.038 214.108,240.43 214.929,240.736 215.737,241.025 216.593,241.224 217.464,241.432 218.379,241.539 219.297,241.643 220.246,241.643L326.21,241.643Q327.138,241.643 328.036,241.539 328.951,241.432 329.822,241.224 330.698,241.025 331.526,240.736 332.327,240.43 333.069,240.038 333.832,239.658 334.53,239.2 335.216,238.748 335.828,238.223 336.459,237.697 337.005,237.107 337.537,236.507 337.979,235.85 338.414,235.195 338.75,234.489 339.106,233.795 339.359,233.059 339.601,232.311 339.724,231.523 339.844,230.734 339.846,229.918L339.846,170 339.765,169.965"/><path fill="#FEDA00" d="M338.848,162.953Q350.617,162.953 350.617,152.833L350.617,140.27Q350.617,130.15 338.848,130.15L206.869,130.15Q195.1,130.15 195.1,140.27L195.1,152.833Q195.1,162.953 206.869,162.953L338.848,162.953"/><animate attributeName="display" repeatCount="indefinite" dur="4.333s" keyTimes="0;0.048;0.058;0.231;0.24;0.413;0.423;0.606;0.615;1" values="none;inline;none;inline;none;inline;none;inline;none;none"/></g><g style="display:none;"><path fill="#FEDA00" d="M339.349,169.365L207,169.365 206.96,169.4 206.96,229.804Q206.962,230.626 207.081,231.422 207.203,232.215 207.444,232.97 207.675,233.712 208.009,234.412 208.343,235.124 208.775,235.784 209.235,236.446 209.784,237.051 210.308,237.646 210.914,238.177 211.522,238.705 212.205,239.162 212.899,239.623 213.658,240.006 214.415,240.402 215.231,240.71 216.035,241.002 216.886,241.202 217.752,241.412 218.661,241.519 219.574,241.624 220.517,241.624L325.872,241.624Q326.795,241.624 327.688,241.519 328.597,241.412 329.463,241.202 330.335,241.002 331.158,240.71 331.954,240.402 332.691,240.006 333.45,239.623 334.144,239.162 334.826,238.705 335.435,238.177 336.062,237.646 336.605,237.051 337.134,236.446 337.574,235.784 338.006,235.124 338.34,234.412 338.694,233.712 338.946,232.97 339.186,232.216 339.309,231.422 339.428,230.626 339.43,229.804L339.43,169.4 339.349,169.365"/><path fill="#FEDA00" d="M338.471,162.269Q350.173,162.269 350.173,152.067L350.173,139.402Q350.173,129.2 338.471,129.2L207.252,129.2Q195.55,129.2 195.55,139.402L195.55,152.067Q195.55,162.269 207.252,162.269L338.471,162.269"/><animate attributeName="display" repeatCount="indefinite" dur="4.333s" keyTimes="0;0.038;0.048;0.221;0.231;0.404;0.413;0.596;0.606;1" values="none;inline;none;inline;none;inline;none;inline;none;none"/></g><g style="display:none;"><path fill="#FEDA00" d="M338.978,168.715L207.4,168.715 207.36,168.75 207.36,229.639Q207.362,230.468 207.48,231.27 207.602,232.069 207.841,232.83 208.071,233.578 208.403,234.284 208.735,235.001 209.165,235.667 209.622,236.334 210.168,236.944 210.689,237.544 211.291,238.079 211.896,238.611 212.575,239.072 213.265,239.536 214.019,239.923 214.772,240.321 215.584,240.632 216.382,240.926 217.228,241.128 218.089,241.339 218.993,241.447 219.901,241.553 220.839,241.554L325.58,241.554Q326.497,241.553 327.385,241.447 328.289,241.339 329.15,241.128 330.016,240.926 330.835,240.632 331.626,240.321 332.359,239.923 333.114,239.536 333.803,239.072 334.482,238.611 335.087,238.079 335.71,237.544 336.251,236.944 336.776,236.334 337.213,235.667 337.643,235.001 337.975,234.284 338.327,233.578 338.577,232.83 338.816,232.07 338.938,231.27 339.057,230.468 339.059,229.639L339.059,168.75 338.978,168.715"/><path fill="#FEDA00" d="M338.089,161.584Q349.722,161.584 349.722,151.3L349.722,138.534Q349.722,128.25 338.089,128.25L207.633,128.25Q196,128.25 196,138.534L196,151.3Q196,161.584 207.633,161.584L338.089,161.584"/><animate attributeName="display" repeatCount="indefinite" dur="4.333s" keyTimes="0;0.029;0.038;0.212;0.221;0.394;0.404;0.587;0.596;1" values="none;inline;none;inline;none;inline;none;inline;none;none"/></g><g style="display:none;"><path fill="#FEDA00" d="M337.821,166.914L208.55,166.914 208.511,166.95 208.511,229.293Q208.512,230.142 208.629,230.964 208.749,231.782 208.984,232.561 209.209,233.327 209.535,234.05 209.862,234.784 210.284,235.466 210.733,236.149 211.269,236.773 211.781,237.387 212.373,237.935 212.967,238.48 213.634,238.952 214.312,239.428 215.053,239.823 215.793,240.231 216.59,240.549 217.375,240.85 218.206,241.058 219.052,241.274 219.94,241.384 220.831,241.493 221.753,241.493L324.658,241.493Q325.559,241.493 326.431,241.384 327.319,241.274 328.165,241.058 329.016,240.85 329.82,240.549 330.598,240.231 331.318,239.823 332.06,239.428 332.737,238.952 333.404,238.48 333.998,237.935 334.61,237.387 335.141,236.773 335.658,236.149 336.087,235.466 336.509,234.784 336.836,234.05 337.181,233.327 337.427,232.561 337.662,231.783 337.782,230.964 337.898,230.142 337.9,229.293L337.9,166.95 337.821,166.914"/><path fill="#FEDA00" d="M336.947,159.631Q348.377,159.631 348.377,149.101L348.377,136.03Q348.377,125.5 336.947,125.5L208.779,125.5Q197.35,125.5 197.35,136.03L197.35,149.101Q197.35,159.631 208.779,159.631L336.947,159.631"/><animate attributeName="display" repeatCount="indefinite" dur="4.333s" keyTimes="0;0.019;0.029;0.202;0.212;0.385;0.394;0.577;0.587;1" values="none;inline;none;inline;none;inline;none;inline;none;none"/></g><g style="display:none;"><path fill="#FEDA00" d="M336.714,165.063L209.75,165.063 209.711,165.1 209.711,228.898Q209.713,229.767 209.827,230.607 209.945,231.445 210.176,232.242 210.397,233.026 210.718,233.766 211.038,234.517 211.453,235.215 211.894,235.914 212.421,236.552 212.923,237.181 213.505,237.741 214.088,238.3 214.743,238.782 215.409,239.269 216.137,239.673 216.864,240.091 217.647,240.417 218.417,240.725 219.234,240.937 220.064,241.158 220.937,241.271 221.812,241.382 222.717,241.383L323.785,241.383Q324.671,241.382 325.527,241.271 326.4,241.158 327.23,240.937 328.066,240.725 328.856,240.417 329.62,240.091 330.327,239.673 331.055,239.269 331.72,238.782 332.375,238.3 332.959,237.741 333.56,237.181 334.082,236.552 334.589,235.914 335.011,235.215 335.425,234.517 335.746,233.766 336.085,233.026 336.327,232.242 336.557,231.446 336.675,230.607 336.79,229.767 336.791,228.898L336.791,165.1 336.714,165.063"/><path fill="#FEDA00" d="M335.855,157.577Q347.081,157.577 347.081,146.802L347.081,133.425Q347.081,122.65 335.855,122.65L209.975,122.65Q198.75,122.65 198.75,133.425L198.75,146.802Q198.75,157.577 209.975,157.577L335.855,157.577"/><animate attributeName="display" repeatCount="indefinite" dur="4.333s" keyTimes="0;0.01;0.019;0.192;0.202;0.375;0.385;0.567;0.577;1" values="none;inline;none;inline;none;inline;none;inline;none;none"/></g><g><path fill="#FEDA00" d="M335.554,163.212L210.9,163.212 210.862,163.25 210.862,228.503Q210.864,229.392 210.976,230.252 211.092,231.108 211.318,231.924 211.536,232.725 211.85,233.482 212.165,234.251 212.572,234.964 213.005,235.679 213.522,236.332 214.015,236.975 214.586,237.548 215.159,238.119 215.803,238.613 216.456,239.111 217.171,239.525 217.884,239.952 218.653,240.285 219.409,240.6 220.211,240.817 221.027,241.043 221.883,241.159 222.743,241.272 223.631,241.273L322.861,241.273Q323.73,241.272 324.571,241.159 325.427,241.043 326.243,240.817 327.064,240.6 327.839,240.285 328.589,239.952 329.283,239.525 329.998,239.111 330.652,238.613 331.294,238.119 331.868,237.548 332.458,236.975 332.97,236.332 333.468,235.679 333.882,234.964 334.289,234.251 334.604,233.482 334.937,232.725 335.174,231.924 335.4,231.109 335.516,230.252 335.629,229.392 335.63,228.503L335.63,163.25 335.554,163.212"/><path fill="#FEDA00" d="M334.711,155.574Q345.732,155.574 345.732,144.553L345.732,130.871Q345.732,119.85 334.711,119.85L211.121,119.85Q200.1,119.85 200.1,130.871L200.1,144.553Q200.1,155.574 211.121,155.574L334.711,155.574"/><animate attributeName="display" repeatCount="indefinite" dur="4.333s" keyTimes="0;0.01;0.077;0.087;0.183;0.192;0.26;0.269;0.365;0.375;0.442;0.452;0.558;0.567;0.635;1" values="inline;none;inline;none;inline;none;inline;none;inline;none;inline;none;inline;none;inline;inline"/></g><g style="display:none;"><path fill="none" stroke="#EB2227" stroke-width="8" stroke-linecap="round" stroke-linejoin="round" d="M270.264,92.419Q272.509,92.3 272.584,92.295 272.515,92.145 270.299,89.36 268.085,86.59 264.568,82.829 261.054,79.071 257.079,75.967 253.091,72.854 249.485,72.039 247.132,71.598 245.23,71.791 243.346,71.993 241.89,72.701 240.422,73.42 239.359,74.52 238.307,75.592 237.636,76.917 236.948,78.26 236.616,79.728 236.292,81.196 236.3,82.663 236.305,84.859 237.038,86.756 237.759,88.641 239.324,90.063 240.901,91.494 243.437,92.295 245.976,93.105 249.59,93.122 253.067,93.094 257.009,92.957 260.96,92.85 264.498,92.709 268.027,92.544 270.264,92.419"/><path fill="none" stroke="#EB2227" stroke-width="8" stroke-linecap="round" stroke-linejoin="round" d="M310.114,82.039Q310.104,80.571 309.762,79.104 309.43,77.654 308.743,76.335 308.053,74.986 306.985,73.896 305.902,72.835 304.418,72.159 302.943,71.469 301.043,71.291 299.157,71.116 296.824,71.581 293.225,72.434 289.265,75.591 285.322,78.759 281.846,82.577 278.351,86.388 276.15,89.191 273.964,91.99 273.9,92.126 273.975,92.124 276.221,92.209 278.458,92.301 281.987,92.415 285.525,92.539 289.476,92.622 293.435,92.695 296.929,92.663 300.53,92.598 303.047,91.754 305.569,90.925 307.126,89.48 308.693,88.033 309.411,86.132 310.128,84.232 310.114,82.039"/><animate attributeName="display" repeatCount="indefinite" dur="4.333s" keyTimes="0;0.163;0.183;0.346;0.365;0.529;0.558;1" values="none;inline;none;inline;none;inline;none;none"/></g><g style="display:none;"><path fill="none" stroke="#EB2227" stroke-width="8" stroke-linecap="round" stroke-linejoin="round" d="M270.264,92.869Q272.509,92.75 272.584,92.745 272.515,92.595 270.299,89.81 268.085,87.04 264.568,83.279 261.054,79.521 257.079,76.417 253.091,73.304 249.485,72.489 247.132,72.048 245.23,72.241 243.346,72.443 241.89,73.151 240.422,73.87 239.359,74.97 238.307,76.042 237.636,77.367 236.948,78.71 236.616,80.178 236.292,81.646 236.3,83.113 236.305,85.309 237.038,87.206 237.759,89.091 239.324,90.513 240.901,91.944 243.437,92.745 245.976,93.555 249.59,93.572 253.067,93.544 257.009,93.407 260.96,93.3 264.498,93.159 268.027,92.994 270.264,92.869"/><path fill="none" stroke="#EB2227" stroke-width="8" stroke-linecap="round" stroke-linejoin="round" d="M310.114,82.489Q310.104,81.021 309.762,79.554 309.43,78.104 308.743,76.785 308.053,75.436 306.985,74.346 305.902,73.285 304.418,72.609 302.943,71.919 301.043,71.741 299.157,71.566 296.824,72.031 293.225,72.884 289.265,76.041 285.322,79.209 281.846,83.027 278.351,86.838 276.15,89.641 273.964,92.44 273.9,92.576 273.975,92.574 276.221,92.659 278.458,92.751 281.987,92.865 285.525,92.989 289.476,93.072 293.435,93.145 296.929,93.113 300.53,93.048 303.047,92.204 305.569,91.375 307.126,89.93 308.693,88.483 309.411,86.582 310.128,84.682 310.114,82.489"/><animate attributeName="display" repeatCount="indefinite" dur="4.333s" keyTimes="0;0.154;0.163;0.337;0.346;0.519;0.529;1" values="none;inline;none;inline;none;inline;none;none"/></g><g style="display:none;"><path fill="none" stroke="#EB2227" stroke-width="8" stroke-linecap="round" stroke-linejoin="round" d="M270.264,93.369Q272.509,93.25 272.584,93.245 272.515,93.095 270.299,90.31 268.085,87.54 264.568,83.779 261.054,80.021 257.079,76.917 253.091,73.804 249.485,72.989 247.132,72.548 245.23,72.741 243.346,72.943 241.89,73.651 240.422,74.37 239.359,75.47 238.307,76.542 237.636,77.867 236.948,79.21 236.616,80.678 236.292,82.146 236.3,83.613 236.305,85.809 237.038,87.706 237.759,89.591 239.324,91.013 240.901,92.444 243.437,93.245 245.976,94.055 249.59,94.072 253.067,94.044 257.009,93.907 260.96,93.8 264.498,93.659 268.027,93.494 270.264,93.369"/><path fill="none" stroke="#EB2227" stroke-width="8" stroke-linecap="round" stroke-linejoin="round" d="M310.114,82.989Q310.104,81.521 309.762,80.054 309.43,78.604 308.743,77.285 308.053,75.936 306.985,74.846 305.902,73.785 304.418,73.109 302.943,72.419 301.043,72.241 299.157,72.066 296.824,72.531 293.225,73.384 289.265,76.541 285.322,79.709 281.846,83.527 278.351,87.338 276.15,90.141 273.964,92.94 273.9,93.076 273.975,93.074 276.221,93.159 278.458,93.251 281.987,93.365 285.525,93.489 289.476,93.572 293.435,93.645 296.929,93.613 300.53,93.548 303.047,92.704 305.569,91.875 307.126,90.43 308.693,88.983 309.411,87.082 310.128,85.182 310.114,82.989"/><animate attributeName="display" repeatCount="indefinite" dur="4.333s" keyTimes="0;0.144;0.154;0.327;0.337;0.51;0.519;1" values="none;inline;none;inline;none;inline;none;none"/></g><g style="display:none;"><path fill="none" stroke="#EB2227" stroke-width="8" stroke-linecap="round" stroke-linejoin="round" d="M270.264,93.819Q272.509,93.7 272.584,93.695 272.515,93.545 270.299,90.76 268.085,87.99 264.568,84.229 261.054,80.471 257.079,77.367 253.091,74.254 249.485,73.439 247.132,72.998 245.23,73.191 243.346,73.393 241.89,74.101 240.422,74.82 239.359,75.92 238.307,76.992 237.636,78.317 236.948,79.66 236.616,81.128 236.292,82.596 236.3,84.063 236.305,86.259 237.038,88.156 237.759,90.041 239.324,91.463 240.901,92.894 243.437,93.695 245.976,94.505 249.59,94.522 253.067,94.494 257.009,94.357 260.96,94.25 264.498,94.109 268.027,93.944 270.264,93.819"/><path fill="none" stroke="#EB2227" stroke-width="8" stroke-linecap="round" stroke-linejoin="round" d="M310.114,83.439Q310.104,81.971 309.762,80.504 309.43,79.054 308.743,77.735 308.053,76.386 306.985,75.296 305.902,74.235 304.418,73.559 302.943,72.869 301.043,72.691 299.157,72.516 296.824,72.981 293.225,73.834 289.265,76.991 285.322,80.159 281.846,83.977 278.351,87.788 276.15,90.591 273.964,93.39 273.9,93.526 273.975,93.524 276.221,93.609 278.458,93.701 281.987,93.815 285.525,93.939 289.476,94.022 293.435,94.095 296.929,94.063 300.53,93.998 303.047,93.154 305.569,92.325 307.126,90.88 308.693,89.433 309.411,87.532 310.128,85.632 310.114,83.439"/><animate attributeName="display" repeatCount="indefinite" dur="4.333s" keyTimes="0;0.135;0.144;0.317;0.327;0.5;0.51;1" values="none;inline;none;inline;none;inline;none;none"/></g><g style="display:none;"><path fill="none" stroke="#EB2227" stroke-width="8" stroke-linecap="round" stroke-linejoin="round" d="M270.264,94.269Q272.509,94.15 272.584,94.145 272.515,93.995 270.299,91.21 268.085,88.44 264.568,84.679 261.054,80.921 257.079,77.817 253.091,74.704 249.485,73.889 247.132,73.448 245.23,73.641 243.346,73.843 241.89,74.551 240.422,75.27 239.359,76.37 238.307,77.442 237.636,78.767 236.948,80.11 236.616,81.578 236.292,83.046 236.3,84.513 236.305,86.709 237.038,88.606 237.759,90.491 239.324,91.913 240.901,93.344 243.437,94.145 245.976,94.955 249.59,94.972 253.067,94.944 257.009,94.807 260.96,94.7 264.498,94.559 268.027,94.394 270.264,94.269"/><path fill="none" stroke="#EB2227" stroke-width="8" stroke-linecap="round" stroke-linejoin="round" d="M310.114,83.889Q310.104,82.421 309.762,80.954 309.43,79.504 308.743,78.185 308.053,76.836 306.985,75.746 305.902,74.685 304.418,74.009 302.943,73.319 301.043,73.141 299.157,72.966 296.824,73.431 293.225,74.284 289.265,77.441 285.322,80.609 281.846,84.427 278.351,88.238 276.15,91.041 273.964,93.84 273.9,93.976 273.975,93.974 276.221,94.059 278.458,94.151 281.987,94.265 285.525,94.389 289.476,94.472 293.435,94.545 296.929,94.513 300.53,94.448 303.047,93.604 305.569,92.775 307.126,91.33 308.693,89.883 309.411,87.982 310.128,86.082 310.114,83.889"/><animate attributeName="display" repeatCount="indefinite" dur="4.333s" keyTimes="0;0.125;0.135;0.308;0.317;0.49;0.5;1" values="none;inline;none;inline;none;inline;none;none"/></g><g style="display:none;"><path fill="none" stroke="#EB2227" stroke-width="8" stroke-linecap="round" stroke-linejoin="round" d="M270.264,96.119Q272.509,96 272.584,95.995 272.515,95.845 270.299,93.06 268.085,90.29 264.568,86.529 261.054,82.771 257.079,79.667 253.091,76.554 249.485,75.739 247.132,75.298 245.23,75.491 243.346,75.693 241.89,76.401 240.422,77.12 239.359,78.22 238.307,79.292 237.636,80.617 236.948,81.96 236.616,83.428 236.292,84.896 236.3,86.363 236.305,88.559 237.038,90.456 237.759,92.341 239.324,93.763 240.901,95.194 243.437,95.995 245.976,96.805 249.59,96.822 253.067,96.794 257.009,96.657 260.96,96.55 264.498,96.409 268.027,96.244 270.264,96.119"/><path fill="none" stroke="#EB2227" stroke-width="8" stroke-linecap="round" stroke-linejoin="round" d="M310.114,85.739Q310.104,84.271 309.762,82.804 309.43,81.354 308.743,80.035 308.053,78.686 306.985,77.596 305.902,76.535 304.418,75.859 302.943,75.169 301.043,74.991 299.157,74.816 296.824,75.281 293.225,76.134 289.265,79.291 285.322,82.459 281.846,86.277 278.351,90.088 276.15,92.891 273.964,95.69 273.9,95.826 273.975,95.824 276.221,95.909 278.458,96.001 281.987,96.115 285.525,96.239 289.476,96.322 293.435,96.395 296.929,96.363 300.53,96.298 303.047,95.454 305.569,94.625 307.126,93.18 308.693,91.733 309.411,89.832 310.128,87.932 310.114,85.739"/><animate attributeName="display" repeatCount="indefinite" dur="4.333s" keyTimes="0;0.115;0.125;0.298;0.308;0.481;0.49;1" values="none;inline;none;inline;none;inline;none;none"/></g><g style="display:none;"><path fill="none" stroke="#EB2227" stroke-width="8" stroke-linecap="round" stroke-linejoin="round" d="M270.264,97.919Q272.509,97.8 272.584,97.795 272.515,97.645 270.299,94.86 268.085,92.09 264.568,88.329 261.054,84.571 257.079,81.467 253.091,78.354 249.485,77.539 247.132,77.098 245.23,77.291 243.346,77.493 241.89,78.201 240.422,78.92 239.359,80.02 238.307,81.092 237.636,82.417 236.948,83.76 236.616,85.228 236.292,86.696 236.3,88.163 236.305,90.359 237.038,92.256 237.759,94.141 239.324,95.563 240.901,96.994 243.437,97.795 245.976,98.605 249.59,98.622 253.067,98.594 257.009,98.457 260.96,98.35 264.498,98.209 268.027,98.044 270.264,97.919"/><path fill="none" stroke="#EB2227" stroke-width="8" stroke-linecap="round" stroke-linejoin="round" d="M310.114,87.539Q310.104,86.071 309.762,84.604 309.43,83.154 308.743,81.835 308.053,80.486 306.985,79.396 305.902,78.335 304.418,77.659 302.943,76.969 301.043,76.791 299.157,76.616 296.824,77.081 293.225,77.934 289.265,81.091 285.322,84.259 281.846,88.077 278.351,91.888 276.15,94.691 273.964,97.49 273.9,97.626 273.975,97.624 276.221,97.709 278.458,97.801 281.987,97.915 285.525,98.039 289.476,98.122 293.435,98.195 296.929,98.163 300.53,98.098 303.047,97.254 305.569,96.425 307.126,94.98 308.693,93.533 309.411,91.632 310.128,89.732 310.114,87.539"/><animate attributeName="display" repeatCount="indefinite" dur="4.333s" keyTimes="0;0.106;0.115;0.288;0.298;0.471;0.481;1" values="none;inline;none;inline;none;inline;none;none"/></g><g style="display:none;"><path fill="none" stroke="#EB2227" stroke-width="8" stroke-linecap="round" stroke-linejoin="round" d="M270.233,104.188Q272.516,104.07 272.592,104.065 272.522,103.918 270.269,101.17 268.018,98.438 264.442,94.728 260.869,91.021 256.827,87.959 252.772,84.889 249.106,84.085 246.713,83.65 244.78,83.841 242.864,84.039 241.384,84.738 239.891,85.447 238.81,86.532 237.741,87.59 237.058,88.897 236.359,90.221 236.022,91.67 235.692,93.118 235.7,94.565 235.705,96.731 236.451,98.601 237.184,100.461 238.774,101.863 240.378,103.275 242.957,104.065 245.538,104.865 249.213,104.881 252.748,104.854 256.756,104.718 260.773,104.613 264.37,104.473 267.958,104.311 270.233,104.188"/><path fill="none" stroke="#EB2227" stroke-width="8" stroke-linecap="round" stroke-linejoin="round" d="M310.771,93.942Q310.761,92.494 310.413,91.047 310.075,89.617 309.377,88.315 308.675,86.985 307.589,85.91 306.488,84.863 304.98,84.197 303.479,83.516 301.548,83.341 299.63,83.167 297.258,83.626 293.598,84.468 289.572,87.581 285.563,90.707 282.029,94.472 278.475,98.231 276.238,100.996 274.015,103.757 273.95,103.892 274.026,103.89 276.309,103.973 278.584,104.064 282.172,104.177 285.769,104.299 289.786,104.381 293.813,104.453 297.365,104.422 301.026,104.357 303.585,103.525 306.149,102.707 307.732,101.282 309.325,99.855 310.056,97.979 310.785,96.105 310.771,93.942"/><animate attributeName="display" repeatCount="indefinite" dur="4.333s" keyTimes="0;0.096;0.106;0.279;0.288;0.462;0.471;1" values="none;inline;none;inline;none;inline;none;none"/></g><g style="display:none;"><path fill="none" stroke="#EB2227" stroke-width="8" stroke-linecap="round" stroke-linejoin="round" d="M270.151,110.506Q272.472,110.39 272.55,110.385 272.478,110.239 270.188,107.53 267.9,104.835 264.265,101.177 260.633,97.522 256.525,94.502 252.403,91.474 248.676,90.681 246.244,90.252 244.28,90.44 242.332,90.636 240.828,91.325 239.311,92.024 238.211,93.094 237.124,94.137 236.431,95.426 235.72,96.732 235.377,98.161 235.042,99.589 235.05,101.016 235.055,103.152 235.813,104.997 236.558,106.831 238.175,108.214 239.805,109.605 242.426,110.385 245.05,111.173 248.785,111.189 252.379,111.163 256.452,111.028 260.536,110.925 264.192,110.787 267.84,110.627 270.151,110.506"/><path fill="none" stroke="#EB2227" stroke-width="8" stroke-linecap="round" stroke-linejoin="round" d="M311.377,100.395Q311.367,98.966 311.014,97.54 310.67,96.13 309.96,94.846 309.247,93.534 308.143,92.474 307.024,91.442 305.49,90.785 303.965,90.113 302.002,89.94 300.053,89.769 297.642,90.222 293.922,91.051 289.829,94.122 285.754,97.205 282.162,100.918 278.55,104.625 276.276,107.352 274.016,110.075 273.95,110.207 274.027,110.205 276.348,110.287 278.66,110.377 282.307,110.488 285.964,110.609 290.047,110.689 294.14,110.76 297.751,110.73 301.472,110.666 304.073,109.845 306.68,109.039 308.288,107.633 309.908,106.226 310.65,104.376 311.392,102.528 311.377,100.395"/><animate attributeName="display" repeatCount="indefinite" dur="4.333s" keyTimes="0;0.087;0.096;0.269;0.279;0.452;0.462;1" values="none;inline;none;inline;none;inline;none;none"/></g><g style="display:none;"><path fill="none" stroke="#EB2227" stroke-width="8" stroke-linecap="round" stroke-linejoin="round" d="M270.012,118.002Q272.439,117.893 272.52,117.888 272.445,117.75 270.05,115.19 267.657,112.643 263.855,109.185 260.057,105.731 255.761,102.876 251.45,100.015 247.552,99.266 245.008,98.86 242.953,99.038 240.916,99.223 239.343,99.874 237.756,100.535 236.606,101.546 235.47,102.532 234.744,103.751 234.001,104.985 233.642,106.335 233.292,107.685 233.3,109.033 233.305,111.052 234.098,112.796 234.877,114.529 236.568,115.836 238.273,117.151 241.015,117.888 243.759,118.633 247.666,118.648 251.424,118.623 255.685,118.496 259.956,118.399 263.779,118.268 267.594,118.117 270.012,118.002"/><path fill="none" stroke="#EB2227" stroke-width="8" stroke-linecap="round" stroke-linejoin="round" d="M313.144,108.469Q313.134,107.119 312.764,105.771 312.405,104.438 311.662,103.225 310.916,101.985 309.762,100.982 308.591,100.007 306.988,99.386 305.393,98.751 303.339,98.588 301.301,98.426 298.779,98.854 294.888,99.638 290.608,102.54 286.346,105.454 282.589,108.963 278.811,112.467 276.432,115.044 274.069,117.617 274,117.742 274.081,117.741 276.508,117.818 278.926,117.903 282.741,118.008 286.565,118.122 290.836,118.198 295.116,118.265 298.893,118.236 302.784,118.176 305.506,117.4 308.231,116.639 309.914,115.31 311.608,113.98 312.384,112.232 313.16,110.485 313.144,108.469"/><animate attributeName="display" repeatCount="indefinite" dur="4.333s" keyTimes="0;0.077;0.087;0.183;0.192;0.26;0.269;0.365;0.375;0.442;0.452;0.558;0.567;0.635;1" values="none;inline;none;inline;none;inline;none;inline;none;inline;none;inline;none;inline;inline"/></g><g style="display:none;"><path fill="none" stroke="#EB2227" stroke-width="8" stroke-linecap="round" stroke-linejoin="round" d="M269.971,123.705Q272.488,123.6 272.572,123.596 272.494,123.464 270.011,121.018 267.529,118.585 263.587,115.281 259.648,111.981 255.192,109.254 250.722,106.52 246.679,105.804 244.041,105.417 241.91,105.586 239.798,105.763 238.166,106.385 236.521,107.017 235.329,107.983 234.15,108.925 233.398,110.089 232.627,111.268 232.255,112.558 231.891,113.847 231.9,115.136 231.905,117.065 232.728,118.73 233.536,120.387 235.289,121.635 237.057,122.892 239.9,123.596 242.746,124.308 246.797,124.322 250.695,124.298 255.113,124.177 259.542,124.084 263.508,123.959 267.464,123.815 269.971,123.705"/><path fill="none" stroke="#EB2227" stroke-width="8" stroke-linecap="round" stroke-linejoin="round" d="M314.643,114.577Q314.632,113.287 314.249,111.999 313.877,110.725 313.106,109.566 312.333,108.381 311.136,107.424 309.922,106.492 308.259,105.899 306.605,105.292 304.475,105.136 302.361,104.982 299.746,105.39 295.712,106.14 291.273,108.913 286.853,111.696 282.957,115.049 279.039,118.396 276.572,120.858 274.122,123.317 274.05,123.436 274.134,123.435 276.651,123.509 279.159,123.59 283.115,123.691 287.08,123.799 291.509,123.872 295.948,123.936 299.864,123.908 303.9,123.851 306.722,123.11 309.549,122.382 311.294,121.113 313.05,119.842 313.855,118.172 314.66,116.502 314.643,114.577"/><animate attributeName="display" repeatCount="indefinite" dur="4.333s" keyTimes="0;0.067;0.077;0.25;0.26;0.433;0.442;0.625;0.635;1" values="none;inline;none;inline;none;inline;none;inline;none;none"/></g><g style="display:none;"><path fill="none" stroke="#EB2227" stroke-width="8" stroke-linecap="round" stroke-linejoin="round" d="M269.83,129.407Q272.437,129.307 272.524,129.303 272.444,129.178 269.871,126.846 267.301,124.526 263.218,121.377 259.138,118.23 254.523,115.631 249.893,113.025 245.707,112.342 242.975,111.973 240.768,112.135 238.58,112.303 236.89,112.896 235.186,113.498 233.951,114.419 232.73,115.317 231.951,116.427 231.153,117.551 230.767,118.781 230.391,120.01 230.4,121.238 230.405,123.077 231.257,124.665 232.094,126.244 233.91,127.434 235.741,128.632 238.686,129.303 241.634,129.982 245.829,129.996 249.866,129.973 254.442,129.857 259.029,129.768 263.136,129.649 267.233,129.512 269.83,129.407"/><path fill="none" stroke="#EB2227" stroke-width="8" stroke-linecap="round" stroke-linejoin="round" d="M316.093,120.734Q316.081,119.504 315.684,118.277 315.299,117.062 314.501,115.958 313.7,114.828 312.46,113.915 311.202,113.027 309.48,112.462 307.767,111.883 305.562,111.735 303.372,111.588 300.663,111.977 296.485,112.691 291.887,115.334 287.31,117.988 283.275,121.184 279.217,124.375 276.662,126.723 274.124,129.066 274.05,129.18 274.137,129.179 276.744,129.249 279.341,129.327 283.438,129.422 287.545,129.526 292.132,129.596 296.73,129.656 300.786,129.63 304.966,129.575 307.888,128.869 310.816,128.175 312.623,126.965 314.442,125.753 315.276,124.161 316.109,122.57 316.093,120.734"/><animate attributeName="display" repeatCount="indefinite" dur="4.333s" keyTimes="0;0.058;0.067;0.24;0.25;0.423;0.433;0.615;0.625;1" values="none;inline;none;inline;none;inline;none;inline;none;none"/></g><g style="display:none;"><path fill="none" stroke="#EB2227" stroke-width="8" stroke-linecap="round" stroke-linejoin="round" d="M269.754,128.448Q272.346,128.348 272.432,128.344 272.352,128.217 269.795,125.866 267.239,123.527 263.179,120.352 259.123,117.18 254.535,114.559 249.932,111.932 245.769,111.244 243.053,110.872 240.858,111.035 238.683,111.205 237.003,111.803 235.308,112.41 234.081,113.338 232.867,114.243 232.092,115.362 231.298,116.495 230.915,117.735 230.541,118.974 230.55,120.213 230.555,122.067 231.402,123.668 232.234,125.259 234.04,126.459 235.86,127.667 238.789,128.344 241.719,129.028 245.891,129.042 249.904,129.018 254.454,128.902 259.015,128.812 263.098,128.693 267.172,128.554 269.754,128.448"/><path fill="none" stroke="#EB2227" stroke-width="8" stroke-linecap="round" stroke-linejoin="round" d="M315.801,119.708Q315.79,118.468 315.395,117.23 315.012,116.006 314.219,114.892 313.422,113.754 312.189,112.833 310.939,111.938 309.227,111.368 307.523,110.785 305.331,110.635 303.154,110.487 300.461,110.879 296.306,111.599 291.735,114.264 287.184,116.939 283.172,120.162 279.137,123.379 276.597,125.745 274.074,128.108 274,128.223 274.086,128.222 276.679,128.293 279.261,128.371 283.334,128.467 287.418,128.572 291.979,128.642 296.549,128.703 300.582,128.677 304.738,128.621 307.644,127.909 310.555,127.21 312.352,125.99 314.161,124.768 314.99,123.163 315.818,121.559 315.801,119.708"/><animate attributeName="display" repeatCount="indefinite" dur="4.333s" keyTimes="0;0.048;0.058;0.231;0.24;0.413;0.423;0.606;0.615;1" values="none;inline;none;inline;none;inline;none;inline;none;none"/></g><g style="display:none;"><path fill="none" stroke="#EB2227" stroke-width="8" stroke-linecap="round" stroke-linejoin="round" d="M269.778,127.49Q272.355,127.389 272.442,127.384 272.362,127.257 269.819,124.887 267.278,122.529 263.242,119.328 259.209,116.13 254.647,113.488 250.07,110.84 245.931,110.146 243.231,109.771 241.049,109.935 238.886,110.106 237.216,110.709 235.531,111.321 234.31,112.257 233.103,113.17 232.333,114.297 231.544,115.44 231.163,116.69 230.791,117.939 230.8,119.187 230.805,121.056 231.647,122.67 232.475,124.275 234.27,125.485 236.08,126.702 238.991,127.384 241.905,128.074 246.052,128.088 250.043,128.065 254.566,127.947 259.101,127.857 263.161,127.736 267.211,127.596 269.778,127.49"/><path fill="none" stroke="#EB2227" stroke-width="8" stroke-linecap="round" stroke-linejoin="round" d="M315.561,118.682Q315.55,117.432 315.157,116.184 314.776,114.95 313.987,113.827 313.195,112.679 311.97,111.752 310.727,110.849 309.024,110.274 307.331,109.686 305.15,109.535 302.986,109.386 300.308,109.781 296.178,110.507 291.633,113.194 287.108,115.891 283.119,119.139 279.108,122.382 276.582,124.768 274.073,127.15 274,127.266 274.086,127.264 276.663,127.336 279.23,127.415 283.281,127.512 287.341,127.617 291.875,127.688 296.42,127.75 300.429,127.723 304.561,127.667 307.45,126.949 310.345,126.244 312.131,125.014 313.93,123.783 314.754,122.165 315.577,120.548 315.561,118.682"/><animate attributeName="display" repeatCount="indefinite" dur="4.333s" keyTimes="0;0.038;0.048;0.221;0.231;0.404;0.413;0.596;0.606;1" values="none;inline;none;inline;none;inline;none;inline;none;none"/></g><g style="display:none;"><path fill="none" stroke="#EB2227" stroke-width="8" stroke-linecap="round" stroke-linejoin="round" d="M269.801,126.581Q272.363,126.479 272.449,126.475 272.37,126.346 269.842,123.957 267.316,121.58 263.303,118.354 259.293,115.13 254.758,112.467 250.208,109.797 246.093,109.098 243.408,108.72 241.239,108.885 239.089,109.058 237.428,109.666 235.754,110.282 234.54,111.226 233.34,112.146 232.574,113.283 231.79,114.434 231.411,115.694 231.041,116.954 231.05,118.212 231.055,120.096 231.892,121.723 232.715,123.34 234.5,124.56 236.299,125.787 239.193,126.475 242.09,127.17 246.214,127.184 250.181,127.16 254.678,127.042 259.186,126.951 263.223,126.829 267.249,126.688 269.801,126.581"/><path fill="none" stroke="#EB2227" stroke-width="8" stroke-linecap="round" stroke-linejoin="round" d="M315.319,117.656Q315.308,116.396 314.918,115.138 314.538,113.894 313.754,112.762 312.967,111.605 311.749,110.67 310.513,109.759 308.82,109.18 307.137,108.588 304.969,108.435 302.817,108.285 300.155,108.684 296.049,109.415 291.53,112.124 287.032,114.842 283.066,118.117 279.078,121.386 276.567,123.791 274.073,126.192 274,126.308 274.085,126.307 276.648,126.379 279.2,126.459 283.227,126.557 287.263,126.663 291.771,126.734 296.289,126.796 300.276,126.769 304.383,126.713 307.256,125.989 310.133,125.279 311.909,124.039 313.697,122.798 314.517,121.166 315.335,119.536 315.319,117.656"/><animate attributeName="display" repeatCount="indefinite" dur="4.333s" keyTimes="0;0.029;0.038;0.212;0.221;0.394;0.404;0.587;0.596;1" values="none;inline;none;inline;none;inline;none;inline;none;none"/></g><g style="display:none;"><path fill="none" stroke="#EB2227" stroke-width="8" stroke-linecap="round" stroke-linejoin="round" d="M269.872,123.755Q272.389,123.65 272.473,123.646 272.395,123.514 269.911,121.068 267.43,118.635 263.487,115.331 259.548,112.03 255.092,109.304 250.622,106.57 246.579,105.854 243.942,105.467 241.811,105.636 239.698,105.813 238.066,106.435 236.421,107.067 235.229,108.033 234.05,108.975 233.298,110.139 232.527,111.318 232.155,112.608 231.791,113.897 231.8,115.186 231.805,117.115 232.628,118.78 233.436,120.436 235.189,121.685 236.957,122.942 239.801,123.646 242.647,124.358 246.698,124.372 250.595,124.348 255.014,124.227 259.443,124.133 263.408,124.009 267.364,123.864 269.872,123.755"/><path fill="none" stroke="#EB2227" stroke-width="8" stroke-linecap="round" stroke-linejoin="round" d="M314.544,114.627Q314.533,113.337 314.15,112.049 313.778,110.775 313.007,109.616 312.234,108.431 311.037,107.474 309.823,106.542 308.16,105.949 306.505,105.342 304.376,105.186 302.262,105.032 299.647,105.44 295.612,106.19 291.173,108.962 286.753,111.746 282.857,115.099 278.939,118.446 276.472,120.908 274.022,123.367 273.95,123.486 274.034,123.485 276.551,123.559 279.059,123.64 283.015,123.74 286.981,123.849 291.409,123.922 295.848,123.986 299.765,123.958 303.801,123.901 306.622,123.159 309.449,122.432 311.194,121.162 312.951,119.892 313.756,118.221 314.56,116.552 314.544,114.627"/><animate attributeName="display" repeatCount="indefinite" dur="4.333s" keyTimes="0;0.019;0.029;0.202;0.212;0.385;0.394;0.577;0.587;1" values="none;inline;none;inline;none;inline;none;inline;none;none"/></g><g style="display:none;"><path fill="none" stroke="#EB2227" stroke-width="8" stroke-linecap="round" stroke-linejoin="round" d="M269.992,120.878Q272.464,120.771 272.547,120.767 272.471,120.632 270.031,118.129 267.594,115.639 263.722,112.258 259.853,108.881 255.477,106.09 251.086,103.292 247.116,102.56 244.525,102.164 242.432,102.337 240.357,102.518 238.755,103.155 237.139,103.801 235.968,104.789 234.81,105.753 234.071,106.945 233.314,108.151 232.948,109.471 232.592,110.791 232.6,112.109 232.605,114.083 233.413,115.788 234.206,117.483 235.929,118.76 237.665,120.046 240.458,120.767 243.253,121.495 247.232,121.51 251.06,121.485 255.399,121.361 259.749,121.266 263.644,121.138 267.53,120.991 269.992,120.878"/><path fill="none" stroke="#EB2227" stroke-width="8" stroke-linecap="round" stroke-linejoin="round" d="M313.87,111.548Q313.859,110.228 313.483,108.91 313.117,107.606 312.36,106.42 311.6,105.208 310.425,104.228 309.232,103.274 307.599,102.667 305.974,102.047 303.883,101.887 301.807,101.729 299.238,102.147 295.275,102.914 290.916,105.751 286.575,108.6 282.748,112.031 278.9,115.456 276.477,117.976 274.07,120.492 274,120.614 274.082,120.613 276.555,120.688 279.018,120.771 282.903,120.874 286.798,120.985 291.148,121.06 295.507,121.125 299.354,121.097 303.318,121.038 306.089,120.28 308.866,119.535 310.58,118.236 312.305,116.936 313.096,115.226 313.885,113.518 313.87,111.548"/><animate attributeName="display" repeatCount="indefinite" dur="4.333s" keyTimes="0;0.01;0.019;0.192;0.202;0.375;0.385;0.567;0.577;1" values="none;inline;none;inline;none;inline;none;inline;none;none"/></g><g><path fill="none" stroke="#EB2227" stroke-width="8" stroke-linecap="round" stroke-linejoin="round" d="M303.35,98.65Q301.3,98.4 298.8,98.85 294.9,99.6 290.65,102.6 286.3,105.45 282.6,108.95 278.8,112.45 276.45,115.05 274.1,117.65 274,117.8 274.1,117.7 276.5,117.85 278.95,117.95 282.75,118 286.55,118.1 290.85,118.25 295.15,118.25 298.95,118.25 302.8,118.15 305.55,117.4 308.2,116.65 309.95,115.35 311.6,114 312.4,112.25 313.15,110.5 313.15,108.5 313.15,107.15 312.75,105.75 312.4,104.4 311.7,103.25 310.95,101.95 309.8,101 308.6,100 307,99.4 305.4,98.8 303.35,98.65"/><path fill="none" stroke="#EB2227" stroke-width="8" stroke-linecap="round" stroke-linejoin="round" d="M233.7,106.35Q233.3,107.65 233.3,109.05 233.3,111.1 234.15,112.85 234.9,114.5 236.55,115.85 238.25,117.15 241.05,117.95 243.8,118.6 247.65,118.7 251.4,118.6 255.7,118.55 260,118.4 263.8,118.3 267.6,118.15 270,118 272.45,117.95 272.5,117.95 272.45,117.75 270.1,115.2 267.65,112.6 263.85,109.2 260.05,105.75 255.8,102.9 251.45,100 247.6,99.3 245,98.85 242.95,99.1 240.9,99.25 239.4,99.9 237.8,100.5 236.65,101.6 235.5,102.5 234.75,103.8 234,105 233.7,106.35"/><animate attributeName="display" repeatCount="indefinite" dur="4.333s" keyTimes="0;0.01;1" values="inline;none;none"/></g><g style="display:none;"><path fill="#EB2227" d="M281.05,93L266.05,93 266.05,133.2 281.05,133.2 281.05,93"/><path fill="#EB2227" d="M281.05,141.75L266.05,141.75 266.05,226.6 281.05,226.6 281.05,141.75"/><animate attributeName="display" repeatCount="indefinite" dur="4.333s" keyTimes="0;0.163;0.183;0.346;0.365;0.529;0.558;1" values="none;inline;none;inline;none;inline;none;none"/></g><g style="display:none;"><path fill="#EB2227" d="M281.05,93.45L266.05,93.45 266.05,133.65 281.05,133.65 281.05,93.45"/><path fill="#EB2227" d="M281.05,142.2L266.05,142.2 266.05,227.05 281.05,227.05 281.05,142.2"/><animate attributeName="display" repeatCount="indefinite" dur="4.333s" keyTimes="0;0.154;0.163;0.337;0.346;0.519;0.529;1" values="none;inline;none;inline;none;inline;none;none"/></g><g style="display:none;"><path fill="#EB2227" d="M281.05,93.95L266.05,93.95 266.05,134.15 281.05,134.15 281.05,93.95"/><path fill="#EB2227" d="M281.05,142.7L266.05,142.7 266.05,227.55 281.05,227.55 281.05,142.7"/><animate attributeName="display" repeatCount="indefinite" dur="4.333s" keyTimes="0;0.144;0.154;0.327;0.337;0.51;0.519;1" values="none;inline;none;inline;none;inline;none;none"/></g><g style="display:none;"><path fill="#EB2227" d="M281.05,94.4L266.05,94.4 266.05,134.6 281.05,134.6 281.05,94.4"/><path fill="#EB2227" d="M281.05,143.15L266.05,143.15 266.05,228 281.05,228 281.05,143.15"/><animate attributeName="display" repeatCount="indefinite" dur="4.333s" keyTimes="0;0.135;0.144;0.317;0.327;0.5;0.51;1" values="none;inline;none;inline;none;inline;none;none"/></g><g style="display:none;"><path fill="#EB2227" d="M281.05,94.85L266.05,94.85 266.05,135.05 281.05,135.05 281.05,94.85"/><path fill="#EB2227" d="M281.05,143.6L266.05,143.6 266.05,228.45 281.05,228.45 281.05,143.6"/><animate attributeName="display" repeatCount="indefinite" dur="4.333s" keyTimes="0;0.125;0.135;0.308;0.317;0.49;0.5;1" values="none;inline;none;inline;none;inline;none;none"/></g><g style="display:none;"><path fill="#EB2227" d="M281.05,96.7L266.05,96.7 266.05,136.9 281.05,136.9 281.05,96.7"/><path fill="#EB2227" d="M281.05,145.45L266.05,145.45 266.05,230.3 281.05,230.3 281.05,145.45"/><animate attributeName="display" repeatCount="indefinite" dur="4.333s" keyTimes="0;0.115;0.125;0.298;0.308;0.481;0.49;1" values="none;inline;none;inline;none;inline;none;none"/></g><g style="display:none;"><path fill="#EB2227" d="M281.05,98.5L266.05,98.5 266.05,138.7 281.05,138.7 281.05,98.5"/><path fill="#EB2227" d="M281.05,147.25L266.05,147.25 266.05,232.1 281.05,232.1 281.05,147.25"/><animate attributeName="display" repeatCount="indefinite" dur="4.333s" keyTimes="0;0.106;0.115;0.288;0.298;0.471;0.481;1" values="none;inline;none;inline;none;inline;none;none"/></g><g style="display:none;"><path fill="#EB2227" d="M281.1,104.75L266.1,104.75 266.1,144.4 281.1,144.4 281.1,104.75"/><path fill="#EB2227" d="M281.1,152.85L266.1,152.85 266.1,236.55 281.1,236.55 281.1,152.85"/><animate attributeName="display" repeatCount="indefinite" dur="4.333s" keyTimes="0;0.096;0.106;0.279;0.288;0.462;0.471;1" values="none;inline;none;inline;none;inline;none;none"/></g><g style="display:none;"><path fill="#EB2227" d="M281.1,111.05L266.1,111.05 266.1,150.15 281.1,150.15 281.1,111.05"/><path fill="#EB2227" d="M281.1,158.5L266.1,158.5 266.1,241 281.1,241 281.1,158.5"/><animate attributeName="display" repeatCount="indefinite" dur="4.333s" keyTimes="0;0.087;0.096;0.269;0.279;0.452;0.462;1" values="none;inline;none;inline;none;inline;none;none"/></g><g style="display:none;"><path fill="#EB2227" d="M281.15,124.2L266.15,124.2 266.15,159.5 281.15,159.5 281.15,124.2"/><path fill="#EB2227" d="M281.15,167.05L266.15,167.05 266.15,241.55 281.15,241.55 281.15,167.05"/><animate attributeName="display" repeatCount="indefinite" dur="4.333s" keyTimes="0;0.067;0.077;0.25;0.26;0.433;0.442;0.625;0.635;1" values="none;inline;none;inline;none;inline;none;inline;none;none"/></g><g style="display:none;"><path fill="#EB2227" d="M281.15,129.9L266.15,129.9 266.15,163.55 281.15,163.55 281.15,129.9"/><path fill="#EB2227" d="M281.15,170.75L266.15,170.75 266.15,241.75 281.15,241.75 281.15,170.75"/><animate attributeName="display" repeatCount="indefinite" dur="4.333s" keyTimes="0;0.058;0.067;0.24;0.25;0.423;0.433;0.615;0.625;1" values="none;inline;none;inline;none;inline;none;inline;none;none"/></g><g style="display:none;"><path fill="#EB2227" d="M281.1,129L266.1,129 266.1,162.9 281.1,162.9 281.1,129"/><path fill="#EB2227" d="M281.1,170.15L266.1,170.15 266.1,241.75 281.1,241.75 281.1,170.15"/><animate attributeName="display" repeatCount="indefinite" dur="4.333s" keyTimes="0;0.048;0.058;0.231;0.24;0.413;0.423;0.606;0.615;1" values="none;inline;none;inline;none;inline;none;inline;none;none"/></g><g style="display:none;"><path fill="#EB2227" d="M281.1,128L266.1,128 266.1,162.2 281.1,162.2 281.1,128"/><path fill="#EB2227" d="M281.1,169.5L266.1,169.5 266.1,241.7 281.1,241.7 281.1,169.5"/><animate attributeName="display" repeatCount="indefinite" dur="4.333s" keyTimes="0;0.038;0.048;0.221;0.231;0.404;0.413;0.596;0.606;1" values="none;inline;none;inline;none;inline;none;inline;none;none"/></g><g style="display:none;"><path fill="#EB2227" d="M281.1,127.05L266.1,127.05 266.1,161.5 281.1,161.5 281.1,127.05"/><path fill="#EB2227" d="M281.1,168.85L266.1,168.85 266.1,241.65 281.1,241.65 281.1,168.85"/><animate attributeName="display" repeatCount="indefinite" dur="4.333s" keyTimes="0;0.029;0.038;0.212;0.221;0.394;0.404;0.587;0.596;1" values="none;inline;none;inline;none;inline;none;inline;none;none"/></g><g style="display:none;"><path fill="#EB2227" d="M281.05,124.25L266.05,124.25 266.05,159.55 281.05,159.55 281.05,124.25"/><path fill="#EB2227" d="M281.05,167.1L266.05,167.1 266.05,241.6 281.05,241.6 281.05,167.1"/><animate attributeName="display" repeatCount="indefinite" dur="4.333s" keyTimes="0;0.019;0.029;0.202;0.212;0.385;0.394;0.577;0.587;1" values="none;inline;none;inline;none;inline;none;inline;none;none"/></g><g style="display:none;"><path fill="#EB2227" d="M281.1,121.4L266.1,121.4 266.1,157.5 281.1,157.5 281.1,121.4"/><path fill="#EB2227" d="M281.1,165.25L266.1,165.25 266.1,241.5 281.1,241.5 281.1,165.25"/><animate attributeName="display" repeatCount="indefinite" dur="4.333s" keyTimes="0;0.01;0.019;0.192;0.202;0.375;0.385;0.567;0.577;1" values="none;inline;none;inline;none;inline;none;inline;none;none"/></g><g><path fill="#EB2227" d="M281.1,118.55L266.1,118.55 266.1,155.5 281.1,155.5 281.1,118.55"/><path fill="#EB2227" d="M281.1,163.4L266.1,163.4 266.1,241.4 281.1,241.4 281.1,163.4"/><animate attributeName="display" repeatCount="indefinite" dur="4.333s" keyTimes="0;0.01;0.077;0.087;0.183;0.192;0.26;0.269;0.365;0.375;0.442;0.452;0.558;0.567;0.635;1" values="inline;none;inline;none;inline;none;inline;none;inline;none;inline;none;inline;none;inline;inline"/></g></g></svg>