<?xml version="1.0" encoding="utf-8"?><svg xmlns:xlink="http://www.w3.org/1999/xlink" id="escena_regalo4" image-rendering="auto" baseProfile="basic" version="1.1" x="0px" y="0px" width="547" height="308" xmlns="http://www.w3.org/2000/svg"><defs><symbol id="regalo2" overflow="visible"><g id="regalo2_0.0"><g><g><path fill="none" stroke="#EB2227" stroke-width="5.05" stroke-linecap="round" stroke-linejoin="round" d="M46,12.8Q47.596,12.728 47.65,12.725 47.6,12.634 46.025,10.95 44.451,9.274 41.95,7 39.451,4.727 36.625,2.85 33.789,0.968 31.225,0.475 29.552,0.208 28.2,0.325 26.86,0.447 25.825,0.875 24.781,1.31 24.025,1.975 23.277,2.623 22.8,3.425 22.311,4.237 22.075,5.125 21.845,6.013 21.85,6.9 21.853,8.228 22.375,9.375 22.887,10.515 24,11.375 25.121,12.24 26.925,12.725 28.73,13.215 31.3,13.225 33.772,13.208 36.575,13.125 39.384,13.061 41.9,12.975 44.409,12.875 46,12.8"/><path fill="none" stroke="#EB2227" stroke-width="5.05" stroke-linecap="round" stroke-linejoin="round" d="M74.35,6.525Q74.343,5.637 74.1,4.75 73.863,3.873 73.375,3.075 72.884,2.259 72.125,1.6 71.355,0.958 70.3,0.55 69.25,0.132 67.9,0.025 66.559,-0.081 64.9,0.2 62.341,0.716 59.525,2.625 56.721,4.541 54.25,6.85 51.765,9.155 50.2,10.85 48.646,12.543 48.6,12.625 48.653,12.624 50.25,12.675 51.841,12.731 54.35,12.8 56.865,12.875 59.675,12.925 62.49,12.969 64.975,12.95 67.535,12.91 69.325,12.4 71.118,11.899 72.225,11.025 73.339,10.15 73.85,9 74.36,7.851 74.35,6.525"/></g><path fill="#FEDA00" d="M88.549,37.5Q95.799,37.5 95.799,30.25L95.799,21.25Q95.799,14 88.549,14L7.25,14Q0,14 0,21.25L0,30.25Q0,37.5 7.25,37.5L88.549,37.5"/><path fill="#EB2227" d="M53.35,13.15L43.35,13.15 43.35,37.45 53.35,37.45 53.35,13.15"/></g></g>
</symbol><symbol id="pieza4" overflow="visible"><g><g id="pieza1_0.0.0"><g><path fill="#1A94A3" d="M19.396,65.077Q16.95,67.523 16.95,70.984 16.95,74.446 19.396,76.892 21.841,79.337 25.303,79.337 28.765,79.337 31.21,76.892 33.656,74.446 33.656,70.984 33.656,67.523 31.21,65.077 28.765,62.631 25.303,62.631 21.841,62.631 19.396,65.077"/><path fill="#1A94A3" d="M47.146,33.827Q44.7,36.273 44.7,39.734 44.7,43.196 47.146,45.642 49.591,48.087 53.053,48.087 56.515,48.087 58.96,45.642 61.406,43.196 61.406,39.734 61.406,36.273 58.96,33.827 56.515,31.381 53.053,31.381 49.591,31.381 47.146,33.827"/><path fill="#1A94A3" d="M19.396,2.427Q16.95,4.873 16.95,8.334 16.95,11.796 19.396,14.242 21.841,16.687 25.303,16.687 28.765,16.687 31.21,14.242 33.656,11.796 33.656,8.334 33.656,4.873 31.21,2.427 28.765,-0.019 25.303,-0.019 21.841,-0.019 19.396,2.427"/><path fill="#1A94A3" d="M43.647,11.191L7.525,11.191Q7.004,11.191 6.5,11.256 5.999,11.323 5.522,11.454 5.043,11.59 4.59,11.783 4.136,11.972 3.716,12.216 2.876,12.708 2.192,13.392 1.508,14.076 1.016,14.916 0.772,15.336 0.583,15.79 0.39,16.243 0.254,16.722 0.123,17.199 0.056,17.7 -0.009,18.204 -0.009,18.725L-0.009,31.951 0.009,31.961Q0.254,31.859 0.508,31.772 0.759,31.685 1.016,31.612 1.275,31.543 1.543,31.49 1.813,31.434 2.088,31.396 2.358,31.359 2.634,31.34 2.915,31.321 3.198,31.321 4.354,31.326 5.418,31.622 6.477,31.915 7.403,32.459 8.331,33.007 9.087,33.767 9.846,34.523 10.394,35.45 10.938,36.382 11.232,37.445 11.527,38.504 11.533,39.655 11.527,40.811 11.232,41.875 10.938,42.938 10.394,43.869 9.846,44.797 9.087,45.553 8.33,46.308 7.403,46.851 6.477,47.399 5.418,47.698 4.354,47.988 3.198,47.989 1.493,47.979 0.009,47.359L-0.009,47.369 -0.009,60.594Q-0.009,61.116 0.056,61.62 0.123,62.121 0.254,62.598 0.39,63.077 0.583,63.529 0.772,63.978 1.016,64.395 1.508,65.239 2.192,65.928 2.876,66.611 3.716,67.104 4.137,67.348 4.59,67.536 5.043,67.73 5.522,67.866 5.999,67.997 6.5,68.063 7.004,68.129 7.525,68.129L43.647,68.129Q44.168,68.129 44.672,68.063 45.174,67.997 45.651,67.866 46.13,67.73 46.582,67.536 47.035,67.348 47.457,67.104 48.296,66.611 48.98,65.928 49.663,65.239 50.156,64.395 50.4,63.978 50.589,63.529 50.783,63.077 50.918,62.598 51.05,62.121 51.116,61.62 51.182,61.116 51.182,60.594L51.182,18.725Q51.17,17.154 50.589,15.79 50.009,14.427 48.98,13.392 47.945,12.363 46.582,11.783 45.218,11.202 43.647,11.191"/></g></g><g id="pieza1_0.0.1"><g><path fill="#FEDA00" d="M20.957,32.668Q20.756,32.499 20.534,32.358 20.312,32.22 20.073,32.113 19.836,32.007 19.584,31.935 19.332,31.861 19.066,31.822L8.662,30.307 4.016,20.882Q3.598,20.056 2.877,19.527 2.151,18.997 1.25,18.841L1.241,18.85 1.241,31.436 1.25,31.446 1.692,31.361 3.075,31.239Q4.226,31.244 5.285,31.54 6.349,31.833 7.28,32.377 8.207,32.921 8.963,33.675 9.722,34.436 10.271,35.368 10.815,36.295 11.108,37.353 11.403,38.417 11.409,39.573 11.403,40.724 11.108,41.783 10.815,42.846 10.271,43.778 9.722,44.705 8.963,45.461 8.207,46.221 7.28,46.769 6.348,47.313 5.285,47.606 4.226,47.901 3.075,47.907L2.605,47.888 1.25,47.7 1.241,47.71 1.241,55.367 9.932,59.929Q10.207,60.075 10.497,60.173 10.789,60.268 11.089,60.315L11.682,60.362Q11.88,60.362 12.077,60.343 12.272,60.325 12.463,60.286 12.653,60.245 12.839,60.183 13.026,60.122 13.206,60.042 13.388,59.963 13.563,59.863 13.737,59.764 13.902,59.647 14.075,59.519 14.231,59.374 14.391,59.231 14.532,59.073 14.668,58.915 14.786,58.744 14.905,58.57 15.003,58.386 15.102,58.203 15.181,58.01 15.263,57.816 15.322,57.615 15.376,57.416 15.407,57.21 15.442,57.005 15.454,56.796 15.466,56.586 15.454,56.373 15.443,56.161 15.407,55.95L13.629,45.593 21.154,38.256Q21.31,38.108 21.446,37.946 21.579,37.782 21.691,37.607 21.804,37.429 21.898,37.24 21.993,37.051 22.067,36.854 22.139,36.66 22.189,36.459 22.238,36.259 22.264,36.055 22.29,35.85 22.293,35.641 22.299,35.429 22.283,35.218 22.262,35.01 22.217,34.804 22.177,34.595 22.114,34.39 22.027,34.131 21.907,33.891 21.791,33.655 21.644,33.44 21.497,33.221 21.324,33.026 21.153,32.834 20.957,32.668"/><path fill="#FEDA00" d="M0.009,31.935L1.392,31.493 1.383,18.897 1.072,18.85Q0.914,18.838 0.753,18.841 0.557,18.839 0.367,18.859 0.182,18.883 -0.009,18.935L-0.009,31.916 0,31.935 0.009,31.935"/><path fill="#FEDA00" d="M0.009,55.396L0.753,55.01 1.373,55.33 1.392,55.321 1.383,47.664 0.009,47.241 -0.009,47.25 0.009,55.396"/></g></g></g>
</symbol><symbol id="pieza5" overflow="visible"><g><g id="pieza2_0.0.0"><g><path fill="#1A94A3" d="M19.396,65.077Q16.95,67.523 16.95,70.984 16.95,74.446 19.396,76.892 21.841,79.337 25.303,79.337 28.765,79.337 31.21,76.892 33.656,74.446 33.656,70.984 33.656,67.523 31.21,65.077 28.765,62.631 25.303,62.631 21.841,62.631 19.396,65.077"/><path fill="#1A94A3" d="M19.396,2.427Q16.95,4.873 16.95,8.334 16.95,11.796 19.396,14.242 21.841,16.687 25.303,16.687 28.765,16.687 31.21,14.242 33.656,11.796 33.656,8.334 33.656,4.873 31.21,2.427 28.765,-0.019 25.303,-0.019 21.841,-0.019 19.396,2.427"/><path fill="#1A94A3" d="M43.647,11.191L7.525,11.191Q7.004,11.191 6.5,11.256 5.999,11.323 5.522,11.454 5.043,11.59 4.59,11.783 4.136,11.972 3.716,12.216 2.876,12.708 2.192,13.392 1.508,14.076 1.016,14.916 0.772,15.336 0.583,15.79 0.39,16.243 0.254,16.722 0.123,17.199 0.056,17.7 -0.009,18.204 -0.009,18.725L-0.009,31.951 0.009,31.961Q0.254,31.859 0.508,31.772 0.759,31.685 1.016,31.612 1.275,31.543 1.543,31.49 1.813,31.434 2.088,31.396 2.358,31.359 2.634,31.34 2.915,31.321 3.198,31.321 4.354,31.326 5.418,31.622 6.476,31.915 7.403,32.459 8.33,33.007 9.087,33.767 9.846,34.523 10.394,35.45 10.938,36.382 11.232,37.445 11.527,38.504 11.533,39.655 11.527,40.811 11.232,41.875 10.938,42.938 10.394,43.869 9.846,44.797 9.087,45.553 8.33,46.308 7.403,46.851 6.476,47.399 5.418,47.698 4.354,47.988 3.198,47.989 1.493,47.979 0.009,47.359L-0.009,47.369 -0.009,60.594Q-0.009,61.116 0.056,61.62 0.123,62.121 0.254,62.598 0.39,63.077 0.583,63.529 0.772,63.978 1.016,64.395 1.508,65.239 2.192,65.928 2.876,66.611 3.716,67.104 4.137,67.348 4.59,67.536 5.043,67.73 5.522,67.866 5.999,67.997 6.5,68.063 7.004,68.129 7.525,68.129L43.647,68.129Q44.168,68.129 44.672,68.063 45.174,67.997 45.651,67.866 46.13,67.73 46.582,67.536 47.035,67.348 47.457,67.104 48.296,66.611 48.98,65.928 49.663,65.239 50.156,64.395 50.4,63.978 50.589,63.529 50.783,63.077 50.918,62.598 51.05,62.121 51.116,61.62 51.182,61.116 51.182,60.594L51.182,18.725Q51.17,17.154 50.589,15.79 50.009,14.427 48.98,13.392 47.945,12.363 46.582,11.783 45.218,11.202 43.647,11.191"/></g></g><g id="pieza2_0.0.1"><path fill="#FEDA00" d="M50.3,18.85Q50.125,18.894 49.95,18.95L49.95,18.85Q49.75,18.9 49.55,18.95 49.35,19 49.15,19.1 48.95,19.2 48.75,19.3 48.6,19.4 48.4,19.55 48.05,19.8 47.8,20.15 47.65,20.3 47.55,20.5 47.4,20.65 47.3,20.85L42.65,30.3 32.25,31.8Q32.05,31.85 31.85,31.9 31.65,31.95 31.45,32 31.25,32.1 31.1,32.2 30.9,32.25 30.7,32.4 30.55,32.5 30.4,32.65 30.2,32.75 30.1,32.9 29.95,33.05 29.8,33.25 29.7,33.4 29.6,33.6 29.45,33.75 29.4,33.95 29.3,34.15 29.2,34.35 29.15,34.55 29.15,34.8 29.05,34.95 29.05,35.2 29.05,35.4 29.05,35.6 29.05,35.8 29.05,36.05 29.1,36.25 29.15,36.45 29.2,36.65 29.3,36.85 29.35,37 29.45,37.2 29.5,37.4 29.65,37.6 29.75,37.75 29.9,37.95 30.05,38.1 30.2,38.25L37.7,45.55 35.95,55.95Q35.9,56.15 35.9,56.35 35.85,56.55 35.9,56.8 35.9,57 35.95,57.2 35.95,57.4 36,57.6 36.05,57.8 36.15,58 36.25,58.15 36.35,58.35 36.4,58.55 36.55,58.7 36.65,58.9 36.8,59.05 36.95,59.2 37.1,59.35 37.25,59.5 37.45,59.6 37.6,59.75 37.8,59.85 37.95,59.95 38.15,60.05 38.35,60.1 38.55,60.2 38.75,60.25 38.95,60.3 39.15,60.3 39.3,60.35 39.45,60.35 39.65,60.35L39.8,60.35Q40,60.35 40.2,60.3 40.4,60.25 40.6,60.2 40.8,60.15 41,60.1 41.2,60 41.4,59.9L49.95,55.4 49.95,55.375 50.65,55 51.25,55.35 51.3,55.3 51.3,47.925 52.55,48.1 53,48.1Q54.15,48.1 55.25,47.8 56.3,47.5 57.25,47 58.2,46.4 58.95,45.65 59.7,44.9 60.25,43.95 60.8,43.05 61.1,41.95 61.4,40.9 61.4,39.75 61.4,38 60.75,36.5 60.1,34.95 58.95,33.85 57.8,32.7 56.3,32.05 54.75,31.4 53,31.4L51.65,31.5Q51.512,31.535 51.35,31.575L51.35,31.4 51.3,31.4 51.3,18.9 50.95,18.85Q50.8,18.85 50.65,18.85 50.45,18.85 50.3,18.85"/></g></g>
</symbol><symbol id="regalo4" overflow="visible"><g id="regalo_0.0"><g><g><path fill="none" stroke="#EB2227" stroke-width="5.05" stroke-linecap="round" stroke-linejoin="round" d="M46,12.8Q47.596,12.728 47.65,12.725 47.6,12.634 46.025,10.95 44.451,9.274 41.95,7 39.451,4.727 36.625,2.85 33.789,0.968 31.225,0.475 29.552,0.208 28.2,0.325 26.86,0.447 25.825,0.875 24.781,1.31 24.025,1.975 23.277,2.623 22.8,3.425 22.311,4.237 22.075,5.125 21.845,6.013 21.85,6.9 21.853,8.228 22.375,9.375 22.887,10.515 24,11.375 25.121,12.24 26.925,12.725 28.73,13.215 31.3,13.225 33.772,13.208 36.575,13.125 39.384,13.061 41.9,12.975 44.409,12.875 46,12.8"/><path fill="none" stroke="#EB2227" stroke-width="5.05" stroke-linecap="round" stroke-linejoin="round" d="M74.35,6.55Q74.35,5.65 74.1,4.75 73.85,3.85 73.4,3.1 72.9,2.25 72.15,1.6 71.35,0.95 70.3,0.55 69.25,0.15 67.9,0.05 66.55,-0.1 64.9,0.2 62.35,0.7 59.55,2.65 56.7,4.55 54.25,6.85 51.75,9.15 50.2,10.85 48.65,12.55 48.6,12.65 48.65,12.6 50.25,12.7 51.85,12.75 54.35,12.8 56.85,12.85 59.7,12.95 62.5,12.95 65,12.95 67.55,12.9 69.35,12.4 71.1,11.9 72.25,11.05 73.35,10.15 73.85,9 74.35,7.85 74.35,6.55"/></g><path fill="#FEDA00" d="M89.099,42.525L7.1,42.525 7.075,42.55 7.075,85.474Q7.076,86.059 7.15,86.624 7.226,87.188 7.375,87.724 7.518,88.252 7.725,88.749 7.932,89.255 8.2,89.724 8.485,90.195 8.825,90.624 9.149,91.047 9.525,91.424 9.902,91.8 10.325,92.124 10.755,92.452 11.225,92.724 11.694,93.005 12.2,93.224 12.698,93.432 13.225,93.574 13.761,93.723 14.325,93.799 14.89,93.874 15.475,93.874L80.749,93.874Q81.321,93.874 81.874,93.799 82.437,93.723 82.974,93.574 83.514,93.432 84.024,93.224 84.517,93.005 84.974,92.724 85.444,92.452 85.874,92.124 86.297,91.8 86.674,91.424 87.062,91.047 87.399,90.624 87.727,90.195 87.999,89.724 88.267,89.255 88.474,88.749 88.693,88.252 88.849,87.724 88.998,87.188 89.074,86.624 89.148,86.059 89.149,85.474L89.149,42.55 89.099,42.525"/><path fill="#FEDA00" d="M88.549,37.5Q95.799,37.5 95.799,30.25L95.799,21.25Q95.799,14 88.549,14L7.25,14Q0,14 0,21.25L0,30.25Q0,37.5 7.25,37.5L88.549,37.5"/><path fill="#EB2227" d="M53.3,42.65L43.4,42.65 43.4,93.95 53.3,93.95 53.3,42.65"/><path fill="#EB2227" d="M53.35,13.15L43.35,13.15 43.35,37.45 53.35,37.45 53.35,13.15"/></g></g>
</symbol></defs><g id="Scene_1" overflow="visible"><path fill="#FFF" d="M546.951,14.879Q546.951,-0.012 528.075,-0.012L18.855,-0.012Q-0.021,-0.012 -0.021,14.879L-0.021,292.766Q-0.021,307.656 18.855,307.656L528.075,307.656Q546.951,307.656 546.951,292.766L546.951,14.879"/><g style="display:none;"><path fill="#FEDA00" d="M213.461,189.65Q213.461,194.94 230.875,198.695 248.289,202.45 272.857,202.45 297.425,202.45 314.839,198.695 332.254,194.94 332.254,189.65 332.254,184.361 314.839,180.605 297.425,176.85 272.857,176.85 248.289,176.85 230.875,180.605 213.461,184.361 213.461,189.65"/><use xlink:href="#regalo4" transform="matrix(1.252 0 0 1.252 212.75 167.6)"/><animate attributeName="display" repeatCount="indefinite" dur="4.375s" keyTimes="0;0.39;0.4;1" values="none;inline;none;none"/></g><g><use xlink:href="#regalo4" transform="matrix(1.252 0 0 1.252 212.75 167.6)"><animateTransform attributeName="transform" additive="replace" type="translate" dur="4.375s" keyTimes="0;1" values="0,0;0,0" fill="freeze"/><animateTransform attributeName="transform" additive="sum" type="translate" repeatCount="indefinite" dur="4.375s" keyTimes="0;0.01;0.019;0.029;0.038;0.048;0.057;0.067;0.076;0.077;0.086;0.095;0.105;0.114;0.124;0.133;0.143;0.152;0.162;0.163;0.171;0.181;0.19;0.2;0.21;0.219;0.229;0.238;0.239;0.247;0.248;1" values="272.676,227.965;272.685,229.257;272.646,230.722;272.672,232.084;272.727,232.76;272.73,233.38;272.824,230.783;272.676,227.965;272.676,227.965;272.696,224.254;272.727,219.799;272.69,215.31;272.69,213.86;272.69,212.396;272.69,211.996;272.69,211.528;272.69,211.128;272.69,210.76;272.69,210.76;272.676,227.965;272.685,229.257;272.646,230.722;272.672,232.084;272.692,232.427;272.711,232.936;272.73,233.38;272.676,227.965;272.676,227.965;272.696,224.254;272.727,219.799;0;0" calcMode="discrete"/><animateTransform attributeName="transform" additive="sum" type="translate" repeatCount="indefinite" dur="4.375s" keyTimes="0;0.248;0.257;0.267;0.276;0.286;0.295;0.305;0.314;0.324;0.325;0.333;0.343;0.352;0.362;0.371;0.381;1" values="0;272.727,219.799;272.69,215.31;272.69,213.86;272.69,212.396;272.69,211.996;272.69,211.528;272.69,211.128;272.69,210.76;272.69,210.76;272.676,227.965;272.685,229.257;272.646,230.722;272.672,232.084;272.692,232.427;272.711,232.936;272.73,233.38;272.73,233.38" calcMode="discrete"/><animateTransform attributeName="transform" additive="sum" type="scale" repeatCount="indefinite" dur="4.375s" keyTimes="0;0.01;0.019;0.029;0.038;0.048;0.057;0.067;0.076;0.077;0.086;0.095;0.162;0.163;0.171;0.181;0.19;0.2;0.21;0.219;0.229;0.238;0.239;0.247;0.248;1" values="1.252,1.252;1.276,1.224;1.299,1.197;1.322,1.169;1.334,1.155;1.345,1.141;1.299,1.197;1.252,1.252;1.252,1.252;1.197,1.325;1.178,1.344;1.159,1.362;1.159,1.362;1.252,1.252;1.276,1.224;1.299,1.197;1.322,1.169;1.33,1.159;1.337,1.15;1.345,1.141;1.252,1.252;1.252,1.252;1.197,1.325;1.178,1.344;1;1" calcMode="discrete"/><animateTransform attributeName="transform" additive="sum" type="scale" repeatCount="indefinite" dur="4.375s" keyTimes="0;0.248;0.257;0.324;0.325;0.333;0.343;0.352;0.362;0.371;0.381;1" values="1;1.178,1.344;1.159,1.362;1.159,1.362;1.252,1.252;1.276,1.224;1.299,1.197;1.322,1.169;1.33,1.159;1.337,1.15;1.345,1.141;1.345,1.141" calcMode="discrete"/><animateTransform attributeName="transform" additive="sum" type="translate" repeatCount="indefinite" dur="4.375s" keyTimes="0;0.01;0.019;0.029;0.038;0.048;0.057;0.067;0.076;0.077;0.086;0.095;0.105;0.114;0.124;0.133;0.143;0.152;0.162;0.171;0.181;0.19;0.2;0.21;0.219;0.229;0.238;0.239;0.247;0.248;1" values="-47.85,-48.2;-47.85,-48.15;-47.85,-48.2;-47.9,-48.25;-47.9,-48.25;-47.9,-48.2;-47.95,-48.25;-47.85,-48.2;-47.85,-48.2;-47.85,-48.15;-47.9,-48.15;-47.85,-48.2;-47.85,-48.2;-47.85,-48.3;-47.85,-48.3;-47.85,-48.25;-47.85,-48.25;-47.85,-48.2;-47.85,-48.2;-47.85,-48.15;-47.85,-48.2;-47.9,-48.25;-47.9,-48.2;-47.9,-48.25;-47.9,-48.2;-47.85,-48.2;-47.85,-48.2;-47.85,-48.15;-47.9,-48.15;0;0" calcMode="discrete"/><animateTransform attributeName="transform" additive="sum" type="translate" repeatCount="indefinite" dur="4.375s" keyTimes="0;0.248;0.257;0.267;0.276;0.286;0.295;0.305;0.314;0.324;0.333;0.343;0.352;0.362;0.371;0.381;1" values="0;-47.9,-48.15;-47.85,-48.2;-47.85,-48.2;-47.85,-48.3;-47.85,-48.3;-47.85,-48.25;-47.85,-48.25;-47.85,-48.2;-47.85,-48.2;-47.85,-48.15;-47.85,-48.2;-47.9,-48.25;-47.9,-48.2;-47.9,-48.25;-47.9,-48.2;-47.9,-48.2" calcMode="discrete"/></use><animate attributeName="display" repeatCount="indefinite" dur="4.375s" keyTimes="0;0.39;1" values="inline;none;none"/></g><g style="display:none;"><use xlink:href="#pieza4" transform="matrix(0.965 0 0 0.965 275.7 107.7)"/><use xlink:href="#pieza5" transform="matrix(0.965 0 0 0.965 219.45 107.7)"/><animate attributeName="display" repeatCount="indefinite" dur="4.375s" keyTimes="0;0.571;0.581;1" values="none;inline;none;none"/></g><g style="display:none;"><g id="Tween_5" transform="matrix(1 0 0 1 277.2 146)"><g><use xlink:href="#pieza4" transform="matrix(0.965 0 0 0.965 2.4 -38.249)"/><use xlink:href="#pieza5" transform="matrix(0.965 0 0 0.965 -61.549 -38.249)"/></g></g><animate attributeName="display" repeatCount="indefinite" dur="4.375s" keyTimes="0;0.552;0.571;1" values="none;inline;none;none"/></g><g style="display:none;"><g id="Tween_4" transform="matrix(1 0 0 1 277.2 144.85)"><animateTransform attributeName="transform" additive="replace" type="translate" repeatCount="indefinite" dur="4.375s" keyTimes="0;0.524;0.533;0.543;1" values="277.2,144.85;277.2,144.85;277.2,145.25;277.2,145.6;277.2,145.6" calcMode="discrete"/><g><use xlink:href="#pieza4" transform="matrix(0.921 0.29 -0.29 0.921 38.1 -44.149)"/><use xlink:href="#pieza5" transform="matrix(0.919 -0.294 0.294 0.919 -94.599 -28.499)"/></g></g><animate attributeName="display" repeatCount="indefinite" dur="4.375s" keyTimes="0;0.524;0.552;1" values="none;inline;none;none"/></g><g style="display:none;"><g id="Tween_3" transform="matrix(1 0 0 1 277.2 144.85)"><g><use xlink:href="#pieza4" transform="matrix(0.921 0.29 -0.29 0.921 35.7 -44.149)"/><use xlink:href="#pieza5" transform="matrix(0.919 -0.294 0.294 0.919 -92.199 -28.499)"/></g></g><animate attributeName="display" repeatCount="indefinite" dur="4.375s" keyTimes="0;0.476;0.524;1" values="none;inline;none;none"/></g><g style="display:none;"><g id="Tween_2" transform="matrix(1 0 0 1 278.05 141.4)"><g><use xlink:href="#pieza4" transform="matrix(0.954 0.3 -0.3 0.954 36.95 -45.649)"/><use xlink:href="#pieza5" transform="matrix(0.952 -0.304 0.304 0.952 -95.449 -29.499)"/></g></g><animate attributeName="display" repeatCount="indefinite" dur="4.375s" keyTimes="0;0.448;0.476;1" values="none;inline;none;none"/></g><g style="display:none;"><g id="Tween_1" transform="matrix(1 0 0 1 275.4 228.8)"><animateTransform attributeName="transform" additive="replace" type="translate" repeatCount="indefinite" dur="4.375s" keyTimes="0;0.41;0.419;0.429;0.438;1" values="275.4,228.8;275.4,228.8;276.05,206.95;276.75,185.1;277.4,163.25;277.4,163.25" calcMode="discrete"/><g><use xlink:href="#pieza4" transform="matrix(0.735 0 0 0.735 1.8 -29.099)"/><use xlink:href="#pieza5" transform="matrix(0.735 0 0 0.735 -46.849 -29.099)"/></g></g><animate attributeName="display" repeatCount="indefinite" dur="4.375s" keyTimes="0;0.41;0.448;1" values="none;inline;none;none"/></g><g style="display:none;"><g id="regalo3" transform="matrix(1.195 0 0 1.308 215.75 162.4)"><animateTransform attributeName="transform" additive="replace" type="translate" repeatCount="indefinite" dur="4.375s" keyTimes="0;0.428;0.429;1" values="272.94,225.427;272.94,225.427;272.676,227.965;272.676,227.965" calcMode="discrete"/><animateTransform attributeName="transform" additive="sum" type="scale" repeatCount="indefinite" dur="4.375s" keyTimes="0;0.428;0.429;1" values="1.195,1.308;1.195,1.308;1.252,1.252;1.252,1.252" calcMode="discrete"/><animateTransform attributeName="transform" additive="sum" type="translate" repeatCount="indefinite" dur="4.375s" keyTimes="0;1" values="-47.85,-48.2;-47.85,-48.2" calcMode="discrete"/><g id="regalo1_0.0"><g><path fill="#FEDA00" d="M89.099,42.525L7.1,42.525 7.075,42.55 7.075,85.474Q7.076,86.059 7.15,86.624 7.226,87.188 7.375,87.724 7.518,88.252 7.725,88.749 7.932,89.255 8.2,89.724 8.485,90.195 8.825,90.624 9.149,91.047 9.525,91.424 9.902,91.8 10.325,92.124 10.755,92.452 11.225,92.724 11.694,93.005 12.2,93.224 12.698,93.432 13.225,93.574 13.761,93.723 14.325,93.799 14.89,93.874 15.475,93.874L80.749,93.874Q81.321,93.874 81.874,93.799 82.437,93.723 82.974,93.574 83.514,93.432 84.024,93.224 84.517,93.005 84.974,92.724 85.444,92.452 85.874,92.124 86.297,91.8 86.674,91.424 87.062,91.047 87.399,90.624 87.727,90.195 87.999,89.724 88.267,89.255 88.474,88.749 88.693,88.252 88.849,87.724 88.998,87.188 89.074,86.624 89.148,86.059 89.149,85.474L89.149,42.55 89.099,42.525"/><path fill="#EB2227" d="M53.3,42.65L43.4,42.65 43.4,93.95 53.3,93.95 53.3,42.65"/></g></g></g><animate attributeName="display" repeatCount="indefinite" dur="4.375s" keyTimes="0;0.4;1" values="none;inline;inline"/></g><g style="display:none;"><use xlink:href="#regalo2" transform="matrix(1.071 -0.378 0.435 1.233 202.85 166.25)"><animateTransform attributeName="transform" additive="replace" type="translate" repeatCount="indefinite" dur="4.375s" keyTimes="0;0.41;0.419;0.429;0.438;0.448;0.457;0.476;0.477;0.495;0.496;1" values="275.083,207.411;275.083,207.411;261.38,187.229;247.646,166.932;223.13,185.786;198.461,204.776;173.777,223.564;173.777,223.564;165.137,249.128;165.137,249.128;173.777,223.564;173.777,223.564" calcMode="discrete"/><animateTransform attributeName="transform" additive="sum" type="rotate" repeatCount="indefinite" dur="4.375s" keyTimes="0;0.41;0.419;0.429;0.438;0.448;0.457;0.476;0.477;0.495;0.496;1" values="-19.438,0,0;-19.438,0,0;-44.095,0,0;-68.582,0,0;-98.299,0,0;-128.33,0,0;-158.134,0,0;-158.134,0,0;-166.581,0,0;-166.581,0,0;-158.134,0,0;-158.134,0,0" calcMode="discrete"/><animateTransform attributeName="transform" additive="sum" type="skewX" repeatCount="indefinite" dur="4.375s" keyTimes="0;0.41;0.419;0.429;0.438;0.448;0.457;1" values="0.002;0.002;-0.002;0.001;0.001;-0.001;0.001;0.001" calcMode="discrete"/><animateTransform attributeName="transform" additive="sum" type="scale" repeatCount="indefinite" dur="4.375s" keyTimes="0;0.41;0.419;0.429;0.438;0.448;0.457;0.476;0.477;0.495;0.496;1" values="1.134,1.306;1.134,1.306;1.161,1.303;1.194,1.306;1.194,1.306;1.191,1.303;1.194,1.306;1.194,1.306;1.194,1.307;1.194,1.307;1.194,1.306;1.194,1.306" calcMode="discrete"/><animateTransform attributeName="transform" additive="sum" type="translate" repeatCount="indefinite" dur="4.375s" keyTimes="0;0.41;0.419;0.429;0.438;0.448;0.457;0.476;0.477;0.495;0.496;1" values="-47.9,-48.05;-47.9,-48.05;-47.9,-48.1;-47.95,-48.15;-47.95,-48.2;-47.85,-48.25;-47.8,-48.15;-47.8,-48.15;-46.25,-26.75;-46.25,-26.75;-47.8,-48.15;-47.8,-48.15" calcMode="discrete"/></use><animate attributeName="display" repeatCount="indefinite" dur="4.375s" keyTimes="0;0.41;1" values="none;inline;inline"/></g><g style="display:none;"><path fill="#FEDA00" d="M215.951,187.5Q215.951,194.05 232.618,198.7 249.285,203.35 272.799,203.35 296.313,203.35 312.979,198.7 329.646,194.05 329.646,187.5 329.646,180.95 312.979,176.3 296.313,171.65 272.799,171.65 249.285,171.65 232.618,176.3 215.951,180.95 215.951,187.5"/><use xlink:href="#regalo2" transform="matrix(1.195 0 0 1.308 215.75 162.4)"/><animate attributeName="display" repeatCount="indefinite" dur="4.375s" keyTimes="0;0.4;0.41;1" values="none;inline;none;none"/></g><g style="display:none;"><g id="pieza3" transform="matrix(0.936 0 0 1.027 224.7 104.4)"><animateTransform attributeName="transform" additive="replace" type="translate" repeatCount="indefinite" dur="4.375s" keyTimes="0;0.59;0.591;1" values="276.772,145.08;276.772,145.08;276.816,145.124;276.816,145.124" calcMode="discrete"/><animateTransform attributeName="transform" additive="sum" type="scale" repeatCount="indefinite" dur="4.375s" keyTimes="0;0.59;0.591;1" values="0.936,1.027;0.936,1.027;0.965,0.965;0.965,0.965" calcMode="discrete"/><animateTransform attributeName="transform" additive="sum" type="translate" repeatCount="indefinite" dur="4.375s" keyTimes="0;0.59;0.591;1" values="-55.65,-39.6;-55.65,-39.6;-55.6,-39.55;-55.6,-39.55" calcMode="discrete"/><g><g id="pieza3_0.0.0"><g><path fill="#1A94A3" d="M69.396,65.077Q66.95,67.523 66.95,70.984 66.95,74.446 69.396,76.892 71.841,79.337 75.303,79.337 78.765,79.337 81.21,76.892 83.656,74.446 83.656,70.984 83.656,67.523 81.21,65.077 78.765,62.631 75.303,62.631 71.841,62.631 69.396,65.077"/><path fill="#1A94A3" d="M96.996,33.877Q94.55,36.323 94.55,39.784 94.55,43.246 96.996,45.692 99.441,48.137 102.903,48.137 106.365,48.137 108.81,45.692 111.256,43.246 111.256,39.784 111.256,36.323 108.81,33.877 106.365,31.431 102.903,31.431 99.441,31.431 96.996,33.877"/><path fill="#1A94A3" d="M69.396,2.427Q66.95,4.873 66.95,8.334 66.95,11.796 69.396,14.242 71.841,16.687 75.303,16.687 78.765,16.687 81.21,14.242 83.656,11.796 83.656,8.334 83.656,4.873 81.21,2.427 78.765,-0.019 75.303,-0.019 71.841,-0.019 69.396,2.427"/><path fill="#1A94A3" d="M93.447,11.391L57.325,11.391Q56.804,11.391 56.3,11.456 55.799,11.523 55.322,11.654 54.843,11.79 54.39,11.983 53.936,12.172 53.516,12.416 52.676,12.908 51.992,13.592 51.308,14.276 50.816,15.116 50.572,15.536 50.383,15.99 50.19,16.443 50.054,16.922 49.923,17.399 49.856,17.9 49.791,18.404 49.791,18.925L49.791,32.151 49.809,32.161Q50.054,32.059 50.308,31.972 50.559,31.885 50.816,31.812 51.075,31.743 51.343,31.69 51.613,31.634 51.888,31.596 52.158,31.559 52.434,31.54 52.715,31.521 52.998,31.521 54.154,31.526 55.218,31.822 56.277,32.115 57.203,32.659 58.131,33.207 58.887,33.967 59.646,34.723 60.194,35.65 60.738,36.582 61.032,37.645 61.327,38.704 61.333,39.855 61.327,41.011 61.032,42.075 60.738,43.138 60.194,44.069 59.646,44.997 58.887,45.753 58.13,46.508 57.203,47.051 56.277,47.599 55.218,47.898 54.154,48.188 52.998,48.189 51.293,48.179 49.809,47.559L49.791,47.569 49.791,60.794Q49.791,61.316 49.856,61.82 49.923,62.321 50.054,62.798 50.19,63.277 50.383,63.729 50.572,64.178 50.816,64.595 51.308,65.439 51.992,66.128 52.676,66.811 53.516,67.304 53.937,67.548 54.39,67.736 54.843,67.93 55.322,68.066 55.799,68.197 56.3,68.263 56.804,68.329 57.325,68.329L93.447,68.329Q93.968,68.329 94.472,68.263 94.974,68.197 95.451,68.066 95.93,67.93 96.382,67.736 96.835,67.548 97.257,67.304 98.096,66.811 98.78,66.128 99.463,65.439 99.956,64.595 100.2,64.178 100.389,63.729 100.583,63.277 100.718,62.798 100.85,62.321 100.916,61.82 100.982,61.316 100.982,60.794L100.982,18.925Q100.97,17.354 100.389,15.99 99.809,14.627 98.78,13.592 97.745,12.563 96.382,11.983 95.018,11.402 93.447,11.391"/></g></g><g id="pieza3_0.0.1"><g><path fill="#1A94A3" d="M19.496,65.077Q17.05,67.523 17.05,70.984 17.05,74.446 19.496,76.892 21.941,79.337 25.403,79.337 28.865,79.337 31.31,76.892 33.756,74.446 33.756,70.984 33.756,67.523 31.31,65.077 28.865,62.631 25.403,62.631 21.941,62.631 19.496,65.077"/><path fill="#1A94A3" d="M47.146,33.877Q44.7,36.323 44.7,39.784 44.7,43.246 47.146,45.692 49.591,48.137 53.053,48.137 56.515,48.137 58.96,45.692 61.406,43.246 61.406,39.784 61.406,36.323 58.96,33.877 56.515,31.431 53.053,31.431 49.591,31.431 47.146,33.877"/><path fill="#1A94A3" d="M19.496,2.427Q17.05,4.873 17.05,8.334 17.05,11.796 19.496,14.242 21.941,16.687 25.403,16.687 28.865,16.687 31.31,14.242 33.756,11.796 33.756,8.334 33.756,4.873 31.31,2.427 28.865,-0.019 25.403,-0.019 21.941,-0.019 19.496,2.427"/><path fill="#1A94A3" d="M43.647,11.391L7.525,11.391Q7.004,11.391 6.5,11.456 5.999,11.523 5.522,11.654 5.043,11.79 4.59,11.983 4.136,12.172 3.716,12.416 2.876,12.908 2.192,13.592 1.508,14.276 1.016,15.116 0.772,15.536 0.583,15.99 0.39,16.443 0.254,16.922 0.123,17.399 0.056,17.9 -0.009,18.404 -0.009,18.925L-0.009,32.151 0.009,32.161Q0.254,32.059 0.508,31.972 0.759,31.885 1.016,31.812 1.275,31.743 1.543,31.69 1.813,31.634 2.088,31.596 2.358,31.559 2.634,31.54 2.915,31.521 3.198,31.521 4.354,31.526 5.418,31.822 6.476,32.115 7.403,32.659 8.33,33.207 9.087,33.967 9.846,34.723 10.394,35.65 10.938,36.582 11.232,37.645 11.527,38.704 11.533,39.855 11.527,41.011 11.232,42.075 10.938,43.138 10.394,44.069 9.846,44.997 9.087,45.753 8.33,46.508 7.403,47.051 6.476,47.599 5.418,47.898 4.354,48.188 3.198,48.189 1.493,48.179 0.009,47.559L-0.009,47.569 -0.009,60.794Q-0.009,61.316 0.056,61.82 0.123,62.321 0.254,62.798 0.39,63.277 0.583,63.729 0.772,64.178 1.016,64.595 1.508,65.439 2.192,66.128 2.876,66.811 3.716,67.304 4.137,67.548 4.59,67.736 5.043,67.93 5.522,68.066 5.999,68.197 6.5,68.263 7.004,68.329 7.525,68.329L43.647,68.329Q44.168,68.329 44.672,68.263 45.174,68.197 45.651,68.066 46.13,67.93 46.582,67.736 47.035,67.548 47.457,67.304 48.296,66.811 48.98,66.128 49.663,65.439 50.156,64.595 50.4,64.178 50.589,63.729 50.783,63.277 50.918,62.798 51.05,62.321 51.116,61.82 51.182,61.316 51.182,60.794L51.182,18.925Q51.17,17.354 50.589,15.99 50.009,14.627 48.98,13.592 47.945,12.563 46.582,11.983 45.218,11.402 43.647,11.391"/></g></g><g id="pieza3_0.0.2"><path fill="#FEDA00" d="M50.4,18.95Q50.2,18.95 50.05,18.95 49.85,19 49.65,19.05L49.65,19.075Q49.475,19.106 49.3,19.15 49.1,19.2 48.9,19.3 48.7,19.4 48.5,19.5 48.35,19.6 48.15,19.75 47.8,20 47.55,20.35 47.4,20.5 47.3,20.7 47.15,20.85 47.05,21.05L42.4,30.5 32,32Q31.8,32.05 31.6,32.1 31.4,32.1 31.2,32.2 31,32.25 30.85,32.4 30.65,32.45 30.45,32.6 30.3,32.7 30.15,32.85 29.95,32.95 29.85,33.1 29.7,33.25 29.55,33.45 29.45,33.6 29.35,33.8 29.2,33.95 29.15,34.15 29.05,34.35 28.95,34.55 28.9,34.75 28.9,35 28.8,35.15 28.8,35.4 28.8,35.6 28.8,35.8 28.8,36 28.8,36.2 28.85,36.45 28.9,36.65 28.95,36.85 29.05,37.05 29.1,37.2 29.2,37.4 29.25,37.6 29.4,37.8 29.5,37.95 29.65,38.1 29.8,38.25 29.95,38.45L37.45,45.75 35.7,56.15Q35.65,56.35 35.65,56.55 35.6,56.75 35.65,56.95 35.65,57.2 35.7,57.4 35.7,57.6 35.75,57.8 35.8,58 35.9,58.2 36,58.35 36.1,58.55 36.15,58.75 36.3,58.9 36.4,59.1 36.55,59.25 36.7,59.4 36.85,59.55 37,59.7 37.2,59.8 37.35,59.95 37.55,60.05 37.7,60.15 37.9,60.25 38.1,60.3 38.3,60.4 38.5,60.45 38.7,60.45 38.9,60.5 39.05,60.55 39.2,60.55 39.4,60.55L39.55,60.55Q39.75,60.55 39.95,60.5 40.15,60.45 40.35,60.4 40.55,60.35 40.75,60.3 40.95,60.2 41.15,60.1L49.7,55.6 49.7,55.575 50.4,55.2 51,55.55 51.025,55.525 59.7,60.1Q59.95,60.2 60.25,60.35 60.55,60.4 60.85,60.45L61.15,60.5 61.45,60.5Q61.65,60.5 61.85,60.5 62,60.5 62.2,60.45 62.4,60.4 62.6,60.35 62.8,60.25 62.95,60.2 63.15,60.1 63.3,60 63.5,59.9 63.65,59.8 63.85,59.65 64,59.5 64.15,59.35 64.3,59.2 64.4,59.05 64.55,58.9 64.65,58.7 64.75,58.55 64.85,58.35 64.95,58.15 65,57.95 65.05,57.75 65.15,57.55 65.15,57.35 65.2,57.15 65.2,56.95 65.2,56.75 65.2,56.55 65.2,56.3 65.15,56.1L63.4,45.75 70.9,38.4Q71.05,38.25 71.2,38.1 71.35,37.9 71.45,37.75 71.55,37.6 71.65,37.4 71.75,37.2 71.8,37 71.9,36.8 71.95,36.6 72,36.4 72,36.2 72.05,36 72.05,35.8 72.05,35.55 72.05,35.35 72,35.15 71.95,34.95 71.9,34.75 71.85,34.55 71.75,34.25 71.65,34.05 71.55,33.8 71.4,33.6 71.25,33.35 71.05,33.2 70.9,33 70.7,32.85 70.5,32.65 70.3,32.5 70.05,32.35 69.85,32.25 69.6,32.15 69.35,32.1 69.1,32 68.8,32L58.4,30.45 53.75,21.05Q53.35,20.2 52.65,19.7 51.921,19.165 51.05,19L50.7,18.95Q50.55,18.95 50.4,18.95 M49.7,47.475L49.7,47.45 50.05,47.575 49.7,47.475"/></g></g></g><animate attributeName="display" repeatCount="indefinite" dur="4.375s" keyTimes="0;0.581;1" values="none;inline;inline"/></g><g style="display:none;"><path fill="none" stroke="#FFF" stroke-opacity="0.498" stroke-width="2" stroke-linecap="round" stroke-linejoin="round" d="M272,116.8L272,137.85Q272.2,137.8 272.4,137.75L273.8,137.65Q275.55,137.65 277.05,138.3 278.55,138.95 279.7,140.1 280.85,141.2 281.5,142.75 282.15,144.25 282.15,146 282.15,147.15 281.85,148.2 281.55,149.3 281,150.2 280.45,151.15 279.7,151.9 278.95,152.65 278,153.25 277.05,153.75 276,154.05 274.95,154.35 273.8,154.35L273.35,154.35 272,154.15 272,172.8"/><animate attributeName="display" repeatCount="indefinite" dur="4.375s" keyTimes="0;0.6;0.61;1" values="none;inline;none;none"/></g><g style="display:none;"><path fill="none" stroke="#FFF" stroke-width="2" stroke-linecap="round" stroke-linejoin="round" d="M272,116.8L272,137.85Q272.2,137.8 272.4,137.75L273.8,137.65Q275.55,137.65 277.05,138.3 278.55,138.95 279.7,140.1 280.85,141.2 281.5,142.75 282.15,144.25 282.15,146 282.15,147.15 281.85,148.2 281.55,149.3 281,150.2 280.45,151.15 279.7,151.9 278.95,152.65 278,153.25 277.05,153.75 276,154.05 274.95,154.35 273.8,154.35L273.35,154.35 272,154.15 272,172.8"/><animate attributeName="display" repeatCount="indefinite" dur="4.375s" keyTimes="0;0.581;0.6;1" values="none;inline;none;none"/></g><g style="display:none;"><path fill="none" stroke="#FEDA00" stroke-width="5" stroke-linecap="round" stroke-linejoin="round" d="M271.682,98.378L271.682,98.963"/><path fill="none" stroke="#FEDA00" stroke-width="5" stroke-linecap="round" stroke-linejoin="round" d="M307.391,110.305L306.76,110.935"/><path fill="none" stroke="#FEDA00" stroke-width="5" stroke-linecap="round" stroke-linejoin="round" d="M236.035,110.29L236.814,111.069"/><animate attributeName="display" repeatCount="indefinite" dur="4.375s" keyTimes="0;0.61;0.619;1" values="none;inline;none;none"/></g><g style="display:none;"><path fill="none" stroke="#FEDA00" stroke-width="5" stroke-linecap="round" stroke-linejoin="round" d="M271.682,99.887L271.682,106.427"/><path fill="none" stroke="#FEDA00" stroke-width="5" stroke-linecap="round" stroke-linejoin="round" d="M306.302,111.394L301.289,116.407"/><path fill="none" stroke="#FEDA00" stroke-width="5" stroke-linecap="round" stroke-linejoin="round" d="M237.001,111.257L241.691,115.946"/><animate attributeName="display" repeatCount="indefinite" dur="4.375s" keyTimes="0;0.6;0.61;1" values="none;inline;none;none"/></g><g style="display:none;"><path fill="none" stroke="#FEDA00" stroke-width="5" stroke-linecap="round" stroke-linejoin="round" d="M271.682,99.899L271.682,112.061"/><path fill="none" stroke="#FEDA00" stroke-width="5" stroke-linecap="round" stroke-linejoin="round" d="M300.831,110.914L292.232,119.514"/><path fill="none" stroke="#FEDA00" stroke-width="5" stroke-linecap="round" stroke-linejoin="round" d="M242.563,110.869L251.163,119.468"/><animate attributeName="display" repeatCount="indefinite" dur="4.375s" keyTimes="0;0.581;0.6;1" values="none;inline;none;none"/></g><g style="display:none;"><path fill="none" stroke="#FEDA00" stroke-width="5" stroke-linecap="round" stroke-linejoin="round" d="M271.682,201.522L271.682,200.937"/><path fill="none" stroke="#FEDA00" stroke-width="5" stroke-linecap="round" stroke-linejoin="round" d="M307.391,189.646L306.76,189.016"/><path fill="none" stroke="#FEDA00" stroke-width="5" stroke-linecap="round" stroke-linejoin="round" d="M236.035,189.61L236.814,188.831"/><animate attributeName="display" repeatCount="indefinite" dur="4.375s" keyTimes="0;0.61;0.619;1" values="none;inline;none;none"/></g><g style="display:none;"><path fill="none" stroke="#FEDA00" stroke-width="5" stroke-linecap="round" stroke-linejoin="round" d="M271.682,200.013L271.682,193.473"/><path fill="none" stroke="#FEDA00" stroke-width="5" stroke-linecap="round" stroke-linejoin="round" d="M306.302,188.557L301.289,183.544"/><path fill="none" stroke="#FEDA00" stroke-width="5" stroke-linecap="round" stroke-linejoin="round" d="M237.001,188.643L241.691,183.954"/><animate attributeName="display" repeatCount="indefinite" dur="4.375s" keyTimes="0;0.6;0.61;1" values="none;inline;none;none"/></g><g style="display:none;"><path fill="none" stroke="#FEDA00" stroke-width="5" stroke-linecap="round" stroke-linejoin="round" d="M271.682,194.001L271.682,181.839"/><path fill="none" stroke="#FEDA00" stroke-width="5" stroke-linecap="round" stroke-linejoin="round" d="M300.831,183.037L292.232,174.437"/><path fill="none" stroke="#FEDA00" stroke-width="5" stroke-linecap="round" stroke-linejoin="round" d="M242.563,183.031L251.163,174.432"/><animate attributeName="display" repeatCount="indefinite" dur="4.375s" keyTimes="0;0.581;0.6;1" values="none;inline;none;none"/></g><g><path fill="#26A9E0" d="M415.8,52.65Q415.8,52.55 415.8,52.35 415.8,51.5 415.25,51 414.7,50.5 413.8,50.5 412.9,50.5 412.35,51 411.75,51.5 411.75,52.35 411.75,52.5 411.75,52.65L412.75,58.55Q412.85,59.05 413.1,59.3 413.4,59.55 413.8,59.55 414.2,59.55 414.45,59.3 414.75,59.05 414.8,58.55L415.8,52.65"/><path fill="#26A9E0" d="M409.55,53.65Q408.75,52.1 407.25,51.25 405.75,50.45 403.7,50.45 401.65,50.45 400.1,51.25 398.6,52.1 397.8,53.65 396.95,55.2 396.95,57.3 396.95,59.4 397.8,60.95 398.6,62.5 400.1,63.3 401.65,64.15 403.7,64.15 405.7,64.15 407.2,63.3 408.75,62.5 409.55,60.95 410.35,59.4 410.35,57.3 410.35,55.2 409.55,53.65 M406.05,60.4Q405.2,61.5 403.7,61.5 402.15,61.5 401.3,60.45 400.45,59.35 400.45,57.3 400.45,55.2 401.3,54.15 402.15,53.1 403.7,53.1 405.2,53.1 406.05,54.2 406.9,55.25 406.9,57.3 406.9,59.35 406.05,60.4"/><path fill="#26A9E0" d="M415.1,60.95Q414.55,60.45 413.8,60.45 413,60.45 412.45,60.95 411.95,61.5 411.95,62.25 411.95,63.05 412.45,63.6 413,64.1 413.8,64.1 414.55,64.1 415.1,63.6 415.6,63.05 415.6,62.25 415.6,61.5 415.1,60.95"/><path fill="#26A9E0" d="M354.7,53.3Q356.35,53.3 356.35,51.95 356.35,51.3 355.95,50.95 355.5,50.6 354.7,50.6L348.15,50.6Q347.35,50.6 346.95,51 346.5,51.45 346.5,52.2L346.5,62.4Q346.5,63.15 346.95,63.6 347.35,64 348.15,64L354.7,64Q355.5,64 355.95,63.65 356.35,63.3 356.35,62.65 356.35,61.3 354.7,61.3L349.9,61.3 349.9,58.55 354.35,58.55Q355.15,58.55 355.55,58.2 356,57.85 356,57.2 356,55.85 354.35,55.85L349.9,55.85 349.9,53.3 354.7,53.3"/><path fill="#26A9E0" d="M357.5,57.3Q357.5,59.4 358.4,60.95 359.25,62.5 360.85,63.35 362.45,64.15 364.65,64.15 365.4,64.15 366.3,64.05 367.2,63.95 367.95,63.75 368.7,63.55 369.05,63.3 369.45,63 369.6,62.5 369.7,62 369.7,61.05L369.7,57.75Q369.7,57.15 369.35,56.8 369,56.45 368.35,56.45L365.2,56.45Q364.6,56.45 364.25,56.75 363.9,57.05 363.9,57.65 363.9,58.2 364.25,58.5 364.6,58.85 365.2,58.85L366.6,58.85 366.6,61.3Q365.7,61.5 364.8,61.5 362.9,61.5 361.95,60.45 361.05,59.45 361.05,57.3 361.05,55.2 361.9,54.2 362.8,53.2 364.6,53.2 365.35,53.2 365.95,53.35 366.55,53.55 367.25,53.9 367.6,54.1 367.85,54.2 368.05,54.3 368.35,54.3 368.8,54.3 369.15,53.9 369.45,53.45 369.45,52.9 369.45,52.45 369.3,52.2 369.15,51.95 368.85,51.7 367.95,51.05 366.9,50.75 365.85,50.45 364.5,50.45 362.4,50.45 360.8,51.25 359.25,52.1 358.4,53.65 357.5,55.2 357.5,57.3"/><path fill="#26A9E0" d="M344.65,62.75Q344.65,62.3 344.35,61.75L343.15,60.1Q342.7,59.45 342.25,59.1 341.75,58.8 341.15,58.7 342.65,58.35 343.5,57.3 344.35,56.25 344.35,54.7 344.35,52.7 343.1,51.65 341.9,50.6 339.45,50.6L334.7,50.6Q333.9,50.6 333.5,51 333.05,51.45 333.05,52.2L333.05,62.4Q333.05,63.2 333.55,63.65 334,64.1 334.8,64.1 335.6,64.1 336.05,63.65 336.5,63.2 336.5,62.4L336.5,59 337.75,59Q338.15,59 338.45,59.15 338.7,59.35 339,59.7L341.45,63.35Q341.75,63.75 342.15,63.95 342.55,64.15 343,64.15 343.65,64.15 344.15,63.75 344.65,63.35 344.65,62.75 M341.05,54.8Q341.05,55.65 340.55,56 340.05,56.35 338.9,56.35L336.45,56.35 336.45,53.25 338.9,53.25Q340.05,53.25 340.55,53.6 341.05,54 341.05,54.8"/><path fill="#26A9E0" d="M325.7,50.95Q325.25,50.6 324.45,50.6L317.9,50.6Q317.1,50.6 316.7,51 316.25,51.45 316.25,52.2L316.25,62.4Q316.25,63.15 316.7,63.6 317.1,64 317.9,64L324.45,64Q325.25,64 325.7,63.65 326.1,63.3 326.1,62.65 326.1,61.3 324.45,61.3L319.65,61.3 319.65,58.55 324.1,58.55Q324.9,58.55 325.3,58.2 325.75,57.85 325.75,57.2 325.75,55.85 324.1,55.85L319.65,55.85 319.65,53.3 324.45,53.3Q326.1,53.3 326.1,51.95 326.1,51.3 325.7,50.95"/><path fill="#26A9E0" d="M386.95,50.95Q386.45,51.45 386.45,52.2L386.45,62.35Q386.45,63.15 386.9,63.6 387.3,64 388.1,64L394.35,64Q395.15,64 395.6,63.65 396,63.3 396,62.6 396,61.15 394.35,61.15L389.95,61.15 389.95,52.2Q389.95,51.45 389.5,50.95 389,50.5 388.2,50.5 387.4,50.5 386.95,50.95"/><path fill="#26A9E0" d="M385,62.55Q385,62.2 384.85,61.85L379.85,51.55Q379.6,51.05 379.1,50.75 378.6,50.5 378,50.5 377.45,50.5 376.95,50.75 376.45,51.05 376.2,51.55L371.2,61.85Q371.05,62.2 371.05,62.55 371.05,63.2 371.55,63.6 372.05,64.05 372.7,64.05 373.15,64.05 373.55,63.85 373.9,63.6 374.1,63.15L375,61.25 381.15,61.25 382,63.15Q382.2,63.6 382.55,63.85 382.95,64.05 383.35,64.05 384,64.05 384.5,63.6 385,63.2 385,62.55 M376.15,58.6L378.05,54.35 379.95,58.6 376.15,58.6"/><path fill="#26A9E0" d="M283.35,60.75Q283,61.15 283,61.7 283,62.15 283.15,62.4 283.25,62.65 283.6,62.9 284.4,63.5 285.75,63.85 287.05,64.15 288.55,64.15 290.2,64.15 291.5,63.65 292.75,63.15 293.45,62.15 294.15,61.2 294.15,59.95 294.15,58.95 293.7,58.2 293.3,57.45 292.25,56.9 291.2,56.35 289.35,55.95 288.25,55.7 287.7,55.5 287.1,55.3 286.9,55.05 286.7,54.8 286.7,54.45 286.7,53.85 287.3,53.5 287.85,53.1 288.85,53.1 289.55,53.1 290.15,53.25 290.75,53.4 291.2,53.65 291.65,53.85 291.75,53.95 292.1,54.15 292.3,54.2 292.5,54.3 292.75,54.3 293.25,54.3 293.55,53.85 293.9,53.45 293.9,52.9 293.9,52.5 293.75,52.2 293.6,51.95 293.25,51.7 292.35,51.05 291.3,50.75 290.2,50.45 288.8,50.45 287.25,50.45 285.95,51 284.7,51.55 284,52.55 283.25,53.55 283.25,54.75 283.25,55.8 283.7,56.55 284.15,57.3 285.2,57.85 286.25,58.4 288.15,58.8 289.65,59.1 290.2,59.45 290.75,59.75 290.75,60.2 290.75,60.85 290.15,61.15 289.55,61.5 288.45,61.5 287.5,61.5 286.7,61.3 285.95,61.1 285.15,60.7 284.8,60.45 284.6,60.4 284.35,60.3 284.15,60.3 283.65,60.3 283.35,60.75"/><path fill="#26A9E0" d="M275.05,50.5Q274.5,50.5 274,50.75 273.5,51.05 273.25,51.55L268.25,61.85Q268.1,62.2 268.1,62.55 268.1,63.2 268.6,63.6 269.1,64.05 269.75,64.05 270.2,64.05 270.6,63.85 270.95,63.6 271.15,63.15L272.05,61.25 278.2,61.25 279.05,63.15Q279.25,63.6 279.6,63.85 280,64.05 280.4,64.05 281.05,64.05 281.55,63.6 282.05,63.2 282.05,62.55 282.05,62.2 281.9,61.85L276.9,51.55Q276.65,51.05 276.15,50.75 275.65,50.5 275.05,50.5 M277,58.6L273.2,58.6 275.1,54.35 277,58.6"/><path fill="#26A9E0" d="M266.85,51Q266.45,50.6 265.8,50.6L258.5,50.6Q257.65,50.6 257.25,50.95 256.8,51.25 256.8,52 256.8,52.65 257.25,53 257.65,53.35 258.5,53.35L263.1,53.35 257.25,61.3Q256.8,61.9 256.8,62.55 256.8,63.15 257.2,63.6 257.6,64 258.3,64L265.9,64Q266.75,64 267.15,63.65 267.55,63.35 267.55,62.6 267.55,61.9 267.15,61.6 266.75,61.25 265.9,61.25L261,61.25 266.85,53.3Q267.3,52.7 267.3,52.05 267.3,51.4 266.85,51"/><path fill="#26A9E0" d="M255.45,50.95Q255,50.6 254.2,50.6L247.65,50.6Q246.85,50.6 246.45,51 246,51.45 246,52.2L246,62.4Q246,63.15 246.45,63.6 246.85,64 247.65,64L254.2,64Q255,64 255.45,63.65 255.85,63.3 255.85,62.65 255.85,61.3 254.2,61.3L249.4,61.3 249.4,58.55 253.85,58.55Q254.65,58.55 255.05,58.2 255.5,57.85 255.5,57.2 255.5,55.85 253.85,55.85L249.4,55.85 249.4,53.3 254.2,53.3Q255.85,53.3 255.85,51.95 255.85,51.3 255.45,50.95"/><path fill="#26A9E0" d="M244.25,60.35Q244.25,59.1 243.6,58.25 243,57.4 241.8,57.05 242.8,56.7 243.35,55.9 243.9,55.1 243.9,54.1 243.9,52.5 242.65,51.55 241.4,50.6 239.3,50.6L234.45,50.6Q233.65,50.6 233.25,51 232.8,51.45 232.8,52.2L232.8,62.4Q232.8,63.15 233.25,63.6 233.65,64 234.45,64L239.5,64Q240.95,64 242,63.55 243.1,63.1 243.65,62.25 244.25,61.45 244.25,60.35 M240.6,54.6Q240.6,55.25 240.15,55.55 239.7,55.85 238.7,55.85L236.2,55.85 236.2,53.25 238.7,53.25Q239.7,53.25 240.15,53.55 240.6,53.9 240.6,54.6 M236.2,58.5L239.05,58.5Q240.1,58.5 240.55,58.85 241,59.2 241,59.95 241,60.7 240.55,61 240.1,61.35 239.05,61.35L236.2,61.35 236.2,58.5"/><path fill="#26A9E0" d="M313.3,53.7Q312.45,52.2 310.85,51.4 309.25,50.6 307,50.6L303.2,50.6Q302.4,50.6 302,51 301.55,51.45 301.55,52.2L301.55,62.4Q301.55,63.15 302,63.6 302.4,64 303.2,64L307,64Q309.25,64 310.85,63.2 312.5,62.4 313.3,60.9 314.15,59.4 314.15,57.3 314.15,55.2 313.3,53.7 M306.75,53.4Q308.75,53.4 309.7,54.35 310.7,55.3 310.7,57.3 310.7,59.25 309.7,60.2 308.75,61.2 306.75,61.2L305.05,61.2 305.05,53.4 306.75,53.4"/><path fill="#26A9E0" d="M197.5,53.3L202.3,53.3Q203.95,53.3 203.95,51.95 203.95,51.3 203.55,50.95 203.1,50.6 202.3,50.6L195.75,50.6Q194.95,50.6 194.55,51 194.1,51.45 194.1,52.2L194.1,62.4Q194.1,63.15 194.55,63.6 194.95,64 195.75,64L202.3,64Q203.1,64 203.55,63.65 203.95,63.3 203.95,62.65 203.95,61.3 202.3,61.3L197.5,61.3 197.5,58.55 201.95,58.55Q202.75,58.55 203.15,58.2 203.6,57.85 203.6,57.2 203.6,55.85 201.95,55.85L197.5,55.85 197.5,53.3"/><path fill="#26A9E0" d="M191.2,51.75Q189.95,50.6 187.75,50.6L182.9,50.6Q182.1,50.6 181.7,51 181.25,51.45 181.25,52.2L181.25,62.4Q181.25,63.2 181.75,63.65 182.2,64.1 183,64.1 183.8,64.1 184.3,63.65 184.75,63.2 184.75,62.4L184.75,59.15 187.75,59.15Q189.95,59.15 191.2,58 192.45,56.9 192.45,54.9 192.45,52.85 191.2,51.75 M187.25,53.25Q189.15,53.25 189.15,54.9 189.15,55.75 188.7,56.15 188.25,56.55 187.25,56.55L184.75,56.55 184.75,53.25 187.25,53.25"/><path fill="#26A9E0" d="M178.8,52.2Q178.8,51.45 178.35,51 177.9,50.5 177.15,50.5 176.15,50.5 175.55,51.65L172.1,58.2 168.6,51.65Q168.3,51.1 167.9,50.8 167.45,50.5 166.95,50.5 166.25,50.5 165.75,51 165.3,51.45 165.3,52.2L165.3,62.55Q165.3,63.3 165.75,63.7 166.15,64.1 166.8,64.1 167.5,64.1 167.95,63.7 168.35,63.25 168.35,62.55L168.35,57.1 170.5,60.95Q170.85,61.55 171.2,61.85 171.55,62.1 172.05,62.1 172.55,62.1 172.9,61.85 173.25,61.55 173.6,60.95L175.75,56.95 175.75,62.55Q175.75,63.3 176.2,63.7 176.6,64.1 177.25,64.1 177.95,64.1 178.35,63.7 178.8,63.3 178.8,62.55L178.8,52.2"/><path fill="#26A9E0" d="M162.4,60.95Q163.2,59.4 163.2,57.3 163.2,55.2 162.4,53.65 161.6,52.1 160.1,51.25 158.6,50.45 156.55,50.45 154.5,50.45 152.95,51.25 151.45,52.1 150.65,53.65 149.8,55.2 149.8,57.3 149.8,59.4 150.65,60.95 151.45,62.5 152.95,63.3 154.5,64.15 156.55,64.15 158.55,64.15 160.05,63.3 161.6,62.5 162.4,60.95 M156.55,53.1Q158.05,53.1 158.9,54.2 159.75,55.25 159.75,57.3 159.75,59.35 158.9,60.4 158.05,61.5 156.55,61.5 155,61.5 154.15,60.45 153.3,59.35 153.3,57.3 153.3,55.2 154.15,54.15 155,53.1 156.55,53.1"/><path fill="#26A9E0" d="M224.35,50.5Q223.8,50.5 223.3,50.75 222.8,51.05 222.55,51.55L217.55,61.85Q217.4,62.2 217.4,62.55 217.4,63.2 217.9,63.6 218.4,64.05 219.05,64.05 219.5,64.05 219.9,63.85 220.25,63.6 220.45,63.15L221.35,61.25 227.5,61.25 228.35,63.15Q228.55,63.6 228.9,63.85 229.3,64.05 229.7,64.05 230.35,64.05 230.85,63.6 231.35,63.2 231.35,62.55 231.35,62.2 231.2,61.85L226.2,51.55Q225.95,51.05 225.45,50.75 224.95,50.5 224.35,50.5 M226.3,58.6L222.5,58.6 224.4,54.35 226.3,58.6"/><path fill="#26A9E0" d="M216.5,52.2Q216.4,51.95 216.05,51.7 214.2,50.45 211.8,50.45 209.8,50.45 208.3,51.25 206.75,52.1 205.95,53.65 205.1,55.2 205.1,57.3 205.1,59.4 205.95,60.95 206.75,62.5 208.3,63.35 209.8,64.15 211.8,64.15 214.2,64.15 216.05,62.9 216.4,62.65 216.5,62.4 216.65,62.1 216.65,61.7 216.65,61.15 216.35,60.75 216,60.3 215.5,60.3 215.25,60.3 215.05,60.4 214.85,60.45 214.45,60.7 213.65,61.05 213.1,61.25 212.55,61.4 212,61.4 210.3,61.4 209.5,60.4 208.65,59.4 208.65,57.3 208.65,55.2 209.5,54.2 210.3,53.2 212,53.2 212.65,53.2 213.2,53.35 213.8,53.55 214.45,53.95 214.8,54.1 215,54.2 215.25,54.3 215.5,54.3 216,54.3 216.35,53.9 216.65,53.45 216.65,52.9 216.65,52.45 216.5,52.2"/><path fill="#26A9E0" d="M146.75,51.65Q145.55,50.6 143.1,50.6L138.35,50.6Q137.55,50.6 137.15,51 136.7,51.45 136.7,52.2L136.7,62.4Q136.7,63.2 137.2,63.65 137.65,64.1 138.45,64.1 139.25,64.1 139.7,63.65 140.15,63.2 140.15,62.4L140.15,59 141.4,59Q141.8,59 142.1,59.15 142.35,59.35 142.65,59.7L145.1,63.35Q145.4,63.75 145.8,63.95 146.2,64.15 146.65,64.15 147.3,64.15 147.8,63.75 148.3,63.35 148.3,62.75 148.3,62.3 148,61.75L146.8,60.1Q146.35,59.45 145.9,59.1 145.4,58.8 144.8,58.7 146.3,58.35 147.15,57.3 148,56.25 148,54.7 148,52.7 146.75,51.65 M144.2,53.6Q144.7,54 144.7,54.8 144.7,55.65 144.2,56 143.7,56.35 142.55,56.35L140.1,56.35 140.1,53.25 142.55,53.25Q143.7,53.25 144.2,53.6"/><path fill="#26A9E0" d="M134.25,55Q133.7,54.45 132.95,54.45 132.15,54.45 131.6,55 131.1,55.55 131.1,56.3 131.1,57.1 131.6,57.6 132.15,58.15 132.95,58.15 133.7,58.15 134.25,57.6 134.75,57.1 134.75,56.3 134.75,55.55 134.25,55"/><path fill="#26A9E0" d="M132.95,59Q132.55,59 132.25,59.25 132,59.55 131.9,60.05L131,65.4Q130.95,65.5 130.95,65.75 130.95,66.6 131.5,67.05 132.05,67.55 132.95,67.55 133.8,67.55 134.35,67.05 134.9,66.6 134.9,65.8 134.9,65.65 134.85,65.4L133.95,60.05Q133.85,59.55 133.6,59.25 133.35,59 132.95,59"/></g></g></svg>