<?xml version="1.0" encoding="utf-8"?>
<!-- Generator: Adobe Illustrator 16.0.0, SVG Export Plug-In . SVG Version: 6.00 Build 0)  -->
<!DOCTYPE svg PUBLIC "-//W3C//DTD SVG 1.1//EN" "http://www.w3.org/Graphics/SVG/1.1/DTD/svg11.dtd">
<svg version="1.1" xmlns="http://www.w3.org/2000/svg" xmlns:xlink="http://www.w3.org/1999/xlink" x="0px" y="0px"
	 width="515.001px" height="515px" viewBox="0 0 515.001 515" enable-background="new 0 0 515.001 515" xml:space="preserve">
<g id="bocetos" display="none">
</g>
<g id="perri" display="none">
	<rect x="-44.418" y="52.4" display="inline" fill="#FEED72" width="603.837" height="410.199"/>
	<g display="inline">
		<path fill="#8C5330" d="M121.668,337.992H76.702c-7.452,0-13.493,6.041-13.493,13.492c0,7.455,6.041,13.494,13.493,13.494h44.966
			V337.992z"/>
		<path fill="#C3996B" d="M210.641,267.073c30.753,0,55.684,24.931,55.684,55.685v5.842c0,30.752-24.931,55.684-55.684,55.684
			H147.55c-30.755,0-55.686-24.932-55.686-55.684v-5.842c0-30.754,24.931-55.685,55.686-55.685H210.641z"/>
		<path fill="#C3996B" stroke="#C3996B" stroke-width="4.0461" stroke-miterlimit="10" d="M126.145,357.201v33.924
			c0,11.309,9.167,20.474,20.478,20.474c11.308,0,20.475-9.165,20.475-20.474v-33.924H126.145z"/>
		<path fill="#C3996B" stroke="#C3996B" stroke-width="4.0461" stroke-miterlimit="10" d="M205.279,357.201v33.924
			c0,11.309,9.166,20.474,20.478,20.474c11.309,0,20.474-9.165,20.474-20.474v-33.924H205.279z"/>
		<path fill="#C3996B" d="M294.613,293.227c-2.427-4.186-6.341-7.178-10.97-8.408l-32.547-9.77l-9.315,35.027l32.495,9.755
			c1.53,0.406,3.1,0.611,4.669,0.611c0,0,0,0,0.001,0c8.195,0,15.394-5.538,17.502-13.467
			C297.694,302.297,297.042,297.413,294.613,293.227z"/>
		<g>
			<polygon fill="#AA845E" points="266.082,279.545 266.082,317.371 269.474,318.39 269.474,280.564 			"/>
		</g>
		<path fill="#C3996B" stroke="#C3996B" stroke-width="3.2369" stroke-miterlimit="10" d="M120.978,291.802l-23.979-13.137
			c-7.995-4.381-18.024-1.451-22.405,6.542c-4.379,7.995-1.451,18.024,6.543,22.402l23.979,13.14L120.978,291.802z"/>
		
			<path fill="#EC1C24" stroke="#EC1C24" stroke-width="33.49" stroke-linecap="round" stroke-linejoin="round" stroke-miterlimit="10" d="
			M121.437,266.198c5.193,22.41,116.881,24.421,121.173,0"/>
		<path fill="#CFAD89" d="M211.278,332.476c10.446,0,18.913,8.468,18.913,18.913v1.983c0,10.444-8.467,18.914-18.913,18.914h-21.428
			c-10.445,0-18.912-8.47-18.912-18.914v-1.983c0-10.445,8.467-18.913,18.912-18.913H211.278z"/>
		
			<line fill="none" stroke="#808184" stroke-width="6.7829" stroke-linecap="round" stroke-linejoin="round" stroke-miterlimit="10" x1="201.106" y1="283.739" x2="201.106" y2="305.198"/>
		<path fill="#808184" d="M212.977,315.243c0,6.552-5.316,11.866-11.867,11.866c-6.557,0-11.872-5.314-11.872-11.866
			c0-6.553,5.315-11.866,11.872-11.866C207.66,303.377,212.977,308.69,212.977,315.243z"/>
		<circle fill="#CFAD89" cx="286.292" cy="293.951" r="3.692"/>
		<circle fill="#CFAD89" cx="288.553" cy="305.353" r="3.692"/>
		<circle fill="#CFAD89" cx="280.089" cy="312.039" r="3.692"/>
		<g>
			
				<path fill="#C3996B" stroke="#C3996B" stroke-width="11.3049" stroke-linecap="round" stroke-linejoin="round" stroke-miterlimit="10" d="
				M50.439,136.838c-8.495,13.507-13.431,29.468-13.431,46.567v8.978c0,48.38,39.357,87.735,87.735,87.735h114.354
				c48.379,0,87.737-39.355,87.737-87.735v-8.978c0-17.1-4.937-33.061-13.432-46.567H50.439z"/>
			
				<path fill="#8C5330" stroke="#8C5330" stroke-width="3.3915" stroke-linecap="round" stroke-linejoin="round" stroke-miterlimit="10" d="
				M109.756,128.941v45.446c0,16.28-13.196,29.478-29.482,29.478c-16.279,0-29.477-13.197-29.477-29.478v-45.446H109.756z"/>
			
				<path fill="#8C5330" stroke="#8C5330" stroke-width="3.3915" stroke-linecap="round" stroke-linejoin="round" stroke-miterlimit="10" d="
				M313.21,128.941v45.446c0,16.28-13.195,29.478-29.482,29.478c-16.279,0-29.477-13.197-29.477-29.478v-45.446H313.21z"/>
			<g>
				<path fill="#231F20" d="M210.179,208.582c0,3.562-2.885,6.445-6.446,6.445l0,0c-3.563,0-6.447-2.884-6.447-6.445v-0.22
					c0-3.563,2.885-6.451,6.447-6.451l0,0c3.562,0,6.446,2.889,6.446,6.451V208.582z"/>
				<g>
					<path fill="#231F20" d="M184.747,203.606c0,2.688-2.176,4.864-4.863,4.864l0,0c-2.686,0-4.863-2.177-4.863-4.864v-3.461
						c0-2.688,2.178-4.865,4.863-4.865l0,0c2.688,0,4.863,2.178,4.863,4.865V203.606z"/>
					<path fill="#231F20" d="M231.098,203.606c0,2.688-2.178,4.864-4.864,4.864l0,0c-2.686,0-4.863-2.177-4.863-4.864v-3.461
						c0-2.688,2.178-4.865,4.863-4.865l0,0c2.687,0,4.864,2.178,4.864,4.865V203.606z"/>
				</g>
				<path fill="#EC1C24" stroke="#EC1C24" stroke-width="0.3867" stroke-miterlimit="10" d="M190.199,227.985l-2.144-7.434
					c-1.668-5.787-7.711-9.127-13.499-7.458c-5.787,1.668-9.126,7.711-7.457,13.498l0.817,2.836"/>
				
					<path fill="none" stroke="#231F20" stroke-width="4.5219" stroke-linecap="round" stroke-linejoin="round" stroke-miterlimit="10" d="
					M202.015,212.419c5.094,10.834,15.879,18.309,28.36,18.309c6.128,0,11.851-1.804,16.688-4.922"/>
				
					<path fill="none" stroke="#231F20" stroke-width="4.5219" stroke-linecap="round" stroke-linejoin="round" stroke-miterlimit="10" d="
					M205.234,212.419c-5.093,10.834-15.878,18.309-28.359,18.309c-6.129,0-11.851-1.804-16.688-4.922"/>
				
					<path fill="none" stroke="#AA845E" stroke-width="3.3915" stroke-linecap="round" stroke-linejoin="round" stroke-miterlimit="10" d="
					M132.578,196.599c14.62,0,26.472,11.853,26.472,26.472c0,14.621-11.852,26.471-26.472,26.471
					c-6.853,0-13.097-2.604-17.798-6.875"/>
			</g>
			<g>
				<g>
					<g>
						<g>
							<g>
								
									<line fill="#A6A8AB" stroke="#A6A8AB" stroke-width="7.3131" stroke-linecap="round" stroke-linejoin="round" stroke-miterlimit="10" x1="49.501" y1="236.536" x2="73.595" y2="279.33"/>
								<g>
									<g>
										<path fill="#A6A8AB" d="M53.354,220.018l-19.97,11.244c-5.067,2.854-6.869,9.297-4.015,14.364l4.486,7.97
											c2.852,5.066,9.296,6.866,14.362,4.015l19.97-11.244c5.067-2.853,6.869-9.294,4.015-14.36l-4.487-7.971
											C64.863,218.968,58.42,217.166,53.354,220.018z"/>
										
											<line fill="#A6A8AB" stroke="#A6A8AB" stroke-width="9.771" stroke-linecap="round" stroke-linejoin="round" stroke-miterlimit="10" x1="21.279" y1="221.052" x2="38.469" y2="251.58"/>
										
											<line fill="#A6A8AB" stroke="#A6A8AB" stroke-width="9.771" stroke-linecap="round" stroke-linejoin="round" stroke-miterlimit="10" x1="51.081" y1="204.272" x2="68.27" y2="234.803"/>
										
											<line fill="#A6A8AB" stroke="#A6A8AB" stroke-width="9.771" stroke-linecap="round" stroke-linejoin="round" stroke-miterlimit="10" x1="36.039" y1="212.742" x2="53.226" y2="243.271"/>
									</g>
								</g>
								<g>
									<g>
										
											<line fill="none" stroke="#231F20" stroke-width="3.2213" stroke-linecap="round" stroke-linejoin="round" stroke-miterlimit="10" x1="42.711" y1="234.162" x2="44.602" y2="237.521"/>
										
											<line fill="none" stroke="#231F20" stroke-width="3.2213" stroke-linecap="round" stroke-linejoin="round" stroke-miterlimit="10" x1="50.996" y1="229.498" x2="52.885" y2="232.854"/>
									</g>
									
										<path fill="none" stroke="#231F20" stroke-width="2.5729" stroke-linecap="round" stroke-linejoin="round" stroke-miterlimit="10" d="
										M55.33,238.985c1.051,1.866,0.391,4.23-1.476,5.281c-1.866,1.05-4.231,0.389-5.28-1.477"/>
								</g>
								<g>
									<path fill="#EC1C24" d="M98.709,323.937c-5.278,2.974-11.97,1.104-14.94-4.176L61.11,279.518
										c-2.972-5.278-1.102-11.97,4.178-14.942c5.279-2.971,11.967-1.103,14.94,4.178l22.658,40.246
										C105.859,314.277,103.989,320.965,98.709,323.937z"/>
								</g>
								<g>
									<circle fill="#FFDA00" cx="88.003" cy="304.922" r="3.651"/>
									<circle fill="#FFDA00" cx="77.24" cy="285.805" r="3.652"/>
								</g>
							</g>
						</g>
					</g>
					
						<path fill="#FFFFFF" stroke="#FFFFFF" stroke-width="2.1047" stroke-linecap="round" stroke-linejoin="round" stroke-miterlimit="10" d="
						M47.791,242.921c0.009,0.017,0.017,0.036,0.025,0.049l0.142,0.25c1.253,2.229,4.075,3.018,6.3,1.766
						c2.226-1.255,3.016-4.077,1.761-6.303l-0.14-0.251c-0.009-0.017-0.021-0.031-0.03-0.045L47.791,242.921z"/>
				</g>
				<g>
					<circle fill="#FF7BAC" cx="13.398" cy="207.916" r="13.894"/>
					<path fill="#FF7BAC" d="M35.31,193.909c1.039,8.164-4.738,15.62-12.9,16.66c-8.162,1.035-15.619-4.738-16.657-12.902
						c-1.038-8.16,4.737-15.618,12.899-16.656C26.813,179.973,34.272,185.749,35.31,193.909z"/>
					<path fill="#FF7BAC" d="M36.179,210.625c0.825,6.485-3.765,12.412-10.251,13.239c-6.484,0.822-12.412-3.766-13.236-10.253
						c-0.824-6.484,3.766-12.411,10.25-13.236C29.428,199.551,35.355,204.14,36.179,210.625z"/>
					<circle fill="#FF7BAC" cx="41.255" cy="192.478" r="14.898"/>
					<circle fill="#FF7BAC" cx="41.261" cy="202.3" r="11.839"/>
				</g>
			</g>
			<circle fill="#C3996B" stroke="#C3996B" stroke-width="2.9589" stroke-miterlimit="10" cx="72.561" cy="298.97" r="19.356"/>
		</g>
	</g>
	<circle display="inline" fill="#FF7BAC" cx="80.949" cy="409.496" r="6.011"/>
	<circle display="inline" fill="#FF7BAC" cx="121.138" cy="411.502" r="4.004"/>
	<path display="inline" fill="#FF7BAC" d="M106.693,407.974c0,4.161-3.371,7.534-7.533,7.534c-4.156,0-7.528-3.373-7.528-7.534
		c0-4.156,3.372-7.528,7.528-7.528C103.322,400.445,106.693,403.817,106.693,407.974z"/>
	<circle display="inline" fill="#FF7BAC" cx="297.088" cy="412.329" r="3.75"/>
	<circle display="inline" fill="#FF7BAC" cx="312.604" cy="410.831" r="5.249"/>
</g>
<g id="banco" display="none">
	<g display="inline">
		
			<line fill="none" stroke="#F6921E" stroke-width="26.2061" stroke-linecap="round" stroke-linejoin="round" stroke-miterlimit="10" x1="335.836" y1="344.467" x2="474.331" y2="344.467"/>
		
			<line fill="none" stroke="#F6921E" stroke-width="26.2061" stroke-linecap="round" stroke-linejoin="round" stroke-miterlimit="10" x1="359.493" y1="402.552" x2="359.493" y2="349.638"/>
		
			<line fill="none" stroke="#F6921E" stroke-width="26.2061" stroke-linecap="round" stroke-linejoin="round" stroke-miterlimit="10" x1="451.215" y1="402.552" x2="451.215" y2="349.638"/>
		
			<line fill="none" stroke="#F6921E" stroke-width="13.103" stroke-linecap="round" stroke-linejoin="round" stroke-miterlimit="10" x1="356.8" y1="383.776" x2="451.284" y2="383.776"/>
	</g>
</g>
<g id="mantel" display="none">
	<g display="inline">
		
			<path fill="#E92229" stroke="#E92229" stroke-width="5" stroke-linecap="round" stroke-linejoin="round" stroke-miterlimit="10" d="
			M483.493,344.145c0-4.429-3.591-8.02-8.02-8.02H332.608c-4.428,0-8.019,3.591-8.019,8.02v47.133h158.903V344.145z"/>
	</g>
</g>
<g id="torta" display="none">
	<g display="inline">
		<g>
			<g>
				<circle fill="#FEED72" cx="379.913" cy="215.43" r="7.137"/>
				<path fill="#E92229" d="M411.43,215.43c0,3.942-3.198,7.139-7.138,7.139c-3.944,0-7.139-3.196-7.139-7.139
					c0-3.943,3.194-7.141,7.139-7.141C408.231,208.289,411.43,211.486,411.43,215.43z"/>
				<circle fill="#E92229" cx="428.669" cy="215.43" r="7.139"/>
			</g>
			<path fill="#8C5330" d="M471.929,321.669c0,5.465-4.432,9.898-9.898,9.898H346.555c-5.468,0-9.899-4.434-9.899-9.898v-94.362
				c0-5.466,4.432-9.897,9.899-9.897H462.03c5.467,0,9.898,4.432,9.898,9.897V321.669z"/>
			<g>
				<path fill="#FFFFFF" d="M459.061,299.307c-0.031,0-0.065,0-0.097,0c-3.641,0.013-7.079,1.402-10.404,2.745
					c-2.805,1.133-5.456,2.202-7.689,2.204c-0.002,0-0.004,0-0.006,0c-1.936,0-4.349-0.963-6.902-1.983
					c-3.48-1.391-7.427-2.966-11.957-2.966c-6.02,0-9.652,1.691-12.57,3.05c-2.28,1.061-4.081,1.899-6.775,1.899
					c-1.502,0-3.085-0.739-5.092-1.674c-3.126-1.46-7.021-3.275-12.746-3.275c-4.74,0-8.691,1.564-12.181,2.943
					c-2.717,1.075-5.068,2.006-7.238,2.006c-1.674,0-3.855-0.95-6.165-1.957c-3.218-1.401-6.868-2.992-11.061-2.992
					c-4.958,0-8.879,1.564-11.521,3.086v7.824c0.285-0.153,0.553-0.348,0.792-0.587c0.037-0.043,4.105-3.984,10.729-3.984
					c2.828,0,5.682,1.245,8.444,2.448c2.824,1.229,5.74,2.501,8.781,2.501c3.422,0,6.587-1.254,9.65-2.466
					c3.086-1.22,6.276-2.483,9.769-2.483c4.273,0,7.175,1.354,9.979,2.662c2.41,1.123,4.901,2.287,7.858,2.287
					c4.146,0,6.889-1.276,9.539-2.51c2.694-1.256,5.237-2.439,9.807-2.439c3.27,0,6.452,1.271,9.525,2.5
					c3.017,1.204,6.137,2.449,9.334,2.449c0.004,0,0.007,0,0.01,0c3.507-0.002,6.879-1.364,10.14-2.683
					c2.879-1.161,5.595-2.259,7.975-2.267c0.023,0,0.048,0,0.073,0c7.514,0,12.02,3.941,12.193,4.098
					c0.207,0.189,0.436,0.336,0.674,0.461v-7.636C469.071,301.008,464.676,299.307,459.061,299.307z"/>
				<path fill="#FFFFFF" d="M348.177,284.859c2.828,0,5.682,1.245,8.444,2.447c2.824,1.23,5.74,2.502,8.781,2.502
					c3.422,0,6.587-1.255,9.65-2.464c3.086-1.223,6.276-2.485,9.769-2.485c4.273,0,7.175,1.354,9.979,2.662
					c2.41,1.123,4.901,2.287,7.858,2.287c4.146,0,6.889-1.275,9.539-2.51c2.694-1.256,5.237-2.439,9.807-2.439
					c3.27,0,6.452,1.271,9.525,2.499c3.017,1.206,6.137,2.45,9.334,2.45c0.004,0,0.007,0,0.01,0
					c3.507-0.002,6.879-1.363,10.14-2.682c2.879-1.162,5.595-2.258,7.975-2.268c0.023,0,0.048,0,0.073,0
					c7.514,0,12.02,3.942,12.193,4.097c0.207,0.19,0.436,0.336,0.674,0.462v-7.636c-2.857-1.56-7.253-3.261-12.868-3.261
					c-0.031,0-0.065,0-0.097,0c-3.641,0.011-7.079,1.401-10.404,2.742c-2.805,1.134-5.456,2.203-7.689,2.205
					c-0.002,0-0.004,0-0.006,0c-1.936,0-4.349-0.963-6.902-1.982c-3.48-1.39-7.427-2.965-11.957-2.965
					c-6.02,0-9.652,1.688-12.57,3.048c-2.28,1.063-4.081,1.899-6.775,1.899c-1.502,0-3.085-0.738-5.092-1.672
					c-3.126-1.461-7.021-3.275-12.746-3.275c-4.74,0-8.691,1.564-12.181,2.941c-2.717,1.077-5.068,2.006-7.238,2.006
					c-1.674,0-3.855-0.947-6.165-1.956c-3.218-1.401-6.868-2.991-11.061-2.991c-4.958,0-8.879,1.564-11.521,3.087v7.821
					c0.285-0.151,0.553-0.345,0.792-0.589C337.484,288.802,341.553,284.859,348.177,284.859z"/>
			</g>
			<path fill="#FF7BAC" d="M462.03,217.409H346.555c-5.468,0-9.899,4.432-9.899,9.897v9.143v5.044v13.306
				c0,7.529,6.055,13.632,13.525,13.632c7.473,0,13.529-6.103,13.529-13.632c0,7.529,6.056,13.632,13.527,13.632
				c7.47,0,13.526-6.103,13.526-13.632c0,7.529,6.058,13.632,13.528,13.632c7.472,0,13.527-6.103,13.527-13.632
				c0,7.529,6.057,13.632,13.527,13.632c7.469,0,13.527-6.103,13.527-13.632c0,7.529,6.057,13.632,13.526,13.632
				c7.473,0,13.528-6.103,13.528-13.632v-13.306v-5.044v-9.143C471.929,221.841,467.497,217.409,462.03,217.409z"/>
			<g>
				<circle fill="#FFFFFF" cx="353.3" cy="240.922" r="4.331"/>
				<circle fill="#FF7BAC" cx="378.795" cy="240.922" r="4.33"/>
				<circle fill="#FFFFFF" cx="404.292" cy="240.922" r="4.33"/>
				<path fill="#FFFFFF" d="M434.117,240.922c0,2.393-1.938,4.33-4.328,4.33c-2.395,0-4.331-1.938-4.331-4.33
					c0-2.392,1.937-4.33,4.331-4.33C432.179,236.592,434.117,238.53,434.117,240.922z"/>
				<circle fill="#FFFFFF" cx="455.283" cy="240.922" r="4.33"/>
			</g>
			<g>
				<g>
					
						<line fill="#0B703B" stroke="#29B473" stroke-width="12.2524" stroke-linecap="round" stroke-linejoin="round" stroke-miterlimit="10" x1="331.92" y1="327.987" x2="476.663" y2="327.987"/>
				</g>
			</g>
		</g>
		<circle fill="#FEED72" cx="345.817" cy="231.228" r="18.643"/>
		<circle fill="#FEED72" cx="373.482" cy="222.272" r="16.746"/>
		<path fill="#FEED72" d="M374.466,218.791c0,8.405-6.816,15.221-15.22,15.221c-8.406,0-15.222-6.815-15.222-15.221
			s6.815-15.22,15.222-15.22C367.649,203.571,374.466,210.386,374.466,218.791z"/>
	</g>
</g>
<g id="Layer_7">
	<rect fill="#FEED72" width="515.001" height="515"/>
	<g>
		<g>
			<path fill="#8C5330" d="M133.668,337.992H88.702c-7.452,0-13.493,6.041-13.493,13.492c0,7.455,6.041,13.494,13.493,13.494h44.966
				V337.992z"/>
			<path fill="#C3996B" d="M222.641,267.073c30.753,0,55.684,24.931,55.684,55.685v5.842c0,30.752-24.931,55.684-55.684,55.684
				H159.55c-30.755,0-55.686-24.932-55.686-55.684v-5.842c0-30.754,24.931-55.685,55.686-55.685H222.641z"/>
			<path fill="#C3996B" stroke="#C3996B" stroke-width="4.0461" stroke-miterlimit="10" d="M138.145,357.201v33.924
				c0,11.309,9.167,20.474,20.478,20.474c11.308,0,20.475-9.165,20.475-20.474v-33.924H138.145z"/>
			<path fill="#C3996B" stroke="#C3996B" stroke-width="4.0461" stroke-miterlimit="10" d="M217.279,357.201v33.924
				c0,11.309,9.166,20.474,20.478,20.474c11.309,0,20.474-9.165,20.474-20.474v-33.924H217.279z"/>
			<path fill="#C3996B" d="M306.613,293.227c-2.427-4.186-6.341-7.178-10.97-8.408l-32.547-9.77l-9.315,35.027l32.495,9.755
				c1.53,0.406,3.1,0.611,4.669,0.611h0.001c8.195,0,15.394-5.538,17.502-13.467C309.694,302.297,309.042,297.413,306.613,293.227z"
				/>
			<g>
				<polygon fill="#AA845E" points="278.082,279.545 278.082,317.371 281.474,318.39 281.474,280.564 				"/>
			</g>
			<path fill="#C3996B" stroke="#C3996B" stroke-width="3.2369" stroke-miterlimit="10" d="M132.978,291.802l-23.979-13.137
				c-7.995-4.381-18.024-1.451-22.405,6.542c-4.379,7.995-1.451,18.024,6.543,22.402l23.979,13.14L132.978,291.802z"/>
			
				<path fill="#EC1C24" stroke="#EC1C24" stroke-width="33.49" stroke-linecap="round" stroke-linejoin="round" stroke-miterlimit="10" d="
				M133.437,266.198c5.193,22.41,116.881,24.421,121.173,0"/>
			<path fill="#CFAD89" d="M223.278,332.476c10.446,0,18.913,8.468,18.913,18.913v1.983c0,10.444-8.467,18.914-18.913,18.914
				h-21.428c-10.445,0-18.912-8.47-18.912-18.914v-1.983c0-10.445,8.467-18.913,18.912-18.913H223.278z"/>
			
				<line fill="none" stroke="#808184" stroke-width="6.7829" stroke-linecap="round" stroke-linejoin="round" stroke-miterlimit="10" x1="213.106" y1="283.739" x2="213.106" y2="305.198"/>
			<path fill="#808184" d="M224.977,315.243c0,6.552-5.316,11.866-11.867,11.866c-6.557,0-11.872-5.314-11.872-11.866
				c0-6.553,5.315-11.866,11.872-11.866C219.66,303.377,224.977,308.69,224.977,315.243z"/>
			<circle fill="#CFAD89" cx="298.292" cy="293.951" r="3.692"/>
			<circle fill="#CFAD89" cx="300.553" cy="305.353" r="3.692"/>
			<circle fill="#CFAD89" cx="292.089" cy="312.039" r="3.692"/>
			<g>
				
					<path fill="#C3996B" stroke="#C3996B" stroke-width="11.3049" stroke-linecap="round" stroke-linejoin="round" stroke-miterlimit="10" d="
					M62.439,136.838c-8.495,13.507-13.431,29.468-13.431,46.567v8.978c0,48.38,39.357,87.735,87.735,87.735h114.354
					c48.379,0,87.737-39.355,87.737-87.735v-8.978c0-17.1-4.937-33.061-13.432-46.567H62.439z"/>
				
					<path fill="#8C5330" stroke="#8C5330" stroke-width="3.3915" stroke-linecap="round" stroke-linejoin="round" stroke-miterlimit="10" d="
					M121.756,128.941v45.446c0,16.28-13.196,29.478-29.482,29.478c-16.279,0-29.477-13.197-29.477-29.478v-45.446H121.756z"/>
				
					<path fill="#8C5330" stroke="#8C5330" stroke-width="3.3915" stroke-linecap="round" stroke-linejoin="round" stroke-miterlimit="10" d="
					M325.21,128.941v45.446c0,16.28-13.195,29.478-29.482,29.478c-16.279,0-29.477-13.197-29.477-29.478v-45.446H325.21z"/>
				<g>
					<path fill="#231F20" d="M222.179,208.582c0,3.562-2.885,6.445-6.446,6.445l0,0c-3.563,0-6.447-2.884-6.447-6.445v-0.22
						c0-3.563,2.885-6.451,6.447-6.451l0,0c3.562,0,6.446,2.889,6.446,6.451V208.582z"/>
					<g>
						<path fill="#231F20" d="M196.747,203.606c0,2.688-2.176,4.864-4.863,4.864l0,0c-2.686,0-4.863-2.177-4.863-4.864v-3.461
							c0-2.688,2.178-4.865,4.863-4.865l0,0c2.688,0,4.863,2.178,4.863,4.865V203.606z"/>
						<path fill="#231F20" d="M243.098,203.606c0,2.688-2.178,4.864-4.864,4.864l0,0c-2.686,0-4.863-2.177-4.863-4.864v-3.461
							c0-2.688,2.178-4.865,4.863-4.865l0,0c2.687,0,4.864,2.178,4.864,4.865V203.606z"/>
					</g>
					<path fill="#EC1C24" stroke="#EC1C24" stroke-width="0.3867" stroke-miterlimit="10" d="M202.199,227.985l-2.144-7.434
						c-1.668-5.787-7.711-9.127-13.499-7.458c-5.787,1.668-9.126,7.711-7.457,13.498l0.817,2.836"/>
					
						<path fill="none" stroke="#231F20" stroke-width="4.5219" stroke-linecap="round" stroke-linejoin="round" stroke-miterlimit="10" d="
						M214.015,212.419c5.094,10.834,15.879,18.309,28.36,18.309c6.128,0,11.851-1.804,16.688-4.922"/>
					
						<path fill="none" stroke="#231F20" stroke-width="4.5219" stroke-linecap="round" stroke-linejoin="round" stroke-miterlimit="10" d="
						M217.234,212.419c-5.093,10.834-15.878,18.309-28.359,18.309c-6.129,0-11.851-1.804-16.688-4.922"/>
					
						<path fill="none" stroke="#AA845E" stroke-width="3.3915" stroke-linecap="round" stroke-linejoin="round" stroke-miterlimit="10" d="
						M144.578,196.599c14.62,0,26.472,11.853,26.472,26.472c0,14.621-11.852,26.471-26.472,26.471
						c-6.853,0-13.097-2.604-17.798-6.875"/>
				</g>
				<g>
					<g>
						<g>
							<g>
								<g>
									
										<line fill="#A6A8AB" stroke="#A6A8AB" stroke-width="7.3131" stroke-linecap="round" stroke-linejoin="round" stroke-miterlimit="10" x1="61.501" y1="236.536" x2="85.595" y2="279.33"/>
									<g>
										<g>
											<path fill="#A6A8AB" d="M65.354,220.018l-19.97,11.244c-5.067,2.854-6.869,9.297-4.015,14.364l4.486,7.97
												c2.852,5.066,9.296,6.866,14.362,4.015l19.97-11.244c5.068-2.853,6.869-9.294,4.015-14.36l-4.487-7.971
												C76.863,218.968,70.42,217.166,65.354,220.018z"/>
											
												<line fill="#A6A8AB" stroke="#A6A8AB" stroke-width="9.771" stroke-linecap="round" stroke-linejoin="round" stroke-miterlimit="10" x1="33.279" y1="221.052" x2="50.469" y2="251.58"/>
											
												<line fill="#A6A8AB" stroke="#A6A8AB" stroke-width="9.771" stroke-linecap="round" stroke-linejoin="round" stroke-miterlimit="10" x1="63.081" y1="204.272" x2="80.27" y2="234.803"/>
											
												<line fill="#A6A8AB" stroke="#A6A8AB" stroke-width="9.771" stroke-linecap="round" stroke-linejoin="round" stroke-miterlimit="10" x1="48.039" y1="212.742" x2="65.226" y2="243.271"/>
										</g>
									</g>
									<g>
										<g>
											
												<line fill="none" stroke="#231F20" stroke-width="3.2213" stroke-linecap="round" stroke-linejoin="round" stroke-miterlimit="10" x1="54.711" y1="234.162" x2="56.602" y2="237.521"/>
											
												<line fill="none" stroke="#231F20" stroke-width="3.2213" stroke-linecap="round" stroke-linejoin="round" stroke-miterlimit="10" x1="62.996" y1="229.498" x2="64.885" y2="232.854"/>
										</g>
										
											<path fill="none" stroke="#231F20" stroke-width="2.5729" stroke-linecap="round" stroke-linejoin="round" stroke-miterlimit="10" d="
											M67.33,238.985c1.051,1.866,0.391,4.23-1.476,5.281c-1.866,1.05-4.231,0.389-5.28-1.477"/>
									</g>
									<g>
										<path fill="#EC1C24" d="M110.709,323.937c-5.278,2.974-11.97,1.104-14.94-4.176L73.11,279.518
											c-2.972-5.278-1.102-11.97,4.178-14.942c5.279-2.971,11.967-1.103,14.94,4.178l22.658,40.246
											C117.859,314.277,115.989,320.965,110.709,323.937z"/>
									</g>
									<g>
										<circle fill="#FFDA00" cx="100.003" cy="304.922" r="3.651"/>
										<circle fill="#FFDA00" cx="89.24" cy="285.805" r="3.652"/>
									</g>
								</g>
							</g>
						</g>
						
							<path fill="#FFFFFF" stroke="#FFFFFF" stroke-width="2.1047" stroke-linecap="round" stroke-linejoin="round" stroke-miterlimit="10" d="
							M59.791,242.921c0.009,0.017,0.017,0.036,0.025,0.049l0.142,0.25c1.253,2.229,4.075,3.018,6.3,1.766
							c2.226-1.255,3.016-4.077,1.761-6.303l-0.14-0.251c-0.009-0.017-0.021-0.031-0.03-0.045L59.791,242.921z"/>
					</g>
					<g>
						<circle fill="#FF7BAC" cx="25.398" cy="207.916" r="13.894"/>
						<path fill="#FF7BAC" d="M47.31,193.909c1.039,8.164-4.738,15.62-12.9,16.66c-8.162,1.035-15.619-4.738-16.657-12.902
							c-1.038-8.16,4.737-15.618,12.899-16.656C38.813,179.973,46.272,185.749,47.31,193.909z"/>
						<path fill="#FF7BAC" d="M48.179,210.625c0.825,6.485-3.765,12.412-10.251,13.239c-6.484,0.822-12.412-3.766-13.236-10.253
							c-0.824-6.484,3.766-12.411,10.25-13.236C41.428,199.551,47.355,204.14,48.179,210.625z"/>
						<circle fill="#FF7BAC" cx="53.255" cy="192.478" r="14.898"/>
						<circle fill="#FF7BAC" cx="53.261" cy="202.3" r="11.839"/>
					</g>
				</g>
				<circle fill="#C3996B" stroke="#C3996B" stroke-width="2.9589" stroke-miterlimit="10" cx="84.561" cy="298.97" r="19.356"/>
			</g>
		</g>
		<circle fill="#FF7BAC" cx="92.95" cy="409.496" r="6.011"/>
		<circle fill="#FF7BAC" cx="133.138" cy="411.502" r="4.004"/>
		<path fill="#FF7BAC" d="M118.693,407.974c0,4.161-3.371,7.534-7.533,7.534c-4.156,0-7.528-3.373-7.528-7.534
			c0-4.156,3.372-7.528,7.528-7.528C115.322,400.445,118.693,403.817,118.693,407.974z"/>
		<circle fill="#FF7BAC" cx="309.088" cy="412.329" r="3.75"/>
		<circle fill="#FF7BAC" cx="324.604" cy="410.831" r="5.249"/>
		<g>
			
				<line fill="none" stroke="#F6921E" stroke-width="26.2061" stroke-linecap="round" stroke-linejoin="round" stroke-miterlimit="10" x1="371.493" y1="402.552" x2="371.493" y2="349.638"/>
			
				<line fill="none" stroke="#F6921E" stroke-width="26.2061" stroke-linecap="round" stroke-linejoin="round" stroke-miterlimit="10" x1="463.215" y1="402.552" x2="463.215" y2="349.638"/>
			
				<line fill="none" stroke="#F6921E" stroke-width="13.103" stroke-linecap="round" stroke-linejoin="round" stroke-miterlimit="10" x1="368.8" y1="383.776" x2="463.284" y2="383.776"/>
		</g>
		<g>
			<g>
				<g>
					<circle fill="#FEED72" cx="391.913" cy="215.43" r="7.137"/>
					<path fill="#E92229" d="M423.43,215.43c0,3.942-3.198,7.139-7.138,7.139c-3.944,0-7.139-3.196-7.139-7.139
						c0-3.943,3.194-7.141,7.139-7.141C420.231,208.289,423.43,211.486,423.43,215.43z"/>
					<circle fill="#E92229" cx="440.669" cy="215.43" r="7.139"/>
				</g>
				<path fill="#8C5330" d="M483.929,321.669c0,5.465-4.432,9.898-9.898,9.898H358.555c-5.468,0-9.899-4.434-9.899-9.898v-94.362
					c0-5.466,4.432-9.897,9.899-9.897H474.03c5.467,0,9.898,4.432,9.898,9.897V321.669z"/>
				<g>
					<path fill="#FFFFFF" d="M471.061,299.307c-0.031,0-0.065,0-0.097,0c-3.641,0.013-7.079,1.402-10.404,2.745
						c-2.805,1.133-5.456,2.202-7.689,2.204c-0.002,0-0.004,0-0.006,0c-1.936,0-4.349-0.963-6.902-1.983
						c-3.48-1.391-7.427-2.966-11.957-2.966c-6.02,0-9.652,1.691-12.57,3.05c-2.28,1.061-4.081,1.899-6.775,1.899
						c-1.502,0-3.085-0.739-5.092-1.674c-3.126-1.46-7.021-3.275-12.746-3.275c-4.74,0-8.691,1.564-12.181,2.943
						c-2.717,1.075-5.068,2.006-7.238,2.006c-1.674,0-3.855-0.95-6.165-1.957c-3.218-1.401-6.868-2.992-11.061-2.992
						c-4.958,0-8.879,1.564-11.521,3.086v7.824c0.285-0.153,0.553-0.348,0.792-0.587c0.037-0.043,4.105-3.984,10.729-3.984
						c2.828,0,5.682,1.245,8.444,2.448c2.824,1.229,5.74,2.501,8.781,2.501c3.422,0,6.587-1.254,9.65-2.466
						c3.086-1.22,6.276-2.483,9.769-2.483c4.273,0,7.175,1.354,9.979,2.662c2.41,1.123,4.901,2.287,7.858,2.287
						c4.146,0,6.889-1.276,9.539-2.51c2.694-1.256,5.237-2.439,9.807-2.439c3.27,0,6.452,1.271,9.525,2.5
						c3.017,1.204,6.137,2.449,9.334,2.449c0.004,0,0.007,0,0.01,0c3.507-0.002,6.879-1.364,10.14-2.683
						c2.879-1.161,5.595-2.259,7.975-2.267c0.023,0,0.048,0,0.073,0c7.514,0,12.02,3.941,12.193,4.098
						c0.207,0.189,0.436,0.336,0.674,0.461v-7.636C481.071,301.008,476.676,299.307,471.061,299.307z"/>
					<path fill="#FFFFFF" d="M360.177,284.859c2.828,0,5.682,1.245,8.444,2.447c2.824,1.23,5.74,2.502,8.781,2.502
						c3.422,0,6.587-1.255,9.65-2.464c3.086-1.223,6.276-2.485,9.769-2.485c4.273,0,7.175,1.354,9.979,2.662
						c2.41,1.123,4.901,2.287,7.858,2.287c4.146,0,6.889-1.275,9.539-2.51c2.694-1.256,5.237-2.439,9.807-2.439
						c3.27,0,6.452,1.271,9.525,2.499c3.017,1.206,6.137,2.45,9.334,2.45c0.004,0,0.007,0,0.01,0
						c3.507-0.002,6.879-1.363,10.14-2.682c2.879-1.162,5.595-2.258,7.975-2.268c0.023,0,0.048,0,0.073,0
						c7.514,0,12.02,3.942,12.193,4.097c0.207,0.19,0.436,0.336,0.674,0.462v-7.636c-2.857-1.56-7.253-3.261-12.868-3.261
						c-0.031,0-0.065,0-0.097,0c-3.641,0.011-7.079,1.401-10.404,2.742c-2.805,1.134-5.456,2.203-7.689,2.205
						c-0.002,0-0.004,0-0.006,0c-1.936,0-4.349-0.963-6.902-1.982c-3.48-1.39-7.427-2.965-11.957-2.965
						c-6.02,0-9.652,1.688-12.57,3.048c-2.28,1.063-4.081,1.899-6.775,1.899c-1.502,0-3.085-0.738-5.092-1.672
						c-3.126-1.461-7.021-3.275-12.746-3.275c-4.74,0-8.691,1.564-12.181,2.941c-2.717,1.077-5.068,2.006-7.238,2.006
						c-1.674,0-3.855-0.947-6.165-1.956c-3.218-1.401-6.868-2.991-11.061-2.991c-4.958,0-8.879,1.564-11.521,3.087v7.821
						c0.285-0.151,0.553-0.345,0.792-0.589C349.484,288.802,353.553,284.859,360.177,284.859z"/>
				</g>
				<path fill="#FF7BAC" d="M474.03,217.409H358.555c-5.468,0-9.899,4.432-9.899,9.897v9.143v5.044v13.306
					c0,7.529,6.055,13.632,13.525,13.632c7.473,0,13.529-6.103,13.529-13.632c0,7.529,6.056,13.632,13.527,13.632
					c7.47,0,13.526-6.103,13.526-13.632c0,7.529,6.058,13.632,13.528,13.632c7.472,0,13.527-6.103,13.527-13.632
					c0,7.529,6.057,13.632,13.527,13.632c7.469,0,13.527-6.103,13.527-13.632c0,7.529,6.057,13.632,13.526,13.632
					c7.473,0,13.528-6.103,13.528-13.632v-13.306v-5.044v-9.143C483.929,221.841,479.497,217.409,474.03,217.409z"/>
				<g>
					<circle fill="#FFFFFF" cx="365.3" cy="240.922" r="4.331"/>
					<circle fill="#FF7BAC" cx="390.795" cy="240.922" r="4.33"/>
					<circle fill="#FFFFFF" cx="416.292" cy="240.922" r="4.33"/>
					<path fill="#FFFFFF" d="M446.117,240.922c0,2.393-1.938,4.33-4.328,4.33c-2.395,0-4.331-1.938-4.331-4.33
						c0-2.392,1.937-4.33,4.331-4.33C444.179,236.592,446.117,238.53,446.117,240.922z"/>
					<circle fill="#FFFFFF" cx="467.283" cy="240.922" r="4.33"/>
				</g>
				<g>
					<g>
						
							<line fill="#0B703B" stroke="#29B473" stroke-width="12.2524" stroke-linecap="round" stroke-linejoin="round" stroke-miterlimit="10" x1="343.92" y1="327.987" x2="488.663" y2="327.987"/>
					</g>
				</g>
			</g>
			<circle fill="#FEED72" cx="357.817" cy="231.228" r="18.643"/>
			<circle fill="#FEED72" cx="385.482" cy="222.272" r="16.746"/>
			<path fill="#FEED72" d="M386.466,218.791c0,8.405-6.816,15.221-15.22,15.221c-8.406,0-15.222-6.815-15.222-15.221
				s6.815-15.22,15.222-15.22C379.649,203.571,386.466,210.386,386.466,218.791z"/>
		</g>
		<g>
			
				<path fill="#E92229" stroke="#E92229" stroke-width="5" stroke-linecap="round" stroke-linejoin="round" stroke-miterlimit="10" d="
				M495.493,344.145c0-4.429-3.591-8.02-8.02-8.02H344.608c-4.428,0-8.019,3.591-8.019,8.02v47.133h158.903V344.145z"/>
		</g>
	</g>
</g>
<g id="cositas" display="none">
</g>
</svg>
