<?xml version="1.0" encoding="utf-8"?>
<!-- Generator: Adobe Illustrator 16.0.0, SVG Export Plug-In . SVG Version: 6.00 Build 0)  -->
<!DOCTYPE svg PUBLIC "-//W3C//DTD SVG 1.1//EN" "http://www.w3.org/Graphics/SVG/1.1/DTD/svg11.dtd">
<svg version="1.1" xmlns="http://www.w3.org/2000/svg" xmlns:xlink="http://www.w3.org/1999/xlink" x="0px" y="0px"
	 width="412.001px" height="412px" viewBox="0 0 412.001 412" enable-background="new 0 0 412.001 412" xml:space="preserve">
<g id="Layer_1">
</g>
<g id="amarillo">
	<rect fill="#FEED72" width="412.001" height="412"/>
</g>
<g id="verde" display="none">
	<rect display="inline" fill="#96E072" width="412.001" height="412"/>
</g>
<g id="azul" display="none">
	<rect display="inline" fill="#80CEEF" width="412.001" height="412"/>
</g>
<g id="torta1" display="none">
	<g display="inline">
		<g>
			<g>
				<path fill="#E92229" d="M171.161,92.807c0,7.965-6.455,14.424-14.42,14.424c-7.969,0-14.422-6.459-14.422-14.424
					c0-7.967,6.453-14.426,14.422-14.426C164.706,78.381,171.161,84.84,171.161,92.807z"/>
				<path fill="#E92229" d="M220.423,92.807c0,7.965-6.461,14.424-14.424,14.424c-7.969,0-14.426-6.459-14.426-14.424
					c0-7.967,6.457-14.426,14.426-14.426C213.962,78.381,220.423,84.84,220.423,92.807z"/>
				<circle fill="#E92229" cx="255.257" cy="92.807" r="14.424"/>
			</g>
			<path fill="#8C5330" d="M342.667,307.473c0,11.045-8.955,20-20,20H89.333c-11.045,0-20-8.955-20-20V116.805
				c0-11.045,8.955-20,20-20h233.334c11.045,0,20,8.955,20,20V307.473z"/>
			<g>
				<g>
					
						<line fill="#0B703B" stroke="#29B473" stroke-width="24.7572" stroke-linecap="round" stroke-linejoin="round" stroke-miterlimit="10" x1="50.63" y1="320.24" x2="361.37" y2="320.24"/>
				</g>
			</g>
			<g>
				<path fill="#FFFFFF" d="M316.667,262.287c-0.064,0-0.133,0-0.197,0c-7.357,0.025-14.303,2.832-21.021,5.545
					c-5.67,2.289-11.025,4.451-15.539,4.455c-0.004,0-0.006,0-0.01,0c-3.912,0-8.787-1.945-13.947-4.008
					c-7.035-2.809-15.008-5.992-24.162-5.992c-12.164,0-19.502,3.416-25.398,6.162c-4.605,2.145-8.246,3.838-13.691,3.838
					c-3.033,0-6.232-1.492-10.285-3.383c-6.32-2.947-14.186-6.617-25.756-6.617c-9.582,0-17.564,3.16-24.609,5.947
					c-5.496,2.174-10.244,4.053-14.631,4.053c-3.381,0-7.787-1.92-12.453-3.953c-6.506-2.834-13.879-6.047-22.352-6.047
					c-10.016,0-17.939,3.162-23.281,6.236v15.809c0.578-0.307,1.119-0.701,1.6-1.189c0.078-0.08,8.297-8.047,21.682-8.047
					c5.711,0,11.484,2.516,17.064,4.947c5.703,2.484,11.598,5.053,17.74,5.053c6.914,0,13.313-2.533,19.502-4.98
					c6.236-2.469,12.684-5.02,19.738-5.02c8.633,0,14.494,2.734,20.164,5.379c4.869,2.271,9.906,4.621,15.877,4.621
					c8.379,0,13.918-2.578,19.275-5.072c5.443-2.535,10.584-4.928,19.814-4.928c6.605,0,13.035,2.566,19.252,5.051
					c6.096,2.434,12.396,4.949,18.857,4.949c0.006,0,0.014,0,0.021,0c7.082-0.006,13.896-2.758,20.484-5.418
					c5.814-2.348,11.305-4.564,16.111-4.582c0.051,0,0.102,0,0.152,0c15.18,0,24.287,7.967,24.637,8.279
					c0.418,0.381,0.881,0.676,1.361,0.932v-15.428C336.894,265.725,328.009,262.287,316.667,262.287z"/>
				<path fill="#FFFFFF" d="M92.614,233.096c5.711,0,11.484,2.516,17.064,4.947c5.703,2.484,11.598,5.053,17.74,5.053
					c6.914,0,13.313-2.533,19.502-4.98c6.236-2.469,12.684-5.02,19.738-5.02c8.633,0,14.494,2.734,20.164,5.379
					c4.869,2.271,9.906,4.621,15.877,4.621c8.379,0,13.918-2.578,19.275-5.072c5.443-2.535,10.584-4.928,19.814-4.928
					c6.605,0,13.035,2.566,19.252,5.051c6.096,2.434,12.396,4.949,18.857,4.949c0.006,0,0.014,0,0.021,0
					c7.082-0.006,13.896-2.758,20.484-5.418c5.814-2.348,11.305-4.564,16.111-4.582c0.051,0,0.102,0,0.152,0
					c15.18,0,24.287,7.967,24.637,8.279c0.418,0.381,0.881,0.676,1.361,0.932v-15.428c-5.773-3.154-14.658-6.592-26-6.592
					c-0.064,0-0.133,0-0.197,0c-7.357,0.025-14.303,2.832-21.021,5.545c-5.67,2.289-11.025,4.451-15.539,4.455
					c-0.004,0-0.006,0-0.01,0c-3.912,0-8.787-1.945-13.947-4.008c-7.035-2.809-15.008-5.992-24.162-5.992
					c-12.164,0-19.502,3.416-25.398,6.162c-4.605,2.145-8.246,3.838-13.691,3.838c-3.033,0-6.232-1.492-10.285-3.383
					c-6.32-2.947-14.186-6.617-25.756-6.617c-9.582,0-17.564,3.16-24.609,5.947c-5.496,2.174-10.244,4.053-14.631,4.053
					c-3.381,0-7.787-1.92-12.453-3.953c-6.506-2.834-13.879-6.047-22.352-6.047c-10.016,0-17.939,3.162-23.281,6.236v15.809
					c0.578-0.307,1.119-0.701,1.6-1.189C71.011,241.063,79.229,233.096,92.614,233.096z"/>
			</g>
			<path fill="#FF7BAC" d="M322.667,96.805H89.333c-11.045,0-20,8.955-20,20v18.473v10.195v26.883
				c0,15.211,12.238,27.543,27.334,27.543s27.334-12.332,27.334-27.543c0,15.211,12.236,27.543,27.332,27.543
				s27.334-12.332,27.334-27.543c0,15.211,12.238,27.543,27.332,27.543c15.096,0,27.334-12.332,27.334-27.543
				c0,15.211,12.238,27.543,27.334,27.543c15.094,0,27.332-12.332,27.332-27.543c0,15.211,12.238,27.543,27.334,27.543
				s27.334-12.332,27.334-27.543v-26.883v-10.195v-18.473C342.667,105.76,333.712,96.805,322.667,96.805z"/>
			<g>
				<circle fill="#FFFFFF" cx="102.97" cy="144.316" r="8.75"/>
				<circle fill="#FFFFFF" cx="154.485" cy="144.316" r="8.75"/>
				<circle fill="#FFFFFF" cx="206.001" cy="144.316" r="8.75"/>
				<circle fill="#FFFFFF" cx="257.517" cy="144.316" r="8.75"/>
				<circle fill="#FFFFFF" cx="309.032" cy="144.316" r="8.75"/>
			</g>
		</g>
	</g>
</g>
<g id="torta2">
	<g>
		<g>
			<g>
				<path fill="#E92229" d="M227.779,145.419c0,6.179-5.008,11.189-11.187,11.189c-6.183,0-11.188-5.011-11.188-11.189
					c0-6.181,5.006-11.192,11.188-11.192C222.771,134.227,227.779,139.238,227.779,145.419z"/>
				<path fill="#E92229" d="M265.997,145.419c0,6.179-5.013,11.189-11.19,11.189c-6.182,0-11.191-5.011-11.191-11.189
					c0-6.181,5.01-11.192,11.191-11.192C260.984,134.227,265.997,139.238,265.997,145.419z"/>
				<circle fill="#E92229" cx="293.021" cy="145.419" r="11.19"/>
			</g>
			<path fill="#8C5330" d="M360.834,311.956c0,8.569-6.947,15.517-15.517,15.517H164.297c-8.568,0-15.516-6.947-15.516-15.517
				v-147.92c0-8.569,6.947-15.517,15.516-15.517h181.021c8.569,0,15.517,6.947,15.517,15.517V311.956z"/>
			<g>
				<g>
					
						<line fill="#0B703B" stroke="#29B473" stroke-width="19.2067" stroke-linecap="round" stroke-linejoin="round" stroke-miterlimit="10" x1="134.271" y1="321.862" x2="375.344" y2="321.862"/>
				</g>
			</g>
			<g>
				<path fill="#FFFFFF" d="M340.663,276.902c-0.05,0-0.103,0-0.153,0c-5.708,0.019-11.096,2.196-16.309,4.301
					c-4.398,1.775-8.554,3.454-12.055,3.456c-0.003,0-0.005,0-0.008,0c-3.035,0-6.816-1.509-10.82-3.108
					c-5.458-2.18-11.643-4.648-18.745-4.648c-9.437,0-15.13,2.649-19.704,4.78c-3.573,1.663-6.397,2.977-10.621,2.977
					c-2.354,0-4.836-1.157-7.979-2.623c-4.903-2.287-11.006-5.134-19.982-5.134c-7.434,0-13.625,2.451-19.091,4.613
					c-4.265,1.687-7.947,3.144-11.352,3.144c-2.622,0-6.041-1.489-9.66-3.066c-5.047-2.198-10.768-4.69-17.341-4.69
					c-7.77,0-13.918,2.453-18.062,4.838v12.265c0.448-0.238,0.868-0.545,1.24-0.924c0.062-0.062,6.438-6.242,16.821-6.242
					c4.431,0,8.91,1.952,13.239,3.838c4.424,1.927,8.997,3.92,13.762,3.92c5.364,0,10.329-1.966,15.131-3.863
					c4.837-1.915,9.839-3.895,15.312-3.895c6.698,0,11.245,2.121,15.644,4.172c3.778,1.763,7.686,3.586,12.318,3.586
					c6.5,0,10.797-2.001,14.953-3.936c4.223-1.967,8.211-3.822,15.372-3.822c5.125,0,10.113,1.991,14.936,3.919
					c4.729,1.887,9.617,3.839,14.63,3.839c0.005,0,0.01,0,0.017,0c5.494-0.004,10.781-2.139,15.892-4.203
					c4.511-1.822,8.771-3.541,12.5-3.555c0.039,0,0.078,0,0.118,0c11.776,0,18.842,6.181,19.112,6.423
					c0.325,0.296,0.684,0.524,1.057,0.723v-11.969C356.354,279.568,349.462,276.902,340.663,276.902z"/>
				<path fill="#FFFFFF" d="M166.843,254.255c4.431,0,8.91,1.951,13.239,3.838c4.424,1.928,8.997,3.92,13.762,3.92
					c5.364,0,10.329-1.965,15.131-3.864c4.837-1.914,9.839-3.894,15.312-3.894c6.698,0,11.245,2.122,15.644,4.173
					c3.778,1.762,7.686,3.585,12.318,3.585c6.5,0,10.797-2,14.953-3.935c4.223-1.967,8.211-3.823,15.372-3.823
					c5.125,0,10.113,1.991,14.936,3.918c4.729,1.889,9.617,3.84,14.63,3.84c0.005,0,0.01,0,0.017,0
					c5.494-0.004,10.781-2.139,15.892-4.203c4.511-1.821,8.771-3.541,12.5-3.555c0.039,0,0.078,0,0.118,0
					c11.776,0,18.842,6.181,19.112,6.424c0.325,0.295,0.684,0.524,1.057,0.722v-11.969c-4.479-2.447-11.372-5.113-20.171-5.113
					c-0.05,0-0.103,0-0.153,0c-5.708,0.02-11.096,2.197-16.309,4.301c-4.398,1.777-8.554,3.454-12.055,3.457
					c-0.003,0-0.005,0-0.008,0c-3.035,0-6.816-1.509-10.82-3.109c-5.458-2.179-11.643-4.648-18.745-4.648
					c-9.437,0-15.13,2.649-19.704,4.78c-3.573,1.663-6.397,2.978-10.621,2.978c-2.354,0-4.836-1.158-7.979-2.624
					c-4.903-2.288-11.006-5.134-19.982-5.134c-7.434,0-13.625,2.451-19.091,4.613c-4.265,1.687-7.947,3.145-11.352,3.145
					c-2.622,0-6.041-1.49-9.66-3.067c-5.047-2.198-10.768-4.69-17.341-4.69c-7.77,0-13.918,2.453-18.062,4.838v12.265
					c0.448-0.238,0.868-0.544,1.24-0.924C150.083,260.436,156.459,254.255,166.843,254.255z"/>
			</g>
			<path fill="#FF7BAC" d="M345.317,148.52H164.297c-8.568,0-15.516,6.947-15.516,15.517v14.331v7.91v20.854
				c0,11.801,9.494,21.368,21.205,21.368c11.712,0,21.207-9.567,21.207-21.368c0,11.801,9.492,21.368,21.204,21.368
				c11.71,0,21.205-9.567,21.205-21.368c0,11.801,9.494,21.368,21.204,21.368c11.712,0,21.206-9.567,21.206-21.368
				c0,11.801,9.495,21.368,21.205,21.368s21.205-9.567,21.205-21.368c0,11.801,9.494,21.368,21.205,21.368
				c11.712,0,21.206-9.567,21.206-21.368v-20.854v-7.91v-14.331C360.834,155.467,353.887,148.52,345.317,148.52z"/>
			<g>
				<circle fill="#FFFFFF" cx="174.876" cy="185.38" r="6.788"/>
				<circle fill="#FFFFFF" cx="214.843" cy="185.38" r="6.788"/>
				<circle fill="#FFFFFF" cx="254.808" cy="185.38" r="6.788"/>
				<circle fill="#FFFFFF" cx="294.774" cy="185.38" r="6.788"/>
				<circle fill="#FFFFFF" cx="334.74" cy="185.38" r="6.788"/>
			</g>
		</g>
	</g>
	<g>
		<g>
			<g>
				
					<line fill="#A6A8AB" stroke="#A6A8AB" stroke-width="13.8989" stroke-linecap="round" stroke-linejoin="round" stroke-miterlimit="10" x1="78.476" y1="143.906" x2="78.476" y2="237.242"/>
				<g>
					<g>
						<path fill="#A6A8AB" d="M100.255,120.143H56.698c-11.051,0-20.041,8.991-20.041,20.043v17.383
							c0,11.051,8.99,20.041,20.041,20.041h43.557c11.051,0,20.04-8.99,20.04-20.041v-17.383
							C120.295,129.134,111.306,120.143,100.255,120.143z"/>
						
							<line fill="#A6A8AB" stroke="#A6A8AB" stroke-width="18.5703" stroke-linecap="round" stroke-linejoin="round" stroke-miterlimit="10" x1="46.177" y1="91.947" x2="46.177" y2="158.533"/>
						
							<line fill="#A6A8AB" stroke="#A6A8AB" stroke-width="18.5703" stroke-linecap="round" stroke-linejoin="round" stroke-miterlimit="10" x1="111.174" y1="91.947" x2="111.174" y2="158.533"/>
						
							<line fill="#A6A8AB" stroke="#A6A8AB" stroke-width="18.5703" stroke-linecap="round" stroke-linejoin="round" stroke-miterlimit="10" x1="78.365" y1="91.947" x2="78.365" y2="158.533"/>
					</g>
				</g>
				<g>
					<g>
						
							<line fill="none" stroke="#231F20" stroke-width="6.1223" stroke-linecap="round" stroke-linejoin="round" stroke-miterlimit="10" x1="69.442" y1="133.643" x2="69.442" y2="140.963"/>
						
							<line fill="none" stroke="#231F20" stroke-width="6.1223" stroke-linecap="round" stroke-linejoin="round" stroke-miterlimit="10" x1="87.511" y1="133.643" x2="87.511" y2="140.963"/>
					</g>
					
						<path fill="none" stroke="#231F20" stroke-width="4.8899" stroke-linecap="round" stroke-linejoin="round" stroke-miterlimit="10" d="
						M85.844,153.396c0,4.07-3.297,7.369-7.368,7.369c-4.068,0-7.366-3.299-7.366-7.369"/>
				</g>
				<g>
					<path fill="#EC1C24" d="M78.476,334.534c-11.515,0-20.849-9.334-20.849-20.849V225.91c0-11.515,9.334-20.849,20.849-20.849
						s20.849,9.334,20.849,20.849v87.775C99.324,325.2,89.99,334.534,78.476,334.534z"/>
				</g>
				<g>
					<circle fill="#FFDA00" cx="78.476" cy="293.061" r="6.94"/>
					<circle fill="#FFDA00" cx="78.476" cy="251.363" r="6.94"/>
				</g>
			</g>
		</g>
	</g>
	
		<path fill="#FFFFFF" stroke="#FFFFFF" stroke-width="4" stroke-linecap="round" stroke-linejoin="round" stroke-miterlimit="10" d="
		M69.689,152.887c0,0.033-0.006,0.068-0.006,0.102v0.549c0,4.857,3.938,8.793,8.793,8.793s8.793-3.936,8.793-8.793v-0.549
		c0-0.033-0.006-0.068-0.006-0.102H69.689z"/>
</g>
<g id="diente" display="none">
	<g display="inline">
		<path fill="#FFFFFF" d="M295.952,129.974h-82.291c-28.869,0-52.355,23.487-52.355,52.358v23.543
			c0,10.719,3.482,26.401,8.873,39.954c3.471,8.725,7.375,15.525,11.484,20.803v34.408c0,16.727,13.559,30.286,30.285,30.286
			s30.287-13.56,30.287-30.286v-17.31h0.102c0.01-6.874,5.59-12.447,12.465-12.447s12.451,5.573,12.461,12.447h0.115v17.31
			c0,16.727,13.561,30.286,30.287,30.286s30.285-13.56,30.285-30.286v-34.409c4.109-5.277,8.014-12.076,11.484-20.8
			c5.393-13.554,8.875-29.237,8.875-39.956v-23.543C348.31,153.461,324.823,129.974,295.952,129.974z"/>
	</g>
	<g display="inline">
		<g>
			
				<line fill="#A6A8AB" stroke="#FFFFFF" stroke-width="13.123" stroke-linecap="round" stroke-linejoin="round" stroke-miterlimit="10" x1="92.206" y1="156.292" x2="128.826" y2="156.292"/>
			
				<line fill="#A6A8AB" stroke="#FFFFFF" stroke-width="13.123" stroke-linecap="round" stroke-linejoin="round" stroke-miterlimit="10" x1="92.206" y1="137.692" x2="128.826" y2="137.692"/>
			
				<line fill="#A6A8AB" stroke="#FFFFFF" stroke-width="13.123" stroke-linecap="round" stroke-linejoin="round" stroke-miterlimit="10" x1="92.206" y1="119.093" x2="128.826" y2="119.093"/>
			
				<line fill="#A6A8AB" stroke="#FFFFFF" stroke-width="13.123" stroke-linecap="round" stroke-linejoin="round" stroke-miterlimit="10" x1="92.206" y1="100.493" x2="128.826" y2="100.493"/>
		</g>
		
			<line fill="#A6A8AB" stroke="#FFFFFF" stroke-width="13.123" stroke-linecap="round" stroke-linejoin="round" stroke-miterlimit="10" x1="77.874" y1="131.761" x2="77.874" y2="219.886"/>
		
			<line fill="#A6A8AB" stroke="#1B75BB" stroke-width="44.6961" stroke-linecap="round" stroke-linejoin="round" stroke-miterlimit="10" x1="77.874" y1="227.808" x2="77.874" y2="313.058"/>
		
			<path fill="#1B75BB" stroke="#1B75BB" stroke-width="14.4694" stroke-linecap="round" stroke-linejoin="round" stroke-miterlimit="10" d="
			M87.831,88.269c6.455,0,11.688,5.234,11.688,11.689v56.871c0,6.455-5.232,11.688-11.688,11.688H67.919
			c-6.457,0-11.689-5.232-11.689-11.688V99.958c0-6.455,5.232-11.689,11.689-11.689H87.831z"/>
		<g>
			
				<line fill="none" stroke="#231F20" stroke-width="8" stroke-linecap="round" stroke-linejoin="round" stroke-miterlimit="10" x1="67.344" y1="123.507" x2="67.344" y2="130.421"/>
			
				<line fill="none" stroke="#231F20" stroke-width="8" stroke-linecap="round" stroke-linejoin="round" stroke-miterlimit="10" x1="88.404" y1="123.507" x2="88.404" y2="130.421"/>
		</g>
		
			<path fill="none" stroke="#231F20" stroke-width="4.6169" stroke-linecap="round" stroke-linejoin="round" stroke-miterlimit="10" d="
			M84.83,144.472c0,3.844-3.115,6.957-6.956,6.957c-3.842,0-6.956-3.113-6.956-6.957"/>
		
			<line fill="#A6A8AB" stroke="#FFFFFF" stroke-width="13.123" stroke-linecap="round" stroke-linejoin="round" stroke-miterlimit="10" x1="77.874" y1="293.173" x2="77.874" y2="313.058"/>
		
			<path fill="#FFFFFF" stroke="#FFFFFF" stroke-width="3" stroke-linecap="round" stroke-linejoin="round" stroke-miterlimit="10" d="
			M69.087,144.228c0,0.034-0.006,0.068-0.006,0.103v0.549c0,4.856,3.938,8.793,8.793,8.793s8.793-3.937,8.793-8.793v-0.549
			c0-0.034-0.006-0.068-0.006-0.103H69.087z"/>
	</g>
</g>
<g id="basquet" display="none">
	<g display="inline">
		<g>
			
				<line fill="#A6A8AB" stroke="#FFFFFF" stroke-width="14.8372" stroke-linecap="round" stroke-linejoin="round" stroke-miterlimit="10" x1="141.03" y1="375.013" x2="108.304" y2="228.729"/>
			
				<line fill="#A6A8AB" stroke="#FFFFFF" stroke-width="14.8372" stroke-linecap="round" stroke-linejoin="round" stroke-miterlimit="10" x1="270.97" y1="375.013" x2="303.696" y2="228.729"/>
			<g>
				
					<line fill="#A6A8AB" stroke="#FFFFFF" stroke-width="14.8372" stroke-linecap="round" stroke-linejoin="round" stroke-miterlimit="10" x1="161.794" y1="227.72" x2="121.28" y2="273.322"/>
				
					<line fill="#A6A8AB" stroke="#FFFFFF" stroke-width="14.8372" stroke-linecap="round" stroke-linejoin="round" stroke-miterlimit="10" x1="230.294" y1="228.73" x2="133.839" y2="337.306"/>
				
					<line fill="#A6A8AB" stroke="#FFFFFF" stroke-width="14.8372" stroke-linecap="round" stroke-linejoin="round" stroke-miterlimit="10" x1="272.638" y1="259.186" x2="170.382" y2="374.289"/>
				
					<line fill="#A6A8AB" stroke="#FFFFFF" stroke-width="14.8372" stroke-linecap="round" stroke-linejoin="round" stroke-miterlimit="10" x1="276.083" y1="333.426" x2="239.78" y2="374.289"/>
			</g>
			<g>
				
					<line fill="#A6A8AB" stroke="#FFFFFF" stroke-width="14.8372" stroke-linecap="round" stroke-linejoin="round" stroke-miterlimit="10" x1="249.271" y1="228.734" x2="290.487" y2="275.13"/>
				
					<line fill="#A6A8AB" stroke="#FFFFFF" stroke-width="14.8372" stroke-linecap="round" stroke-linejoin="round" stroke-miterlimit="10" x1="180.954" y1="229.952" x2="278.784" y2="340.076"/>
				
					<line fill="#A6A8AB" stroke="#FFFFFF" stroke-width="14.8372" stroke-linecap="round" stroke-linejoin="round" stroke-miterlimit="10" x1="135.681" y1="257.109" x2="239.782" y2="374.291"/>
				
					<line fill="#A6A8AB" stroke="#FFFFFF" stroke-width="14.8372" stroke-linecap="round" stroke-linejoin="round" stroke-miterlimit="10" x1="135.687" y1="335.233" x2="170.38" y2="374.288"/>
			</g>
		</g>
		
			<line fill="#A6A8AB" stroke="#1B75BB" stroke-width="23.5049" stroke-linecap="round" stroke-linejoin="round" stroke-miterlimit="10" x1="93.757" y1="228.086" x2="318.245" y2="228.086"/>
	</g>
	<g display="inline">
		<path fill="#F26522" d="M251.068,76.771c-7.259-20.914-21.618-37.443-39.557-47.749c-1.853-1.064-3.747-2.053-5.677-2.982
			c-18.521-8.927-40.127-11.449-61.378-5.747c-1.041,0.282-2.083,0.466-3.118,0.792c-1.033,0.314-2,0.74-3.015,1.1
			C117.54,29.397,101.08,43.62,90.77,61.407c-1.077,1.854-2.085,3.739-3.021,5.668c-9.056,18.589-11.645,40.33-5.906,61.717
			c0.281,1.036,0.47,2.077,0.791,3.117c0.317,1.028,0.744,2,1.1,3.015c7.256,20.916,21.604,37.449,39.547,47.748
			c1.855,1.069,3.747,2.06,5.678,2.989c18.52,8.929,40.132,11.453,61.384,5.744c1.041-0.279,2.08-0.472,3.112-0.785
			c1.039-0.317,2.007-0.75,3.021-1.103c20.788-7.215,37.249-21.442,47.56-39.234c1.073-1.848,2.084-3.731,3.015-5.658
			c9.063-18.6,11.648-40.342,5.897-61.725c-0.274-1.032-0.458-2.072-0.78-3.107C251.851,78.756,251.42,77.785,251.068,76.771z"/>
		<g opacity="0.2">
			<path fill="#231F20" d="M129.827,120.755c5.728,21.443,2.8,43.332-6.872,61.726c1.853,1.076,3.737,2.084,5.667,3.022
				c10.44-19.854,13.58-43.493,7.337-66.63L129.827,120.755z"/>
			<path fill="#231F20" d="M87.587,67.414c18.328,9.794,33.047,26.251,40.354,47.212l6.135-1.89
				c-7.835-22.651-23.709-40.441-43.506-50.998C89.506,63.591,88.518,65.485,87.587,67.414z"/>
			<path fill="#231F20" d="M247.207,144.294c-18.338-9.795-33.053-26.257-40.364-47.214l-6.13,1.882
				c7.836,22.653,23.712,40.443,43.506,51.01C245.289,148.114,246.28,146.224,247.207,144.294z"/>
			<path fill="#231F20" d="M204.96,90.944c-5.721-21.444-2.795-43.324,6.871-61.729c-1.848-1.072-3.731-2.084-5.659-3.014
				c-10.439,19.852-13.587,43.488-7.339,66.631L204.96,90.944z"/>
			<path fill="#231F20" d="M200.713,98.962c-0.346-1.017-0.775-1.985-1.096-3.015c-0.318-1.033-0.509-2.081-0.784-3.115
				l-29.316,9.01l1.888,6.134L200.713,98.962z"/>
			<path fill="#231F20" d="M127.941,114.626L81.84,128.793c0.282,1.04,0.466,2.084,0.793,3.118c0.313,1.036,0.741,2.001,1.098,3.014
				l46.097-14.17c-0.279-1.037-0.47-2.081-0.786-3.11C128.723,116.61,128.296,115.641,127.941,114.626z"/>
			<path fill="#231F20" d="M134.076,112.736c0.35,1.017,0.783,1.987,1.097,3.016c0.32,1.042,0.508,2.084,0.786,3.121l29.312-9.015
				l-1.886-6.127L134.076,112.736z"/>
			<path fill="#231F20" d="M206.843,97.08l46.109-14.171c-0.279-1.041-0.472-2.081-0.785-3.113c-0.317-1.04-0.749-2.005-1.103-3.021
				L204.96,90.944c0.278,1.042,0.469,2.084,0.787,3.112C206.065,95.095,206.497,96.068,206.843,97.08z"/>
			<path fill="#231F20" d="M134.076,112.736l-6.135,1.89c0.354,1.015,0.781,1.984,1.1,3.019c0.316,1.029,0.507,2.073,0.786,3.11
				l6.132-1.882c-0.278-1.037-0.466-2.079-0.786-3.121C134.859,114.724,134.426,113.753,134.076,112.736z"/>
			<path fill="#231F20" d="M200.713,98.962l6.13-1.882c-0.346-1.012-0.777-1.985-1.096-3.023c-0.318-1.028-0.509-2.07-0.787-3.112
				l-6.127,1.888c0.275,1.034,0.466,2.082,0.784,3.115C199.938,96.977,200.367,97.945,200.713,98.962z"/>
			<path fill="#231F20" d="M165.271,109.858l25.069,81.549c1.037-0.28,2.078-0.469,3.116-0.79c1.028-0.318,2-0.744,3.015-1.099
				l-25.066-81.543L165.271,109.858z"/>
			<path fill="#231F20" d="M169.517,101.842l-25.068-81.538c-1.032,0.274-2.071,0.458-3.107,0.78
				c-1.038,0.315-2.008,0.747-3.021,1.1l25.064,81.548L169.517,101.842z"/>
			<polygon fill="#231F20" points="165.271,109.858 171.404,107.976 169.517,101.842 163.385,103.731 			"/>
		</g>
		
			<path fill="none" stroke="#231F20" stroke-width="5.1268" stroke-linecap="round" stroke-linejoin="round" stroke-miterlimit="10" d="
			M179.214,117.272c1.243,4.08-1.059,8.397-5.14,9.64c-4.08,1.243-8.398-1.059-9.641-5.138"/>
		<path fill="#231F20" d="M193.367,84.655c1.313,4.314-1.117,8.873-5.429,10.186c-4.312,1.313-8.869-1.115-10.184-5.429
			c-1.312-4.31,1.117-8.869,5.429-10.182C187.497,77.917,192.055,80.348,193.367,84.655z"/>
		<circle fill="#231F20" cx="144.439" cy="99.56" r="8.16"/>
	</g>
</g>
<g id="_x34_" display="none">
	
		<line display="inline" fill="none" stroke="#000000" stroke-width="5" stroke-miterlimit="10" x1="-6.274" y1="206" x2="414.91" y2="206"/>
	
		<line display="inline" fill="none" stroke="#000000" stroke-width="5" stroke-miterlimit="10" x1="204.318" y1="416.592" x2="204.318" y2="-4.593"/>
</g>
<g id="_x32_H" display="none">
	
		<line display="inline" fill="none" stroke="#000000" stroke-width="5" stroke-miterlimit="10" x1="-6.274" y1="206" x2="414.91" y2="206"/>
</g>
<g id="_x32_V" display="none">
	
		<line display="inline" fill="none" stroke="#000000" stroke-width="5" stroke-miterlimit="10" x1="204.318" y1="416.592" x2="204.318" y2="-4.593"/>
</g>
<g id="_x36_" display="none">
	
		<line display="inline" fill="none" stroke="#000000" stroke-width="5" stroke-miterlimit="10" x1="-6.274" y1="276" x2="414.91" y2="276"/>
	
		<line display="inline" fill="none" stroke="#000000" stroke-width="5" stroke-miterlimit="10" x1="144.318" y1="416.592" x2="144.318" y2="-4.593"/>
	
		<line display="inline" fill="none" stroke="#000000" stroke-width="5" stroke-miterlimit="10" x1="284.318" y1="416.592" x2="284.318" y2="-4.593"/>
	
		<line display="inline" fill="none" stroke="#000000" stroke-width="5" stroke-miterlimit="10" x1="-6.274" y1="136" x2="414.91" y2="136"/>
</g>
<g id="cositas" display="none">
</g>
</svg>
